<svg width="504" height="437" viewBox="0 0 504 437" fill="none" xmlns="http://www.w3.org/2000/svg">
<path d="M269.981 152.143L268.727 149.506L268.351 148.395L268.1 145.48L269.229 146.313L270.734 147.562L272.239 148.812L278.259 153.809L284.656 159.084L288.293 162.138L290.927 164.22L292.808 165.747L296.822 167.83L300.333 168.94L305.35 171.161L309.991 174.354L309.489 176.992L308.235 180.74L308.672 184.514L307.232 187.244L304.096 189.624L301.588 191.984L299.706 194.622L297.7 196.704V200.868L297.198 204.894L296.822 210.725L295.693 213.084L295.567 216.694V218.36L295.818 220.303L296.069 222.108L295.066 223.218L293.184 223.496L291.178 223.218L289.171 222.663L286.537 221.969L284.405 221.275L281.771 220.581L278.886 219.331L275.876 217.665L277.507 216.971L279.388 216.017L280.517 215.444L283.213 214.334L285.032 213.64L286.286 213.084L287.666 212.529L289.923 211.557L289.798 211.141V210.725L289.923 210.308L290.049 209.892L288.418 209.336L287.164 208.92L284.405 207.254L281.144 205.311L277.256 202.673L273.995 200.591L261.453 192.401L265.215 192.123L268.602 191.845L272.866 191.568H276.629L280.517 191.845L283.652 192.401L287.666 193.233L292.683 194.622L289.422 192.678L285.91 190.735L282.147 188.514L279.137 185.321L276.253 182.406L273.619 179.768L270.985 176.853L267.849 173.66L265.592 171.161L263.585 168.801L261.327 165.886L259.195 163.249L257.439 160.75L255.683 158.39L254.053 156.169L252.799 154.226L252.172 152.56L251.795 151.31L253.928 151.866L256.687 152.699L259.195 153.948L262.205 155.753L265.09 157.141L266.971 158.112L268.853 159.084L270.483 159.917L272.741 161.305L275.124 163.249L276.754 163.526L275.249 161.305L273.619 158.945L272.741 157.141L270.985 153.809L269.981 152.143Z" fill="white"/>
<path d="M0.0751953 29.706L3.71241 27.6237L8.47841 26.0967L11.8648 25.2638L14.8749 24.5697L20.8951 23.7368H26.7899L34.0643 24.0145L38.8303 24.2921L41.0879 24.5697L43.7218 25.9579L46.6064 28.0402L49.742 30.1225L52.3758 32.2047L55.2605 35.1199L61.0299 42.1996L64.7925 47.4747L68.1789 52.0557L71.9415 56.7756L75.4533 63.1612L79.3414 70.6574L83.2294 77.7371L87.87 86.3438L95.5207 100.503L98.9071 106.75L100.412 108.832L102.544 110.082L103.422 110.637L106.809 112.858L115.463 118.55L121.859 122.714L127.252 125.629L132.771 129.516L148.574 135.485L155.096 137.568L162.496 140.066L169.77 142.704L171.902 144.058L173.156 145.897L176.543 150.478L181.936 158.252L185.071 162.555L188.082 168.663L191.719 177.131L194.353 184.627L196.861 189.347L207.936 190.52L221.695 194.341L217.054 201.285L223.325 205.311L228.216 208.643L232.23 212.391L215.8 213.64L210.908 216.417L200.749 224.746L160.238 248.761L152.838 236.545L148.323 229.327L144.811 223.774L142.303 216.139L140.923 208.087V202.118L136.784 206.422L123.866 216.972L110.446 224.746L95.897 232.381L83.8565 238.905L77.3346 242.931L76.4567 216.417L75.8296 205.311V195.871L78.9651 186.432L82.6023 178.103L84.7345 171.023L75.2025 170.468L65.0434 169.774L56.6401 168.385L51.9996 167.275L44.2234 164.36L34.566 160.473L23.529 156.447L16.8816 153.254L23.529 139.65L28.0441 130.072L31.6813 121.604L37.1999 110.221L43.7218 101.059L50.7453 93.4236L55.8876 88.5649L53.2538 85.9274L47.8607 82.0405L40.4608 77.043L35.6948 73.7114L31.0542 69.8245L27.7933 66.7705L23.529 62.6059L20.268 59.5519L17.3833 56.2203L14.8749 53.0275L12.6173 50.3899L10.8614 48.03L9.23094 45.9477L4.59036 39.0068L3.21072 36.6469L1.45483 34.1482L0.451459 32.3435L0.0751953 29.706Z" fill="white"/>
<path d="M324.414 76.2109L329.557 82.0413L333.445 87.594L336.706 93.0079L341.722 103.003L346.99 114.386L349.373 120.494L352.76 128.962L357.776 140.067L361.539 149.368L365.302 159.641L361.79 157.42L356.648 153.394L349.749 149.368L342.6 146.175L338.085 145.065L333.946 144.648L328.929 145.065L327.424 137.43L326.17 125.769L325.167 112.998L323.913 98.6995L323.536 87.594L323.787 81.486L324.414 76.2109Z" fill="white"/>
<path d="M286.035 271.944L289.422 267.085L290.982 259.849L293.439 254.936L295.404 250.011L297.37 246.748L299.581 250.011L302.967 251.676L306.605 253.481L308.862 254.73L311.872 255.424L316.764 256.951L320.401 257.923L323.035 258.617L328.428 260.283L332.943 262.365L335.828 264.031L338.587 264.864L340.97 265.975L342.6 266.946V268.335L340.97 270.278L339.34 272.777V276.108L339.967 279.857L339.34 283.466L338.587 287.075L336.831 290.129L335.201 292.628L334.072 299.152L332.19 305.954L328.93 311.368L327.55 314.006L325.543 316.643L323.035 320.53L320.526 323.584L319.272 325.25L317.767 327.055L316.513 328.235L314.506 330.386L311.621 333.024L309.113 335.245L306.479 337.05L303.406 339.687L301.086 341.769L302.089 343.435L303.971 345.379L305.476 347.045L306.479 348.572V349.682L305.727 351.209L304.974 352.736L304.347 353.291H303.093L301.588 352.736L300.083 351.209L298.828 349.682L297.449 348.016L296.571 346.767L295.693 345.101L293.31 347.461L290.802 350.099L288.92 352.181L287.917 353.291L287.164 353.569L286.286 353.291L285.659 352.736L285.032 351.487L283.151 348.016L280.768 346.073L277.883 345.101L277.507 342.88V339.687V337.327L277.131 335.245V331.636L276.127 329.137L274.12 328.235H271.988H269.856L268.351 327.055L263.711 326.638H260.45L258.067 327.055L256.562 327.471L257.69 325.25L259.446 321.918L261.578 318.032L257.567 308.435L267.599 300.54L260.024 290.42L270.107 293.6L271.326 275.68L275.124 282.633L277.883 279.857L281.897 276.803L286.035 271.944Z" fill="white"/>
<path d="M372.2 217.945L373.705 216.418L374.959 214.335L376.213 212.531L377.718 210.31L379.098 208.505L380.603 210.31L381.607 212.808L382.359 215.307L382.861 216.834L383.362 219.055V221.137V224.885L382.861 227.801L382.359 230.438H381.356L379.098 229.744L377.217 229.189L371.071 228.495L369.441 226.829L368.061 224.885V221.693L369.441 220.721L370.193 219.888L371.071 219.055L372.2 217.945Z" fill="white"/>
<path d="M347.994 255.981L349.122 255.148L350.126 254.454L351.129 253.76L352.258 253.343L353.261 252.927L355.644 251.955L356.397 253.343L356.648 255.148V257.23V259.868V262.505L355.644 261.95L353.387 260.423L351.004 258.896L349.248 257.23L348.495 256.536L347.994 255.981Z" fill="white"/>
<path d="M308.235 194.9L308.736 192.54L309.614 190.319L310.743 187.959L311.621 186.571L313.095 183.423L317.026 183.969L320.465 187.79L326.854 189.428L329.682 194.345L333.319 197.676L336.705 200.869L338.838 204.201L336.705 207.671L334.573 210.17L332.316 211.697L329.18 212.391L325.668 213.085H322.533L319.523 212.391L316.763 211.142L314.13 209.476L312.499 207.671L310.743 205.866L309.364 203.507L307.198 200.869V198.162L308.235 194.9Z" fill="white"/>
<path d="M377.718 194.207L378.721 192.541L379.348 191.43L380.603 191.153L381.481 192.541L382.108 194.901L382.359 196.844L382.609 199.204L382.359 200.87L380.854 201.287L379.098 200.87L377.718 199.898L375.837 197.816L376.589 196.428L377.718 194.207Z" fill="white"/>
<path d="M293.435 133.126L296.822 137.013L299.706 139.65L301.839 141.177L305.977 143.537L312.374 146.314L318.269 148.951L322.031 150.895V159.085L317.391 164.221L312.374 169.496L309.991 174.355L305.35 171.162L300.333 168.941L296.822 167.83L292.808 165.748L288.293 162.139L269.229 146.314L267.222 143.954L265.968 141.733L264.965 139.234L263.46 135.347L262.582 133.126L261.955 129.794L261.077 123.825L260.575 118.897V115.218V112.303L261.077 107.861L261.578 105.779L262.582 103.419L263.836 101.198L265.592 98.5601L267.222 96.0614L270.107 90.9251L274.622 83.7065V98.5601L274.998 103.974L276.127 108.416L278.134 113.691L281.395 119.799L286.161 125.768L290.551 130.211L293.435 133.126Z" fill="white"/>
<path d="M177.421 88.8444L177.672 91.4819L181.685 86.9009L185.699 82.4587L187.956 80.3764L192.221 78.0165L198.742 75.2402L204.261 72.6026L209.027 70.2427L213.291 68.0216L216.929 67.1887L225.833 66.3558L232.857 65.5229L239.755 64.69H248.535L255.935 65.5229L252.423 68.0216L249.162 69.9651L246.152 72.0473L242.264 74.4073L238.376 76.6283L234.989 78.9883L231.854 81.2094L228.969 82.8752L225.833 86.068L222.698 90.7878L221.193 93.5642L219.312 96.6182L216.929 100.227L215.173 103.281L213.417 107.168L212.163 111.194L210.281 116.192L209.278 119.801L208.4 122.855L207.146 125.354L205.766 127.991L203.759 130.906L201.627 132.85L199.746 134.099L197.112 134.793H190.841L187.329 133.821L183.441 131.462L180.682 128.685L178.675 126.325L176.041 123.549L172.655 119.801L170.648 116.192L168.014 113.554L165.882 111.888L163.499 109.945L161.492 108.279L158.733 105.919L155.723 103.559L154.845 101.616L154.343 99.3945L153.967 97.4511L153.591 94.9524L153.967 91.8984L154.845 88.4279L156.099 84.9574L157.228 81.6258L158.231 79.1271L159.235 76.7672L160.74 73.2967L161.743 71.7697L163.248 70.2427L164.879 68.7157L167.262 66.7028L169.143 64.9676L171.024 63.163L172.655 61.7748L175.163 59.4149L178.173 56.4997L179.678 55.3892L179.302 57.3326L178.8 59.9702L178.299 62.3301L177.797 64.2735L177.672 66.3558L176.668 68.4381L175.79 71.0756L175.038 73.9908L174.912 75.6566L175.038 77.4613L175.665 79.96L176.041 81.9034L176.417 83.7081L177.045 86.3456L177.421 88.8444Z" fill="white"/>
<path d="M387.376 69.9631L391.766 68.8525L396.908 67.8808L400.545 67.4643H405.938L408.823 67.8808L411.457 68.8525L414.342 71.2124L416.85 73.7112L419.484 76.3487L420.236 78.8474V81.3462L422.494 78.8474L425.002 76.3487L426.633 74.0582L429.267 72.323L431.901 68.8525L434.534 65.1044L437.043 61.2175L439.3 54.9707L440.178 61.2175L440.555 65.1044V69.9631L439.551 74.8217L438.422 78.8474L437.043 82.8732L435.538 87.0377L432.904 91.2023L429.267 96.3385L425.002 102.169L421.491 108.277L418.731 111.47L415.596 114.801L412.46 117.717L408.823 121.048L404.308 123.825L400.545 124.796L396.406 125.629L392.393 124.796L390.261 123.825L389.132 121.881L386.498 120.076L384.491 117.717L382.61 115.495L381.356 112.441L380.729 109.11L381.356 106.056L385.62 99.6702L389.132 93.2845L391.515 89.2588L392.393 86.3436L393.773 83.9837L392.925 82.3179L391.515 79.4027L390.261 77.1816L389.132 74.8217L388.129 72.323L387.376 69.9631Z" fill="white"/>
<path d="M13.7461 6.66328L20.1426 2.49873L28.6712 0.416455L33.061 0H37.827L42.7184 0.971728L46.6064 1.94346L50.8708 3.12341L53.5046 4.02573L55.5113 5.27509L60.1519 9.99491L63.4129 14.4371L69.8094 20.6839L74.1991 25.4037L78.4634 29.9847L82.9786 34.2881L87.6192 39.0079L94.7682 49.6969L102.293 60.6636L108.69 69.9644L113.707 77.3218L118.849 84.4015L125.873 88.1496L137.662 93.147L144.56 96.201L150.706 98.6998L154.218 98.8386L154.845 101.615L155.723 103.558L158.608 105.779L165.004 111.193L168.014 113.553L170.648 116.191L172.655 119.8L176.041 123.548L176.292 123.826L178.424 126.047L178.926 126.602L183.441 131.461L187.329 133.821L190.841 134.793H197.112L199.746 134.098L201.627 132.849L203.759 130.906L205.766 127.99L208.4 122.854L208.901 121.05L209.529 126.186L210.03 129.795L210.281 133.266V136.458L211.159 140.484L211.661 143.677L211.912 146.453L212.413 152.422V156.032L212.162 159.225L211.661 163.389L211.159 166.304L213.667 167.137L215.8 167.97L218.308 169.219L220.691 171.024L224.579 173.662L228.843 176.854L233.359 180.186L236.745 182.268L242.765 186.711L248.158 191.153L253.05 195.595L258.192 200.315L264.463 205.729L269.982 211.698L275.876 217.667L278.51 221.415L280.266 223.359L265.216 234.048L263.397 235.505L261.578 236.963L259.195 238.629L257.941 239.878L256.687 241.127L254.053 243.348L251.043 244.875L250.792 243.348L249.789 241.127L248.785 239.045L248.033 236.269L246.653 234.048L245.023 231.271L243.141 229.05L241.636 226.413L240.006 224.33L238.125 221.97L236.87 220.582L235.24 218.5L233.986 217.251L233.108 216.14L232.23 215.029L231.477 214.197L230.474 212.531L232.23 212.392L231.477 211.698L227.589 208.227L223.325 205.312L217.054 201.286L210.281 197.677L203.634 193.79L196.861 189.348L194.353 184.628L192.597 179.631L191.593 176.854L189.837 172.69L188.583 169.914L187.329 167.137L185.824 164.083L185.071 162.556L182.563 159.225L187.329 177.964L183.441 191.153L179.926 182.268H172.655L167.15 169.914L155.723 156.032L163.219 154.49L154.845 145.21L155.723 150.123L152.408 149.031L146.511 146.453H141.597H135.701L129.804 138.957L117.519 137.291L112.605 135.348L117.519 124.466L109.165 119.8L105.209 111.818L102.497 110.048L100.412 108.833L98.9071 106.751L80.5956 72.8796L78.9651 69.9644L75.955 64.134L71.9415 56.7767L68.3043 52.1957L66.423 49.6969L62.4095 44.1442L61.0299 42.2007L58.396 39.0079L55.1351 34.9822L52.3758 32.2058L50.6199 30.8176L48.2369 29.1518L46.6064 28.0413L45.8539 27.486L43.7218 25.959L41.0879 24.5708L34.3152 18.7405L26.0374 13.6042L20.1426 9.30082L13.7461 6.66328Z" fill="white"/>
<path d="M461.625 50.6689L470.656 39.4246L476.676 31.3731L487.587 15.8255L488.842 14.5761L490.221 13.1879L491.726 11.9386L493.106 10.828L494.862 9.57866L496.492 8.88457L498.123 8.60693H499.628L501.008 8.88457L502.136 9.57866L502.889 10.828L503.265 12.6327V14.5761L502.889 16.2419L502.136 17.7689L501.008 19.0183L499.628 20.4065L498.123 21.517L496.242 23.1828L494.862 25.5428L493.733 27.4862L492.604 29.4297L491.726 30.9567L490.848 32.4837L490.221 33.5942L489.093 35.5377L488.215 37.0647L487.587 38.1752L487.086 39.0081L486.459 40.1187L485.832 41.2292L485.581 41.6457L485.33 42.0621L484.452 43.5891L483.323 45.5326L482.445 47.0596L481.567 48.5866L480.313 50.53L478.933 52.7511L477.052 55.6663L474.92 58.9979L474.418 59.8309L473.791 60.8026L472.913 62.1908L464.259 75.7949L457.11 87.7333L448.581 98.2835L439.927 107.723L433.656 114.109L427.762 118.135L412.335 125.631L404.559 130.212L400.545 133.127L395.152 137.153L389.508 141.595L385.996 144.371L382.861 146.87L379.098 149.924L374.834 153.533L372.325 155.893L371.824 157.559L372.702 162.556L372.952 163.389L371.322 162.418L369.441 161.723L367.936 161.168L366.431 160.474L365.302 159.641L364.675 157.975L364.173 156.587L363.17 153.811L361.288 148.813L360.285 146.315L359.407 144.094L358.278 141.317L357.149 138.68L355.77 135.626L354.892 133.682L357.4 131.878L360.912 127.297L363.922 123.826L367.309 120.217L369.942 117.44L372.827 114.386L375.712 111.471L378.973 108.695L381.356 106.057L381.23 106.613L380.979 108.001L380.729 109.111L381.356 112.443L382.61 115.497L386.498 120.078L389.132 121.883L390.261 123.826L392.393 124.798L398.598 121.883L404.308 123.826L404.559 116.824L408.823 121.05L412.711 117.44L415.721 114.664L418.982 111.194V107.723L419.728 103.722L423.873 104.114L424.626 102.726L425.128 102.032L425.629 101.338L426.131 100.643L427.26 99.1164L427.762 98.4223L428.639 97.173L429.643 95.7848L430.646 94.3966L431.148 93.7025L432.402 91.8979L433.531 90.232L434.409 88.8439L434.911 88.0109L435.538 87.0392L436.039 85.651L437.168 82.4582L437.921 80.376L438.297 79.2654L438.673 78.016L439.049 77.4608L445.321 70.7975L453.849 59.9697L461.625 50.6689Z" fill="white"/>
<path d="M362.291 292.767L361.539 289.713L360.285 287.63L358.529 285.548L356.898 283.605L354.766 281.661L352.509 279.995L349.498 277.358L347.743 276.109L346.238 274.443L346.488 272.777L346.99 271.528L347.993 269.445L349.749 270.278L351.505 271.528L353.387 272.499L355.895 273.471L358.905 274.72L361.037 275.414L363.42 276.109L365.678 276.386H368.312H369.817L371.196 276.109L372.701 275.414L374.457 274.72L375.962 273.471L377.718 271.805L379.6 270.278L383.111 272.499L386.121 274.443L388.881 276.386L391.64 278.885L394.148 281.245L396.908 284.021L399.542 286.659L402.05 289.852L404.433 293.322L406.314 296.515L407.192 299.43L407.568 303.178V305.816V309.98V311.021L407.318 312.479L406.314 312.085L405.311 312.779L404.684 313.59L403.806 314.978L403.053 316.088L402.331 316.954L401.674 318.032L401.047 319.281L400.294 320.253L399.542 321.086L398.789 321.641L398.287 322.474L397.284 322.752L396.531 322.474V321.641L396.782 320.808L397.284 319.698L397.786 318.448L398.036 317.476L398.287 316.505L398.538 315.394L398.789 314.422V313.451L398.538 312.618L398.036 312.085L397.159 311.924L396.281 312.085L395.026 312.779L394.148 313.59L393.396 314.978L392.894 316.088L392.267 317.338L391.765 318.309L391.264 318.865L390.637 319.698L389.633 320.808L389.006 321.78V323.029L388.254 322.89L387.752 322.474L386.874 320.53L386.247 318.309L385.871 316.954L385.494 315.672L385.118 314.006L384.742 312.085L384.115 309.703L383.488 307.898L382.986 306.51L382.359 305.122L380.979 303.456L380.101 303.178H379.349L378.596 303.595L378.095 304.15L377.593 303.733L377.217 302.623L376.966 301.651L376.589 300.263L376.088 298.597H375.084L373.83 298.875L372.827 299.43L372.074 300.263L370.569 301.651L369.44 303.178L368.312 304.705L367.559 306.232L366.618 307.759L366.054 308.87H365.678L365.051 307.759L364.424 306.51L363.922 304.705L363.42 303.178L363.044 300.957L362.668 296.654L362.291 292.767Z" fill="white"/>
<path d="M370.694 298.319L371.196 297.903L371.948 297.07L372.952 296.515L374.206 296.237H375.209L377.467 294.787V298.319L377.959 299.152L378.45 300.263L377.959 301.512L376.589 304.15L376.087 305.816L375.711 307.204L375.209 308.592L374.708 309.564L374.206 310.258L373.454 311.091L372.701 311.785L371.823 312.479L370.318 313.451L368.938 314.145L367.684 314.839L367.057 313.728L366.681 312.757L366.555 312.479L366.054 311.091L365.803 310.258L365.427 309.147L365.176 308.314L365.05 307.62V306.926L365.176 306.51L365.803 305.26L366.681 303.872L367.433 302.345L368.06 301.512L369.691 299.291L369.816 299.152L370.694 298.319Z" fill="white"/>
<path d="M392.267 313.174L393.02 311.786L393.898 310.953L395.152 310.259L396.03 310.12L396.908 310.259L397.409 310.814L397.66 311.647V312.619L397.409 313.591L397.033 315.256L396.406 317.339L395.528 319.421L395.403 319.837L395.152 320.67L394.399 322.197L393.521 323.724L392.894 324.557L392.267 325.112L391.389 325.807L390.888 326.223L390.511 326.501H390.135L389.759 326.362L389.382 325.945L389.132 325.668L388.881 325.112L388.505 324.002L388.254 323.03L388.003 322.058L387.877 321.226V319.976L388.505 319.004L388.881 318.588L389.508 317.894L390.135 317.061L390.637 316.506L391.64 314.562L392.267 313.174Z" fill="white"/>
<path d="M401.423 314.702L403.053 312.203L403.681 311.37L404.684 310.676L405.687 311.092L405.938 309.565L405.813 311.925L405.687 313.175L405.562 314.008L404.684 310.676L407.443 312.257L404.809 317.478L404.433 318.727L403.931 320.254L403.555 321.087L402.803 322.198L401.799 323.17L400.921 324.003L400.733 324.141L400.545 324.28L400.294 324.419L399.918 324.558H399.542L399.165 324.419L398.789 324.003L398.538 323.725L398.162 323.239L397.786 322.753L397.284 322.059L396.908 321.226L396.657 321.087L397.159 320.254L397.911 319.699L398.664 318.866L399.416 317.895L399.667 317.339L400.294 316.229L400.67 315.535L401.423 314.702Z" fill="white"/>
<path d="M174.536 312.204L176.668 310.261L178.8 309.011L181.559 307.484L184.068 306.235L185.573 303.181L186.451 299.016L187.58 294.296L188.332 289.299L189.085 284.996L190.088 281.525L192.095 279.582L194.729 277.638L198.802 273.751L202.039 271.314L205.97 267.492L209.901 266.394L216.781 261.674L223.325 256.538L228.592 259.175L233.484 256.538L232.997 250.024L245.399 248.386L253.049 253.484V250.013L254.304 246.265V243.073L256.938 240.851L258.066 239.741L259.195 238.63L261.578 236.965L263.585 235.284L267.395 236.376H270.859H275.257L278.697 234.192L283.611 234.738L284.102 239.106L281.645 243.073L277.223 248.386L275.748 250.569L273.869 252.651V255.289L273.493 257.51V261.674L272.615 264.589H271.486L270.859 262.368L270.358 259.175L269.103 256.538L268.1 255.289H265.842H263.585L260.826 256.121L257.753 257.093L255.809 259.175H253.802H251.168H249.036H245.9H243.141L243.894 260.702L245.399 261.674H248.033L250.541 262.368L253.636 261.488H255.809L256.938 263.479L258.066 265.283L260.198 266.394L262.205 268.893L264.463 269.726L266.595 271.669L268.476 275.834L269.103 281.664V290.41L268.1 299.155L265.842 297.489L262.205 295.546L259.446 293.602L254.304 290.41L251.043 289.16L248.283 288.188L246.151 287.633H244.019L242.263 289.16L241.009 290.965L239.253 291.937L237.121 290.965L234.989 290.41H230.975H227.714L227.1 293.696L222.678 294.788L214.42 294.296L213.667 296.656L211.535 300.96L209.528 305.263L207.898 309.011L210.155 310.261L212.915 312.759L215.549 315.397L218.057 317.618L219.186 320.672L220.315 326.086L221.82 330.528L222.572 334.97V338.163H220.816L219.186 338.857L218.057 339.69L216.803 340.523L215.549 341.217L214.545 341.911L213.542 342.605L212.915 343.716L212.037 342.883L211.284 341.911L210.532 340.939L209.905 339.412L209.278 338.163L209.027 340.523L209.278 342.189L210.155 344.132L211.284 346.631L212.037 348.574L212.915 350.796L213.416 353.017V354.96L213.166 356.071L212.288 355.377L209.905 354.96L207.898 354.682H206.267L204.888 354.96L203.006 356.071L202.128 357.875L200.373 355.654L199.118 353.711L197.739 351.351L196.234 349.269L194.979 347.325L193.725 345.798L193.349 353.017V355.377L192.596 358.431L191.468 360.235L189.712 361.068L187.705 361.901L185.949 362.456H184.068H182.061L180.681 361.901L179.176 361.068L178.298 359.68L177.17 357.459L176.417 354.96L175.665 351.767L175.163 348.436L174.536 344.618L173.909 340.801L173.532 337.052V333.998V328.307V323.587V318.312V314.703L174.536 312.204Z" fill="white"/>
<path d="M311.747 332.887L316.262 328.444L318.018 326.779L320.401 323.725L321.78 322.059L322.909 320.671L323.913 319.144L324.54 318.172L325.418 316.784L326.17 315.812L326.797 314.979L327.55 314.007L328.177 312.758L328.679 311.786L329.18 310.953L329.933 309.704L330.685 308.455L331.438 307.205L331.94 306.372L332.19 305.956L335.2 292.629L338.838 296.794L341.597 300.126L343.478 302.902L345.36 306.095L346.99 309.565L348.244 312.48L349.373 315.118L350.502 317.894L351.631 320.948L352.509 323.863L353.01 326.64L353.387 329.277L353.763 332.609V335.802L353.01 338.578L352.509 340.244L351.631 342.882L350.126 345.242L349.373 347.324L347.743 349.684L345.861 352.321L342.851 355.098L340.468 357.319L338.085 358.846L335.451 360.512L333.194 361.9L330.56 363.149L327.675 363.982H324.916L320.526 363.149L319.147 362.455L316.136 360.928L313.503 359.54L312.374 358.846L309.364 356.763L306.981 354.681L305.977 353.848L305.225 353.015L304.974 352.738L305.977 350.655L306.479 349.684V348.573L305.476 347.046L303.971 345.38L302.089 343.437L301.086 341.771L302.591 340.383L304.221 338.995L306.479 337.051L309.238 335.108L311.747 332.887Z" fill="white"/>
<path d="M296.571 231.828L300.083 232.661L302.591 234.326L305.476 235.437L308.181 235.83L311.621 237.38L315.06 238.014L318.009 240.743L320.466 242.927L324.163 245.848L327.299 248.486L330.184 250.429L333.319 252.373L335.953 253.9L338.838 255.566L342.6 256.954L345.736 258.62L348.997 261.118L351.505 262.923L353.136 264.45L354.641 266.255L357.024 267.226L359.532 267.92L362.793 268.476L366.807 268.892H370.569L373.83 268.476L378.345 266.671L380.854 265.283L382.861 263.756L384.491 262.09L386.247 259.452L380.478 255.566L380.854 254.316L387.877 258.62L387.752 259.452L387.25 260.702L386.247 262.923L384.742 265.005L383.362 266.671L381.606 268.476L379.6 270.28L377.718 271.807L376.485 275.681L372.554 276.388L370.097 277.319H366.807L365.678 276.388L362.234 276.773L358.905 274.722L356.898 273.89L355.895 273.473L354.139 272.779L353.387 272.501L351.505 271.53L349.749 270.28L347.993 269.447L347.366 269.309L346.614 269.031L345.987 268.753L345.36 268.476L344.733 268.198L344.231 267.92L343.478 267.504L342.6 266.949L340.97 265.977L339.465 265.283L338.587 264.866L335.828 264.033L332.943 262.368L329.933 260.979L328.428 260.285L325.292 259.314L323.035 258.62L320.903 258.064L320.401 257.925L317.265 257.093L316.764 256.954L314.13 256.121L311.872 255.427L308.862 254.733L306.855 253.622L305.476 252.928L304.347 252.373L303.218 251.817L301.588 250.985L299.205 249.874L296.947 249.041L297.198 247.653L297.449 245.987L297.861 245.111V243.473L299.205 241.267V239.324L298.452 237.38L297.198 235.437L296.571 231.828Z" fill="white"/>
<path d="M322.031 159.085V155.198V150.895L318.52 149.09L319.272 148.674L320.276 148.118L321.404 147.424L322.157 147.008L323.286 146.453L324.791 145.897L326.421 145.481L328.93 145.064L332.316 144.787L333.947 144.648L338.085 145.064L340.97 145.758L342.601 146.175L347.617 148.396L349.122 149.09L349.75 149.368L351.004 150.062L352.383 150.895L354.516 152.144L356.397 153.255L356.648 153.393L357.024 153.671L356.146 155.337L354.39 154.365L352.634 153.949L349.875 153.532H348.997L348.495 153.671L348.245 154.088V154.504L348.37 155.059V155.198L348.872 156.17L349.75 156.725L350.251 157.142L351.129 157.697L351.756 157.974L352.634 158.252L352.007 160.473L351.38 160.612L350.502 160.473H349.373L347.116 160.751L346.238 161.029L345.109 161.723L344.482 162.417L343.729 163.527L342.851 162.926L342.35 159.779L339.967 158.53L338.587 157.558L337.458 156.725L335.702 155.892L334.448 155.753L332.943 156.031L331.438 157.142L330.56 157.697L329.808 158.391L329.306 159.224L329.18 160.057L329.306 160.612L329.557 161.306L330.184 161.861L331.814 162.139L333.445 162.278H335.953L336.831 162.139L337.835 161.723L338.587 161.306L339.089 160.751L339.34 160.057V159.363L338.587 157.558L339.967 158.53L342.35 159.779L342.851 162.926L343.729 163.527L343.604 165.193L343.729 166.72L343.98 167.969L344.356 169.08L345.234 170.191L346.238 170.885L347.492 171.023H350.502L351.882 170.885L353.387 170.607L354.892 170.329L355.895 170.052L356.773 169.635L357.4 169.08L358.027 168.386L358.278 167.692L358.529 166.304V165.471L358.278 164.777L357.651 163.805L356.899 163.111L355.895 162.417L353.763 161.306L351.38 160.612L352.007 160.473L352.634 158.252L353.512 158.53L355.268 158.669H356.397L356.899 158.53L357.149 158.391L357.4 158.113L357.651 157.697L357.526 157.142L357.275 156.586L356.773 155.892L356.146 155.337L356.585 154.504L357.024 153.671L357.902 154.365L359.658 155.753L360.034 156.031L361.79 157.419L365.302 159.64L366.054 160.196L366.431 160.473L367.058 160.751L367.936 161.167L369.817 161.861L371.322 162.417L372.952 163.388L374.332 163.805L376.088 164.36L378.22 165.887L379.976 168.525L380.603 169.635L381.356 171.023L381.607 171.579L382.61 173.8V175.188V177.826V180.185V181.296L382.484 183.934L382.234 185.877L381.983 189.903L381.857 191.43L381.481 192.54L380.603 191.152L379.349 191.43L377.718 194.206L375.837 197.815L377.718 199.898L379.098 200.869L380.979 201.286L382.359 200.869L382.61 199.204L383.362 200.592L383.864 201.702L384.366 203.09L384.993 205.034L382.735 206.283L379.098 208.504L377.718 210.309L376.966 211.42L376.213 212.53L374.959 214.335L373.705 216.417L370.193 219.887L369.441 220.72L368.061 221.692V224.885L369.441 226.828L371.071 228.494L374.708 228.911L370.946 236.546L370.82 236.962V240.016L371.071 241.127L371.573 241.543L371.824 241.821L372.451 242.515L372.827 242.931L373.705 243.625L374.458 244.042H375.085L375.461 242.376V240.571L375.335 240.016L375.085 239.322L374.834 238.767L374.458 238.211L373.705 237.379L373.329 237.101L372.827 236.823L372.451 236.684L371.949 236.546H370.946L371.631 235.157L374.708 228.911L377.217 229.188L381.356 230.438H382.359L384.617 233.769L384.366 234.463L384.115 235.019L383.864 235.713L383.739 236.268V236.823L383.613 237.379V238.767V239.6L383.739 240.433L384.366 240.988H384.867L385.369 240.294L385.495 239.044L385.745 236.962V236.129L385.62 234.741V233.908L385.495 232.52L384.867 233.353L384.617 233.769L382.359 230.438L383.362 224.885V220.443V219.055L383.237 218.499L382.861 216.833L382.359 215.306L381.983 214.057L381.607 212.808L381.105 211.558L380.979 211.281L380.603 210.309L380.352 210.031L379.098 208.504L382.735 206.283L384.993 205.034L385.62 206.977L386.122 208.921L386.749 211.142L387.501 213.224L388.379 216.556L388.881 219.61L389.383 223.636L389.759 225.995L390.01 228.355L390.261 230.438L390.762 235.99L391.013 238.211L391.139 240.433V243.487L390.762 245.708L389.884 246.818H388.379L387.125 246.402L385.62 247.096L384.366 248.762L383.488 250.983L382.108 253.204L381.105 254.314L380.478 255.703H379.474L378.095 254.314L376.464 253.759L374.959 252.649L373.329 251.538L371.824 250.566L370.444 248.762L369.315 247.79L368.061 248.068L365.929 249.525L364.675 250.983L362.919 252.649L361.037 253.759L359.156 254.314H356.522L356.397 253.343L355.644 251.954L354.641 252.371L353.826 251.677L353.011 250.844L352.007 250.011L351.255 248.9L349.75 247.651L347.492 246.541L346.112 245.846L344.356 245.014L342.726 244.597L341.221 243.903L339.841 243.487L338.211 242.792L336.33 241.96L334.95 241.265L333.445 240.433L331.94 239.461L330.184 238.767L328.679 237.934L327.299 237.101H326.045L324.791 237.517V239.183L325.167 240.433L325.669 241.404L324.289 240.988H323.16L321.53 241.543L320.777 242.376L320.526 243.07L317.767 241.265L313.252 239.322L310.493 237.934L308.361 236.823L307.232 236.268L302.591 234.325L300.083 232.659L296.571 231.826L296.069 230.438L295.944 228.911V227.661L295.818 226.412V224.885V223.636V222.941L296.069 222.109L295.568 218.36V216.556L295.693 213.085L296.822 210.725L304.723 222.386L314.13 214.057L316.889 214.474H318.896L322.784 214.057L333.194 216.556L341.973 206.283L336.33 194.761L318.018 186.432L314.13 183.934L313.252 184.905L311.747 186.432L310.744 187.959L309.615 190.319L308.737 192.54L308.235 194.761V197.121L308.361 199.204L308.486 200.592L309.364 203.507L310.116 204.756L310.744 205.867L311.998 207.116L313.754 209.06L314.757 209.893L316.137 210.725L318.269 211.836L319.523 212.391L322.533 213.085H325.669L332.316 211.697L334.574 210.17L336.706 207.671L338.838 204.201L336.706 200.869L329.682 194.345L325.167 191.291L322.533 189.764L319.523 188.098L317.767 187.126L316.513 186.432L315.384 185.877L313.252 184.905L313.413 184.628L314.13 183.934L315.635 184.905L316.914 185.723L318.018 186.432L320.025 187.345L322.784 188.6L325.952 190.042L328.93 191.396L336.33 194.761L340.749 203.785L341.973 206.283L338.462 210.392L336.279 212.947L333.194 216.556L322.799 214.06L318.896 214.474H316.889L314.13 214.057L304.723 222.386L296.822 210.725L297.198 205.034L297.7 200.731V196.705L298.844 193.795L300.81 190.319L304.096 189.625L306.103 186.988L308.11 181.018L309.489 176.993L309.991 174.355L310.744 172.828L312.374 169.496L322.031 159.085Z" fill="white"/>
<path d="M280.015 243.625L283.151 239.322L282.524 236.962H280.391L276.503 237.656L272.992 238.627H263.585L261.578 236.962L265.215 234.046L268.727 231.548L280.266 223.357L284.656 225.023L291.554 225.44L294.062 226.55L295.944 227.244V228.771L296.069 230.437L296.571 231.825L297.198 235.435L298.452 237.378L299.205 239.322V241.265L298.954 242.653L298.452 244.735L297.449 245.985L297.198 247.651L296.571 250.705L295.693 252.787L294.689 255.286L292.934 259.034L289.422 267.085L286.161 271.805L281.896 276.802L277.883 279.856L275.124 282.633L272.866 285.409L271.361 289.851L270.483 292.489L269.605 294.988L268.1 299.013L268.727 293.738L269.104 290.407V287.353V281.661L268.476 275.831L266.595 271.666L264.463 269.723L262.205 268.89L260.199 266.391L258.066 265.281L256.938 263.476L254.806 262.782H252.548L250.541 262.365L248.033 261.671H245.399L243.894 260.7L243.141 259.173H249.287H255.809L257.69 257.09L260.826 256.119L263.585 255.286H268.1L269.104 256.535L270.358 259.173L271.487 264.586H272.615L273.493 261.671V257.507L273.87 255.286V252.648L274.246 250.011L277.507 247.095L280.015 243.625Z" fill="white"/>
<path d="M181.309 236.268L182.689 235.435L188.332 232.103L193.726 228.91L198.366 226.134L200.812 227.73L203.383 228.494L203.258 229.188L202.505 231.131V232.381L203.132 232.797L203.508 233.075L204.637 234.046L206.644 234.463L208.902 234.185L211.159 233.63L212.539 232.797L214.796 232.103L216.301 232.381L217.806 233.214L219.437 233.769V236.129L220.566 236.962L222.071 237.1L223.701 236.962L225.457 236.406L226.586 235.851L227.966 234.602L229.22 233.214L232.355 233.908L235.115 234.185L237.498 235.157L241.762 234.463L245.775 234.185L246.904 234.463L248.033 236.268L248.785 239.044L250.165 241.959L250.792 243.347L251.043 244.874L254.053 243.347L254.304 243.07V246.262L253.05 250.011V253.481H246.653L239.253 254.453L233.484 256.535L228.593 259.173L225.959 260.422L223.325 261.671L218.81 264.17L216.301 265.558L213.918 266.946L209.529 269.445L205.891 271.666L203.132 273.193L202.129 273.748L198.617 275.553L197.112 276.386L195.983 275.831L192.221 273.61L185.573 267.224L179.678 259.311L168.892 248.761L165.882 245.43L171.902 241.82L181.309 236.268Z" fill="white"/>
<path d="M221.318 362.732L220.44 360.51L219.437 358.706L218.559 356.485L217.932 353.986L219.437 352.043L220.816 350.238L222.322 347.739L222.823 346.212L223.074 344.685V341.076L222.823 339.827L222.572 338.161V334.968L221.82 330.526L220.816 327.611L220.189 325.667L219.186 320.67L218.057 317.616L214.169 314.006L213.918 311.091L213.667 305.955L214.42 294.294L219.186 292.489L227.715 290.407H234.989L237.121 290.962L239.253 291.934L241.009 290.962L242.264 289.158L244.019 287.631H246.152L248.284 288.186L251.043 289.158L254.304 290.407L257.439 292.351L259.446 293.6L262.205 295.543L265.843 297.487L268.1 299.153L267.348 301.513L266.344 305.122L265.466 308.176L264.588 311.369L262.582 315.811L261.829 317.477L261.578 318.032L261.202 318.726L259.822 321.225L259.07 322.613L258.067 324.557L256.562 327.472L258.067 327.055L260.45 326.639H263.711L268.351 327.055L269.856 328.166H274.12L276.127 329.138L277.131 331.636V335.246L277.507 337.328V342.881L277.883 345.102L277.82 348.433L278.134 353.986L280.141 377.446L281.144 389.246L282.9 389.94L285.408 392.3L288.293 394.66L290.676 397.297L292.056 400.351L292.557 401.045L293.184 402.203L293.435 402.989V403.683L293.184 404.655L292.808 402.711L291.93 401.601L288.293 400.351L286.913 400.212H285.032L284.029 400.49L282.649 401.323L281.897 402.295L281.395 403.683L280.768 406.737L281.144 411.734L279.012 410.763L276.503 409.791L272.615 408.264L270.985 408.403L269.605 408.819L268.602 409.652L266.846 411.873L265.843 412.845L263.585 417.287L260.199 413.955L258.694 412.845L256.185 412.012L254.179 411.596H251.294L249.036 412.012L247.155 413.261L245.023 415.621L244.27 417.009V420.341V425.894V428.254L244.396 429.364L244.647 430.058L245.023 430.614L238.877 426.588L233.359 421.452L229.471 417.148L225.081 411.734L222.698 407.986L221.694 406.043L221.444 403.266L221.193 400.768L221.444 397.714L221.694 395.215L221.945 391.606V387.58L221.694 384.11V382.027V377.724V373.837V371.061L221.945 368.145L222.322 365.508L221.318 362.732Z" fill="white"/>
<path d="M222.572 220.165L224.203 222.386L225.206 223.913L226.46 226.551L227.464 229.327L228.342 231.27L229.22 233.214L227.965 234.602L226.586 235.851L225.457 236.407L223.701 236.962L222.071 237.101L220.566 236.962L219.437 236.129V234.324L219.688 231.826L220.315 229.049L221.444 224.191L222.572 220.165Z" fill="white"/>
<path d="M321.53 196.567L322.157 194.346L323.285 192.68L324.665 191.014L325.418 191.431L328.051 193.235L326.672 193.652L326.17 193.929L325.794 194.346L325.292 195.179L325.041 195.873L324.916 196.845L324.79 198.233V198.788L324.916 199.621L325.041 200.315L325.543 201.426L326.17 202.258L326.672 202.814L327.675 203.647L328.553 204.202L329.556 204.757L330.309 205.035H331.312L332.692 204.48L333.695 203.785L334.197 203.23L334.699 202.258L335.075 200.593V199.343L335.702 199.899L336.706 200.87L337.458 201.981L337.834 202.675L337.082 204.202L336.455 205.312L335.451 206.701L334.95 207.395L334.197 208.089L333.695 208.505L332.817 208.922L332.316 209.061L331.438 209.199H329.431L328.553 209.061L328.051 208.922L326.421 207.95L324.916 206.701L324.038 206.007L323.035 204.757L322.407 203.785L322.031 202.814L321.78 201.981L321.53 200.593V199.343V196.567Z" fill="white"/>
<path d="M212.037 342.326L212.664 341.216L214.671 339.827L215.172 339.55L217.179 338.3L218.308 337.468L219.938 336.773H221.694L222.678 336.821L223.169 338.439L223.66 339.551L224.152 341.735V343.918V346.102L222.678 350.469L218.255 354.836L217.054 352.599L216.928 350.794L216.427 348.851L215.674 347.462L214.545 346.074L213.291 344.408L212.037 342.326Z" fill="white"/>
<path d="M244.145 416.871L244.897 415.483L246.026 414.233L247.029 413.123L248.911 411.873L251.168 411.457H254.053L256.06 411.873L258.568 412.706L260.073 413.817L262.331 416.038L263.46 417.148L263.961 416.038L264.839 414.233L265.717 412.706L266.721 411.734L267.599 410.624L268.476 409.513L269.48 408.68L270.859 408.264L272.49 408.125L274.748 408.958L276.754 409.791L278.886 410.624L281.019 411.596L280.768 408.958L280.642 406.598L281.269 403.544L281.771 402.156L282.524 401.184L283.903 400.351L284.907 400.074H285.785H286.788L288.168 400.213L289.924 400.768L291.805 401.462L292.683 402.572L293.435 406.598L295.191 414.927L295.944 419.369L296.32 422.285L292.181 421.729L289.924 421.174L287.29 420.341L285.408 419.369L283.151 418.675L281.269 418.259L280.642 422.007L280.078 424.228L279.388 426.866L278.385 429.503L277.632 430.753L276.127 430.475L275.124 430.058L273.242 429.226L271.236 428.393L268.476 426.866L266.846 425.894L265.216 424.922L263.961 424.228L262.331 426.866L260.7 430.058L259.572 432.002L258.192 434.501L255.934 433.945L253.551 432.696L251.168 431.169L249.663 429.781L248.66 428.948L247.406 427.699L246.026 426.172L245.023 424.506L244.521 422.701L244.145 420.202V416.871Z" fill="white"/>
<path d="M244.145 428.115V420.202L244.521 422.701L245.023 424.506L246.026 426.171L247.406 427.698L248.66 428.948L249.663 429.781L250.416 430.475L251.168 431.169L252.673 432.141L253.802 432.835L255.934 433.945L258.192 434.5L257.816 436.722L255.684 436.583L254.931 436.305L253.238 435.403L250.918 434.223L248.785 433.112L247.029 432.141L246.214 431.585L245.524 431.03L244.897 430.475L244.521 429.919L244.27 429.225L244.145 428.115Z" fill="white"/>
<path d="M265.216 424.922L266.846 425.894L268.477 426.866L270.985 428.254L276.127 430.475L277.632 430.752V433.529L273.117 432.418L270.483 431.447L267.724 430.336L266.094 429.364L263.962 427.698L261.579 431.447L257.816 436.722L258.192 434.501L262.336 426.86L262.331 426.866L263.962 424.228L265.216 424.922Z" fill="white"/>
<path d="M281.27 418.26L283.151 418.676L285.408 419.37L287.29 420.342L289.924 421.175L292.181 421.73L296.32 422.285L293.059 424.507L281.27 423.951L279.764 428.532L277.632 433.53V430.753L278.385 429.504L279.263 427.144L280.266 423.535L280.642 422.008L281.27 418.26Z" fill="white"/>
<path d="M201.878 354.541L203.759 353.43L205.139 353.153H206.769L211.159 353.847L212.037 354.541L213.341 355.928L212.359 358.112L211.41 358.983L210.407 361.343L209.278 363.148L207.522 365.091L205.641 366.202V363.842L205.139 362.176L203.258 359.4L202.63 358.428L201.878 357.456L201 356.346L201.251 355.79L201.627 355.096L201.878 354.541Z" fill="white"/>
<path d="M178.424 359.262L180.055 360.234L181.434 360.651H185.197L186.326 360.234L190.841 358.429L191.844 356.764L193.349 362.039L194.102 366.481L194.478 368.008L191.844 368.286L188.458 367.591L185.197 366.481L182.187 364.399L178.424 359.262Z" fill="white"/>
<path d="M205.766 221.554L207.898 219.61L209.152 221.137L209.905 222.387L210.657 223.636L211.661 225.857L211.911 227.384L212.539 229.605L213.291 231.271L213.793 232.937L211.535 233.631L210.156 234.464L207.898 235.019L205.64 235.297L203.634 234.88L202.505 233.909L201.501 233.215V231.965L202.254 230.022L202.881 226.829L204.762 222.664L205.766 221.554Z" fill="white"/>
<path d="M372.446 162.555L371.571 157.578L372.071 155.919L374.572 153.568L378.199 150.527L383.327 146.379L389.58 141.401L396.709 135.871L403.512 129.924L412.357 125.557L419.728 121.736L426.116 117.914L432.602 114.856L438.731 108.634L447.61 98.9558L455.864 88.7246L463.118 76.696L480.377 49.5971L495.135 24.019L496.385 33.8355L494.384 37.845L485.255 52.6388L474.374 67.8474L468.121 80.7055L465.244 89.9689L463.118 96.6054L458.741 108.634L453.113 124.672L445.109 132.415L436.479 138.083L429.601 141.401L425.474 142.646V145.273L421.972 152.462L418.345 159.928L413.843 167.118L406.339 177.902L401.962 183.847L397.584 189.378L393.832 193.249L386.454 185.783L382.326 180.114V173.754L381.451 171.819L380.325 169.606L379.45 168.155L377.949 165.873L375.823 164.353L372.696 163.385L372.446 162.555Z" fill="white"/>
</svg>
