<svg width="440" height="450" viewBox="0 0 440 450" fill="none" xmlns="http://www.w3.org/2000/svg">
<path d="M122.826 197.043L132.613 190.687L137.238 187.994L141.54 185.731L147.133 183.146L151.973 181.099L152.188 195.212L151.973 201.46L147.025 208.14L143.153 212.665L134.011 212.018L128.634 211.803H121.858L113.576 212.018L107.446 212.126L104.004 212.234L107.338 209.002L110.242 206.632L112.931 204.477L122.826 197.043Z" fill="#F8F3F8"/>
<path d="M176.28 219.99L177.785 217.405L178.646 216.22L180.044 214.173L181.227 212.88L182.195 211.91L183.163 211.695L189.186 211.587L193.918 212.018L194.133 212.557V215.573V220.098L193.918 221.068L191.337 223.222L188.11 225.377L183.163 228.609L179.936 230.764L178.431 231.841L176.28 232.918L174.129 233.134H170.364L169.934 232.811L169.611 231.626L170.902 229.255L171.87 227.532L172.945 225.593L174.451 223.115L176.28 219.99Z" fill="#F7F1F6"/>
<path d="M173.591 244.338V243.584L176.495 241.106L180.259 237.982L183.271 235.288L186.497 232.38L190.477 229.255L191.983 228.07L193.704 226.993L195.424 225.916L196.823 225.377H199.081L200.91 225.7L201.985 226.347L203.491 227.209L204.566 228.501L204.997 231.626L204.781 236.474L204.029 238.197L203.491 239.059L202.308 240.352L199.404 241.322L195.639 241.86L191.983 242.507L188.756 242.938L184.346 243.584L180.582 244.015L176.71 244.554L174.129 244.877L173.591 244.338Z" fill="#F7F1F6"/>
<path d="M202.738 249.509L203.598 249.078L204.136 248.863L204.996 248.647L205.857 248.54H207.04H208.761L209.514 248.647L210.051 248.755L210.804 249.186L211.234 249.725L211.449 250.156H201.447L202.738 249.509Z" fill="#F7F1F6"/>
<path d="M74.1041 236.043L74.8569 235.396L75.9325 234.642L77.8684 233.78H79.0515L79.4817 233.996L79.7506 234.211L80.5572 235.504L81.2026 236.905L81.6328 237.874L82.063 239.059L82.9234 241.322L83.1385 242.399L83.2461 244.338L83.3536 246.17V247.139L83.2461 248.216L83.1385 252.095L82.8159 252.741L82.4932 253.172L81.6328 252.526L80.6648 251.664L79.1591 250.479L77.5458 249.078L75.9325 247.786L74.3192 246.277L73.0285 244.661L72.0605 243.153V241.86L72.2757 240.567L72.7059 238.736L73.3512 237.228L74.1041 236.043Z" fill="#F8F3F9"/>
<path d="M55.8203 270.733L56.143 269.978L56.6807 270.086L57.5412 270.409L58.1865 270.733L59.0469 271.271L60.0149 271.918L60.8753 272.456L61.5206 272.78L62.1659 273.21L62.8113 273.534L63.2415 273.857L63.349 273.965L63.6717 274.288L57.3261 277.52L57.111 277.089L56.8958 276.442L56.7883 275.581L56.5732 274.611L56.2505 273.21L55.8203 270.733Z" fill="#F7F3F4"/>
<path d="M58.2936 254.465L58.6162 254.249L59.154 253.926L60.6598 253.172L62.5957 252.633L63.9939 252.418H64.9619L66.0374 252.633L66.6827 252.849L67.2205 253.28L67.5432 253.711L67.8658 254.249L68.6187 255.758L69.3716 257.05L69.9093 257.697L70.4471 258.882L71.2 259.959L72.0604 261.252L73.0284 262.437L73.9963 263.622L74.8568 264.484L75.9323 265.454L76.9003 266.316L77.6532 267.07L78.406 267.824L78.8362 268.255L79.0513 268.47L79.374 268.686L79.4816 268.901L77.6532 269.44L75.1794 270.194L72.9208 270.625H72.3831L71.7377 270.517L71.2 270.409L69.3716 269.547L67.8658 268.901L66.0374 268.255L64.4241 267.285L63.241 266.316L61.8428 265.454L60.3371 264.161L59.3691 263.191L57.8634 261.468L57.3256 260.175L56.7878 258.451V257.266V256.835L56.8954 256.404L57.0029 255.973L57.1105 255.758L57.3256 255.434L57.7558 254.95L58.2936 254.465Z" fill="#F7F3F4"/>
<path d="M132.828 159.983L133.904 158.906L134.549 158.26L135.517 157.182L136.7 156.213L137.776 155.674L138.959 155.243L140.142 155.028L142.078 154.704L142.508 154.812V155.566L142.185 156.428L141.648 157.721L140.787 159.768L140.034 161.492L139.066 163.646L138.206 165.37L136.915 167.632L135.625 169.356L134.011 171.08L131.753 172.265L129.171 172.373L125.084 172.48H122.503L121.858 172.373L121.212 172.265L121.32 171.834L121.643 170.972L122.288 170.326L122.933 169.679L123.579 169.033L124.869 167.632L125.407 167.094L126.052 166.447L127.02 165.585L128.203 164.508L128.741 163.969L129.279 163.431L130.462 162.246L131.753 160.953L132.828 159.983Z" fill="#57B070"/>
<path d="M214.031 80.4764L214.784 79.5068L216.827 77.1367L217.903 76.0594L218.871 75.1975L220.269 73.9047L222.42 72.0733L223.603 71.3192L224.786 70.6728L225.324 70.3496L225.969 69.9186L226.83 69.38L227.152 69.1645L227.905 68.7336L228.336 68.5181L228.766 68.3026L229.304 68.0872L230.056 67.8717L229.196 69.5954L228.873 70.0264L228.228 71.2114L227.368 72.7197L226.507 74.9821L225.647 77.029L225.001 78.8605L224.356 81.5538L224.033 82.9543L223.818 84.4626L223.603 86.0786L223.388 87.3713L223.065 89.2028L221.345 89.7415L218.763 90.2801L216.612 90.6033L213.171 91.142L210.052 91.5729L207.578 91.6807L207.04 91.5729L207.47 90.4956L207.9 89.526L208.438 88.4487L208.976 87.4791L209.621 86.5095L210.267 85.5399L210.697 84.8935L212.095 82.8466L212.955 81.6615L214.031 80.4764Z" fill="#F51C5C"/>
<path d="M243.178 77.029L246.619 74.9821L247.91 74.3357L248.985 73.797L250.814 72.9351L253.61 71.8578L255.277 71.3191L256.622 70.996L258.02 70.6728L260.063 70.3496L261.031 70.2418L258.343 74.2279L257.375 76.2749L256.944 77.4599L256.622 78.9682L256.299 80.7996L255.976 82.9543L255.654 85.7553L255.439 89.4183H250.384L239.951 89.2028L234.466 88.8796L230.594 88.6641L229.948 88.4487V87.4791L230.164 87.0481L231.024 86.294L231.992 85.5399L233.283 84.5703L234.358 83.7084L235.649 82.6311L237.047 81.446L238.338 80.4764L239.306 79.7223L240.166 79.0759L241.349 78.214L243.178 77.029Z" fill="#F51C5C"/>
<path d="M270.281 82.0924L272.54 81.446L273.615 81.1228L274.798 80.7996L276.089 80.4764L277.164 80.261L280.499 79.6146L283.187 79.1836L285.123 78.9682L288.458 78.7527L290.609 78.5372L292.545 78.3218H293.943L292.76 79.1836L292.007 79.83L291.469 80.1532L290.931 80.5842L287.597 83.1698L285.876 84.7857L284.801 85.9708L283.833 87.2636L282.865 89.0951L282.112 90.7111L281.359 92.5425L280.821 93.7276H278.993L275.336 93.0812L274.153 92.8657L272.217 92.6502L268.238 91.7884L267.162 91.4652L265.656 91.0343L263.183 90.4956L262.107 90.1724L261.569 88.4487L261.247 87.2636L261.031 86.294L261.247 85.5399L261.784 84.7857L262.752 84.4625L264.151 84.0316L264.688 83.8162L265.441 83.6007L266.839 83.1698L268.668 82.6311L270.281 82.0924Z" fill="#F51C5C"/>
<path d="M194.349 163.754L195.317 163.215L196.607 162.461L198.221 161.384L200.049 160.199L201.447 159.337L204.136 157.829L204.566 157.613L204.674 159.229V160.522L205.104 163.646L205.319 164.508L205.749 165.585L206.287 167.094L206.61 168.063L207.04 168.71L207.255 169.033L207.47 169.356L208.008 170.218L208.438 171.511L208.008 172.588L205.319 171.726L203.598 171.187L200.479 170.326L196.607 169.033L194.241 168.063L191.552 166.77L191.337 166.124L191.767 165.585L193.166 164.508L194.349 163.754Z" fill="#F51C5C"/>
<path d="M261.247 97.175L261.139 96.7441V96.3131L261.247 95.8822L261.139 95.559L260.924 95.3435L259.848 95.0203L259.311 94.8049L259.095 94.5894L259.848 94.6971L260.924 94.8049L261.999 95.0203L263.72 95.3435L265.011 95.4513L267.054 95.559L268.668 95.7745L270.926 96.0977L274.153 96.5286L276.519 96.8518L276.412 98.1446L275.551 99.1142L274.045 100.084L272.109 101.161L269.958 102.346H268.883L267.485 101.915L266.517 101.808H265.441L264.258 102.023L263.505 102.346L262.215 102.454L261.247 102.346H260.063L259.741 102.131L259.526 101.808L260.063 100.946L260.494 100.299L260.601 99.8683L261.031 99.1142L261.247 98.1446V97.7137V97.175Z" fill="#F51C5C"/>
<path d="M107.553 180.56L109.919 179.591L112.393 178.513L115.297 177.328L117.556 176.251L120.029 175.174H121.643L123.148 175.281L124.116 175.389L125.192 175.497L126.805 175.712L128.419 175.928L129.709 176.035H131.107L133.366 175.712L134.334 175.174L136.485 173.665L137.883 172.049L140.357 169.033L142.293 165.801L143.368 163.215L144.767 160.845L146.38 157.936L147.455 155.566L148.423 153.627L149.714 151.041L149.929 150.395L150.79 150.072L152.08 149.749L153.801 149.425L156.275 148.779L159.286 148.348L161.652 147.702L162.728 146.732H161.437L160.039 147.271L157.781 147.486L155.522 147.702L153.801 148.564L151.327 148.779L147.886 148.564L144.982 149.425L139.281 150.503L136.915 151.041L135.732 151.58L135.087 152.011L134.334 152.873L132.506 154.812L129.386 157.829L127.128 160.199L125.622 161.707L124.009 163.431L122.18 165.37L120.782 167.201L119.814 168.279L119.061 169.141L118.416 168.925L117.663 168.279L117.018 167.74L116.265 166.555L115.835 165.047L115.297 163.646L115.189 162.569L115.512 160.737L116.05 161.276L116.695 161.707L117.448 162.353L117.986 162.784L118.416 163.646L118.739 164.4L119.384 164.508L120.352 163.323L120.89 162.353L121.535 161.492L122.396 160.414L123.686 158.044L124.977 155.889L126.913 153.088L128.311 150.61L129.924 148.456L131.215 146.301L132.613 144.362L134.441 144.254L138.959 144.039L142.831 143.823L153.801 142.961H156.275L154.769 140.268L153.801 138.221L152.295 136.282L151.865 135.528V135.097L151.973 134.774L152.188 134.558H152.51L153.156 134.774L153.801 135.205L154.984 135.636L156.813 136.605L158.856 137.683L160.792 138.652L165.202 140.807V139.299L165.524 137.268L166.062 135.097L166.923 133.05L167.675 130.895L168.859 128.741L170.042 126.478L171.87 124L172.838 122.708L174.129 121.092L175.419 119.368L177.14 117.106L179.829 113.766L181.55 111.073L182.733 108.918L184.346 106.332L185.959 103.639L188.218 99.6529L190.692 95.1281L192.305 92.1116L194.133 88.2332L195.101 85.5399L196.069 82.8465L196.93 79.9378L197.683 77.5676L198.436 74.1202L198.651 74.2279L198.812 74.3981L198.973 74.5511L199.081 74.7666L199.296 75.1975V75.8439L199.404 76.9212L199.511 78.8604L199.726 80.9073L200.156 83.8161L200.372 85.7553V87.0481L200.156 88.6641L199.511 92.0038L199.081 94.6971L198.543 97.9291L198.005 101.053L197.037 105.363L195.962 108.702L194.779 112.365L193.703 115.382L192.735 118.506L191.552 121.523L190.369 124L189.401 126.802L188.218 129.603L189.079 128.956L189.831 127.771L190.692 126.802L191.552 125.94L192.843 124.647L193.811 123.354L194.671 122.277L195.209 121.415L195.747 120.984L196.5 120.553L197.253 120.23L198.328 120.014L198.973 119.907L200.372 119.583L201.34 119.26L202.308 119.045L203.276 118.722L204.028 118.506L204.459 118.291L204.781 118.183H205.104L205.427 118.291L205.642 118.506L205.749 118.829V119.153L205.642 119.476L204.996 120.338L203.921 121.846L203.168 122.815L201.877 124.539L200.372 126.263L199.189 127.879L197.468 129.926L195.747 132.296L192.735 136.067L189.509 140.053L188.111 141.238L187.573 142.207L188.433 142.961H191.337L195.317 144.147L197.898 144.901L200.479 145.547L203.598 146.409L205.319 146.732L207.9 147.271L209.729 147.486V148.24L208.653 149.749L206.61 151.041L204.996 151.903L203.276 152.873L198.436 155.782L192.735 159.445L187.573 162.677L182.84 165.693L180.904 166.555L182.303 167.74L184.884 169.141L187.143 169.895L190.046 170.864L193.381 172.265L195.962 173.45L197.683 173.989L198.436 174.204L198.866 174.312L199.189 174.527V174.85L199.081 175.174L198.866 175.605L198.543 176.035L193.703 178.836L190.046 180.776L184.024 184.439L180.582 186.378L177.14 188.748L172.515 192.303L169.289 194.565L167.675 195.858L165.739 197.69L163.158 200.383L160.469 202.43L158.426 204.692L155.952 207.278L152.941 210.51L151.327 212.341L148.854 215.142L147.348 217.62L145.412 220.098L144.767 220.96L116.91 221.93H113.038L112.178 222.037L110.672 223.546L109.167 225.162L107.338 226.993L105.51 228.717L104.111 230.117L102.606 231.518L100.24 233.78L98.1961 235.827L97.013 237.012L95.2921 238.951L93.8939 240.352L92.926 241.214L93.5713 239.275L94.2166 237.659L94.6468 236.043L95.1846 234.534L95.8299 232.272L96.2601 230.656L96.5828 228.932L97.013 225.808L97.5508 224.3L97.8734 222.899L98.5187 222.576L98.8414 222.145L97.7659 221.93L96.2601 221.499L94.4317 220.852L92.3882 220.314L90.3447 219.667L89.6994 219.236L89.3767 218.805L89.1616 218.374L89.2692 217.836L89.5918 217.513L90.1296 217.297L90.6674 217.189H92.0655H94.4317H96.6903L98.6263 217.513L99.3792 216.328L100.24 215.25L101.638 214.604L106.693 214.281H109.919H112.608L116.373 214.604L121.858 214.927L125.837 215.142H135.302H141.002L144.121 214.604L145.412 212.988L146.38 211.695L148.423 209.109L150.467 206.955L151.973 205.231L154.124 202.538L155.737 200.814L157.35 199.198L158.749 197.905L159.501 197.151L160.792 196.181L163.481 194.135L164.987 192.734L165.955 192.111L167.03 191.226L168.643 189.394L168.966 187.886L169.289 186.809L170.149 183.684L170.257 182.93L170.364 182.176L170.579 181.314L171.01 180.022L171.44 179.591H171.978H172.999L173.806 180.022L174.451 180.56H176.28L175.742 178.836L175.312 176.897V172.588L174.774 164.831L174.559 155.351L175.312 146.193L175.097 141.992L174.774 141.561L174.129 145.008L173.483 147.486L172.838 151.041L172.515 154.273L171.87 158.044L171.655 160.63L171.547 163.431L171.44 164.939V171.403L171.225 172.588L169.826 172.049L168.643 171.726L167.46 171.403L165.955 171.08H164.449L162.943 171.295L161.115 171.618L159.394 171.942L157.888 172.265L155.199 172.911L151.327 173.989L147.886 175.174L143.368 177.221L140.357 178.621L138.313 179.698L136.162 180.883L133.366 182.499L131.107 183.9L129.602 184.87L127.773 185.947L99.2716 189.61L96.9054 189.825L95.077 189.718L92.8184 189.61H91.3127L90.8825 189.933L90.6674 191.441V192.842L90.7749 194.566L90.99 195.643L91.3127 196.72L91.7429 198.013L91.958 198.983L92.2807 200.168L92.6033 201.029L92.8184 202.107L93.3562 203.507L93.5713 203.938L94.1091 204.908L94.4317 204.477V203.615V203.076V201.999L94.6468 200.168L94.8619 198.983L95.077 197.797L95.3997 196.074L95.7224 194.027L95.9375 193.165L96.7979 192.519L98.0885 191.872L99.3792 191.334L100.24 190.795L99.9169 190.364L99.2716 189.61L127.773 185.947L125.515 187.455L124.224 188.425L122.288 189.825L120.567 191.118L116.157 194.512L113.469 196.612L110.995 198.767L107.553 201.999L104.327 205.554L102.391 207.386L100.562 209.325L98.4112 211.372L95.1846 212.341L84.967 213.85L80.2347 214.388L78.1912 214.496L77.4383 214.388L76.6854 214.173L76.0401 213.742L75.3948 213.311L74.5344 212.557L73.7815 211.91L73.0286 211.049L71.9531 209.648L71.3078 208.571L70.9851 207.924L70.5549 207.063L70.2323 206.524L69.6945 205.554L69.3718 204.369L70.2323 204.692L71.3078 205.231L72.1682 206.201L79.3743 210.51L80.0734 209.325L81.9555 205.985L83.5688 201.029L83.784 200.383L84.3217 199.198L84.7519 197.797L85.2897 196.936L85.935 195.643L86.2577 195.212L86.7954 194.242L87.0105 193.488L87.3332 193.057L87.5483 192.734L87.7634 192.411L88.0861 191.764L88.3012 191.118L88.5163 190.579L89.0541 189.718L89.2692 189.179L89.4843 188.748L89.8069 188.317L90.022 187.994L90.3447 187.671L90.8825 187.347L91.3127 186.916L92.0655 186.701L92.7109 186.378L93.3562 186.162L94.5393 185.839L95.2921 185.3L96.5828 185.085L98.3036 184.977H100.67H102.498L103.359 185.085L104.219 185.3L104.864 185.839L105.617 186.162L105.295 185.3L105.079 184.762L104.542 184.439L103.359 184.223L102.068 184.115L100.992 183.685L100.67 183.254L100.992 182.93L101.745 182.499L102.391 182.069H103.359L103.789 181.745V180.991L104.327 180.883V181.314L104.542 181.745L105.295 182.069L106.155 181.745L106.8 180.883L107.553 180.56Z" fill="#F51C5C"/>
<path d="M200.836 214.775L199.75 214.979L199.579 212.84L199.572 212.75L199.534 212.669L198.781 211.053L198.765 211.019L198.744 210.987L198.099 210.017L198.072 209.976L198.037 209.941L197.341 209.244L197.055 208.671L196.917 208.394H196.607H194.989L194.446 208.161L194.203 207.857V206.946L195.24 205.907L196.199 204.947L197.265 203.986L197.265 203.986L197.268 203.983L198.535 202.82L199.545 202.112L200.63 201.618L201.707 201.422H202.653L203.586 202.263L203.597 202.272L203.608 202.281L204.673 203.135L206.706 204.957L206.717 204.966L206.727 204.975L208.857 206.681L210.558 208.385L210.567 208.395L210.577 208.403L211.653 209.373L211.653 209.373L211.658 209.378L212.468 210.088L212.778 210.553V210.617L212.336 210.764H211.88H209.944H208.223H208.117L208.02 210.807L207.052 211.238L207.034 211.246L207.018 211.255L205.62 212.009L205.619 212.009L205.608 212.015L204.106 212.875L204.103 212.877L202.385 213.845L202.385 213.845L202.373 213.852L200.836 214.775Z" fill="#F51C5C" stroke="#F51C5C"/>
<path d="M202.2 218.482L204.243 217.405L205.749 216.435L207.255 215.681L208.438 215.035L209.406 214.604L209.836 214.388L210.266 214.281H210.697L211.127 214.388L211.665 214.496L213.816 214.819L215.536 214.927L216.397 215.035L216.827 215.142L217.15 215.25L216.397 215.789L215.321 216.435L214.353 217.189L213.17 218.159L212.202 219.129L211.019 220.098L209.621 220.745L208.115 221.822L207.04 222.361L206.179 223.007L205.534 223.653L205.211 224.192L204.351 223.869L203.383 223.222L202.63 223.007L201.985 222.791L201.232 222.361L200.694 222.145L199.619 222.037L198.758 221.93L198.22 221.714L197.898 221.553V221.175L198.113 220.96L198.328 220.637L198.758 220.421L199.296 220.098L199.726 219.775L200.264 219.452L201.232 219.129L202.2 218.482Z" fill="#EB6D45"/>
<path d="M205.211 224.192L205.534 223.653L206.825 222.468L208.115 221.822L209.621 220.745L211.019 220.098L212.417 218.913L213.278 218.051L215.214 216.543L217.15 215.25L217.472 216.22L217.688 216.974L217.903 218.159V219.559L217.795 222.145L217.688 224.623L217.795 226.993V228.07L217.58 228.825L216.289 230.01L215.214 230.871L213.385 232.38L212.095 233.242L210.159 234.642L208.438 235.827L208.653 229.686L208.223 228.609L207.47 227.424L206.502 226.347L206.072 225.485L205.534 224.731L205.211 224.192Z" fill="#F51C5C"/>
<path d="M220.484 215.681L223.603 216.327L226.4 216.974L231.455 218.159L237.047 219.559L240.812 220.206L244.146 220.637H245.759L248.34 220.206L252.32 219.129L255.009 218.159L259.203 216.758L262.86 215.142L266.84 213.095L270.066 211.156L271.572 209.648L272.432 208.032L273.293 206.093L273.615 204.046L273.293 202.107L272.97 200.06L275.229 201.568L277.918 203.292L280.069 204.908L282.327 206.955L283.833 208.248L285.661 210.187L286.737 211.695L287.705 213.634L288.673 216.22L289.211 218.159L289.641 219.99L289.748 221.175V222.899L289.641 224.515L289.318 227.316L288.673 229.363L288.028 230.656L287.382 231.302L285.769 232.918L284.478 233.565L283.295 233.888L281.574 234.319L278.24 234.75L273.508 235.073L266.624 235.719L262.86 235.935L257.267 236.15L252.212 236.581L249.631 236.904L247.05 237.12H245.006L244.684 236.904L244.468 236.581L244.253 236.366L244.146 235.719L244.684 233.78L244.899 231.518L245.006 228.824V226.023L243.501 229.255L242.855 233.78L242.102 237.443L240.166 241.86L237.908 244.338L235.326 245.415L232.53 245.631L232.1 243.368L230.809 241.429L229.734 239.49L228.551 237.012L226.4 232.811L224.033 229.148L222.528 224.407L221.775 220.098L220.484 215.681Z" fill="#F51C5C"/>
<path d="M248.602 220.206L245.806 220.637H243.87L240.751 220.206L237.739 219.667L234.943 219.021L232.039 218.267L227.521 217.189L224.618 216.543L220.531 215.681L220.423 214.819L219.455 212.88L218.702 212.018L217.949 210.725L217.196 209.756L216.228 208.678L215.583 207.709L215.368 207.17V206.847L215.583 206.739L216.013 206.847L216.551 207.062L217.949 207.493L219.67 208.355L221.498 208.894L223.542 209.756L224.833 209.971L227.629 210.941L229.027 211.587L230.963 212.234L233.007 212.88L234.835 213.096L236.341 213.85L237.847 214.065H239.137L238.815 213.634L238.277 213.096L236.879 212.234L235.911 211.264L235.48 210.294L236.663 209.756L238.277 208.894L240.966 207.17L242.686 205.447L244.192 203.4L245.913 199.306L247.741 196.72L250 195.535L254.625 194.35L256.991 193.273L254.732 192.303L252.581 192.411H250.645L249.423 192.249L248.387 192.088H247.526L246.773 192.249L245.483 192.519L243.87 192.95L242.902 193.704L242.149 194.673L241.934 194.889L241.611 194.996L241.181 194.781L240.858 194.566L240.32 193.596L240.105 193.273L239.998 193.165L239.89 192.95L239.783 192.626L239.675 191.334L239.567 189.718L239.675 188.317L239.783 187.024L239.998 186.162L240.32 185.408L240.966 184.223L241.503 183.254L242.256 181.961L243.224 180.883L244.407 179.698L245.268 178.944L246.236 178.082L247.419 177.328L248.602 176.466L250 175.605L251.291 174.958L252.689 174.204L253.657 173.665L255.055 172.803L254.84 171.618L253.549 172.049L251.291 171.726L246.881 170.864L241.718 170.757L238.384 171.618L236.233 172.803L233.76 173.989L232.039 175.174L229.78 171.403L227.737 167.417L226.446 164.185L225.693 162.138L225.155 160.522V159.876L228.92 158.367L231.824 157.182L235.05 156.105L238.062 155.135L242.041 154.381L245.16 153.196L242.686 150.503L239.567 147.055L233.329 142.423L228.274 140.16L223.112 138.329L217.842 137.683L216.228 137.467V135.312L217.196 132.296L218.487 129.064L219.455 126.694L220.315 124.593L222.251 121.199L224.187 118.506L226.231 116.459L228.812 114.197L231.931 112.15L227.306 111.719L221.714 111.934L221.606 109.672L218.164 110.318L212.464 111.503L211.066 111.934L210.851 108.702V104.285L211.066 101.915L209.345 103.1L207.517 105.04L205.473 106.979L203.967 108.487L202.677 109.995L202.139 110.534L202.246 109.672L202.569 108.487L202.999 106.979L203.752 105.04L204.613 102.669L205.043 100.838L205.473 99.3297L206.118 98.2523L206.764 97.7137L207.947 97.0673L209.345 96.7441L211.604 96.0977L213.862 95.6668L215.368 95.2358L217.734 94.6972L220.853 94.1585L223.327 93.8353L226.231 93.5121L228.812 93.4142H231.931H235.265H242.149L248.387 93.8353L253.012 94.1585L259.25 94.5894L259.357 94.8049L259.895 95.0204L260.648 95.2358L260.971 95.3436L261.186 95.559L261.293 95.8822L261.186 96.3132L261.293 97.175V98.1446L261.078 99.1142L260.648 99.8684L260.54 100.299L260.11 100.946L259.572 101.808L259.787 102.131L260.11 102.346L259.035 102.562L256.561 103.639L253.442 104.824L250 105.901L247.526 106.871L245.59 107.841L242.471 109.133L239.998 110.211L238.277 110.965L235.911 111.719L236.771 112.473L238.492 112.258L240.751 111.719L243.977 111.18L247.204 110.534L250.108 110.211L253.119 109.78L256.668 109.457H260.433H263.982L266.348 109.564L268.499 109.78L269.36 109.888H270.865L272.801 109.78L274.307 109.564L275.598 109.133L277.319 108.487L279.9 107.517L282.266 106.44L283.879 105.363L286.353 103.639L288.504 101.808L291.838 98.8988L294.635 96.0977L296.893 93.2966L299.797 89.3105L303.024 82.9543L305.175 76.3826L306.681 70.3496L307.218 64.9629L307.649 57.5294L307.218 51.1731L306.734 47.8334V46.379L306.896 44.4937L307.218 42.4468L307.649 41.0462L307.971 40.2921L308.186 39.8612L308.401 39.538L308.617 39.107L308.939 38.5684L309.262 38.1374L309.8 37.7065L310.553 37.2756L311.305 37.1679L312.919 37.0601L314.908 37.1679L317.759 37.2756L321.415 37.7065L324.75 38.4606L327.869 39.538L332.601 44.7091L337.441 50.5267L342.281 56.3443L347.658 63.1315L353.144 72.181L356.8 78.2141L361.102 86.294L365.19 94.6972L368.631 103.1L372.073 112.15L373.794 119.799L376.483 128.848L377.666 137.252L377.965 138.975L378.311 140.699L378.634 142.423L378.849 144.147L379.709 151.365L380.462 161.815V170.002L380.139 175.605L379.924 180.56V184.977L379.387 188.856L378.849 193.273L378.419 197.151L377.451 203.507V195.751V191.441V186.593L377.235 181.961L376.483 177.328L375.73 170.218L374.547 163.323L373.041 155.135L371.535 148.779L369.061 140.807L366.588 132.404L363.791 124.647L360.565 117.213L357.876 111.18L352.928 102.238L347.658 93.7276L344.647 89.2028L341.528 84.8935L338.731 81.1228L334.644 75.7362L330.45 70.7805L325.395 65.9325L320.555 60.3304L317.436 56.883L317.759 61.0845V64.9629L316.36 78.5373L315.177 85.0012L313.887 89.526L311.305 97.2828L308.939 102.346L306.358 106.44L304.099 109.457L300.12 114.089L296.248 117.429L291.838 120.445L288.504 122.169L286.03 122.923L282.589 123.57L277.856 124.108H272.048L266.778 123.785L265.165 123.57L262.799 123.246L259.572 122.708L255.27 122.277H251.613L246.451 122.923L241.718 123.57L240.643 123.139L243.762 127.448L246.451 130.572L249.462 134.666L252.474 138.975L255.808 144.793L257.529 147.809L258.497 150.18L259.895 153.196L260.971 155.889L261.293 157.398L261.831 158.906L262.154 160.306L262.369 162.461L262.261 165.154L262.369 166.124V167.309L262.261 168.71L261.616 170.326L260.863 172.049L259.572 173.127L259.68 173.881L260.971 174.527L263.659 175.928L265.918 177.328L268.499 178.944L270.543 180.452L273.124 182.499L274.307 184.762L274.2 187.778L273.662 189.502L272.048 190.903L270.22 192.95L268.714 194.889L267.531 195.104L266.133 194.35L264.305 193.38L262.691 193.165L263.767 194.35L266.778 195.858L269.682 197.69L273.339 200.06L273.984 204.154L273.662 206.308L272.371 208.894L271.941 209.648L270.435 211.156L267.316 212.988L264.305 214.712L262.154 215.789L257.959 217.297L252.044 219.236L248.602 220.206Z" fill="#EB6D45"/>
<path d="M144.229 112.581L147.133 110.211L147.778 111.503L148.208 113.227L148.639 114.412L147.778 114.951L145.089 116.244L142.723 117.321L141.002 118.075L140.142 118.398L139.927 118.075L140.142 117.321L140.68 116.351L141.755 115.274L142.938 113.981L144.229 112.581Z" fill="#F51C5C"/>
<path d="M130.462 119.907L131.322 118.722L132.506 117.321L134.334 115.705L134.549 116.351L134.764 117.106L134.979 118.291L135.625 120.014L134.872 120.445L133.581 120.984L131.215 122.061L129.817 122.815L129.387 122.708L128.956 122.277L129.064 121.738L129.817 120.661L130.462 119.907Z" fill="#F51C5C"/>
<path d="M135.625 116.351L135.732 116.136L136.055 115.921L136.7 115.705L138.098 114.951L138.959 114.843L139.712 114.951L139.927 115.382V115.921L139.282 116.998L138.959 117.429L137.883 118.398L137.561 118.506L136.915 118.722L135.732 118.506L135.41 118.075V116.567L135.625 116.351Z" fill="#EB6D45"/>
<path d="M204.028 108.379L205.211 107.194L207.147 105.363L209.298 103.1L210.912 102.023V102.993L210.804 103.854V105.794V107.302L210.912 109.887L211.019 111.934L208.008 112.365L205.857 112.688L204.028 112.904L202.523 113.119L201.447 113.227L201.555 112.796L202.092 110.534L204.028 108.379Z" fill="#F51C5C"/>
<path d="M107.231 131.434L113.038 127.232L116.48 124.862L119.492 122.923L121.965 121.738L124.547 120.553L127.451 119.368L127.881 119.26H128.096L128.311 119.368V119.691V120.23V120.769L127.773 121.63L126.913 122.815L125.945 124.324L125.084 125.94L124.762 126.586L127.773 124.97L129.709 123.893L131.86 122.923L134.119 122.061L136.377 121.092L139.174 120.014L142.078 118.829L144.874 117.644L147.778 116.459L149.069 115.921H149.284L149.499 116.136L149.607 116.567V117.213L148.961 118.075L148.316 118.937L147.348 120.23L146.487 121.415L144.444 123.677L142.508 125.724L140.787 127.987L142.723 126.371L144.336 124.97L146.38 123.3L147.993 122.277L149.499 121.092L151.112 119.476L152.941 118.075L155.414 116.136L158.749 113.766L161.652 111.827L164.987 109.887L169.504 106.979L172.3 104.824L176.065 101.808L179.184 98.8987L182.41 95.7745L186.39 91.6806L189.294 88.2332L191.445 85.1089L193.488 82.0924L194.994 79.7223L196.285 77.4599L197.037 75.5207L197.36 74.5511L197.468 74.3356L197.683 74.1202L197.898 74.0125H198.113L198.436 74.1202L198.113 75.8439L197.79 77.029L197.037 79.6146L196.607 81.0151L196.285 82.3079L195.639 84.0316L195.209 85.2167L194.456 87.2636L193.918 88.6641L192.95 90.711L191.122 94.2662L188.003 100.084L184.776 105.578L183.056 108.379L181.227 111.611L179.291 114.52L176.28 118.291L174.236 120.984L171.547 124.431L169.827 126.802L168.751 128.848L167.675 130.788L166.923 133.05L166.062 134.989L165.524 137.036L165.417 138.113L165.202 139.299V140.807L163.804 140.053L162.513 139.514L161.222 138.868L159.501 138.006L157.781 137.144L156.382 136.39L154.984 135.636L154.016 135.312L153.156 134.774L152.51 134.558H152.188L151.973 134.774L151.865 134.989V135.528L152.618 136.605L153.801 138.221L154.984 140.699L156.275 142.961H154.016L148.208 143.392L141.648 143.823L132.613 144.362L130.139 148.133L128.419 150.503L126.59 153.735L124.547 156.536L122.718 159.983L121.428 161.707L120.245 163.538L119.384 164.508L118.739 164.4L117.986 162.784L116.48 161.599L116.157 161.384L115.512 160.845L116.265 158.475L117.448 156.105L118.416 153.735L119.599 151.041L120.782 148.671L122.073 146.624L119.922 147.917L118.631 148.887L117.125 150.18L115.727 151.688L114.006 153.95L112.286 156.536L111.21 158.69L111.102 160.845V162.677V164.077L112.07 166.016L112.823 168.063L114.114 170.864L106.8 179.267L105.725 180.345L104.434 181.638L104.327 181.314V180.883L103.789 180.991V181.745L103.359 182.068H102.391L101.315 182.715L100.67 183.254L99.0565 182.823L95.6148 181.961L93.6789 181.53L91.5278 181.099L88.3012 180.883L86.6879 181.53L85.6124 182.823L84.752 184.223L83.6764 186.27L82.816 189.287L81.9556 192.95L81.3103 194.835L80.9876 197.474L81.5254 198.767L82.0631 198.013L82.816 196.289L83.784 194.027L84.8595 192.95L85.6124 191.549L86.0426 190.579L86.7955 189.502L87.3332 188.209L87.9786 186.916L88.5163 186.055L89.5919 184.87L90.0221 184.762L91.5278 184.87L102.498 184.977L95.2922 185.3L94.5393 185.839L93.6789 186.055L92.926 186.27L92.1731 186.701L91.3127 186.916L90.5598 187.563L90.0221 187.994L89.5919 188.532L89.0541 189.718L88.3012 191.01L87.7634 192.411L87.0106 193.38L86.7955 194.242L85.8275 195.966L84.8595 197.69L84.3217 199.198L83.6764 200.706L82.7084 203.723L80.9876 208.032L79.3743 210.51L77.8686 209.648L75.5024 208.248L72.1682 206.201L71.3078 205.231L69.3719 204.369L64.7471 193.919L67.0057 192.519L70.0172 192.195L69.1567 191.549L68.8341 189.502L69.8021 188.748L71.6305 187.24L74.1042 185.3L76.6855 183.038L79.5894 180.345L82.7084 177.221L84.9671 174.743L87.5483 171.08L89.5919 168.494L90.4523 166.663L91.6354 164.293L93.2487 161.168L94.2166 158.26L94.6468 155.674L95.0771 153.196L95.7224 151.257L96.7979 149.964L98.3037 148.564L100.885 146.84L102.713 145.116L100.885 145.439L97.7659 146.624L95.0771 148.133L93.5713 149.749L92.8184 151.041L90.6674 154.273L89.2692 156.32L87.871 158.26L86.5804 160.091L86.2577 160.306L85.8275 160.091L84.9671 159.229L83.6764 158.475L82.6009 157.936L81.848 156.213L80.3423 152.981L81.4178 152.011L84.1066 149.641L87.5483 146.84L94.2166 141.13L99.917 136.821L107.231 131.434Z" fill="#EB6D45"/>
<path d="M204.028 133.05L208.438 128.31L212.417 123.893L217.042 117.752L221.667 111.934L227.26 111.719L231.885 112.15L228.766 114.197L226.722 116.028L226.184 116.459L224.141 118.506L222.205 121.199L220.269 124.539L218.01 130.034L216.182 135.312L216.289 137.505L219.839 137.79L223.173 138.367L228.228 140.16L233.175 142.315L239.521 147.055L242.532 150.287L245.114 153.196L241.995 154.381L237.8 155.243L231.239 157.398L229.411 158.152L227.045 159.121L225.109 159.876V160.522L226.722 165.047L227.69 167.309L228.766 169.464L230.056 171.834L231.992 175.174L233.713 173.989L235.756 173.019L238.338 171.618L241.672 170.757L244.038 170.8L246.834 170.864L248.986 171.295L251.352 171.726L253.503 172.049L252.32 172.588L249.631 173.234L247.157 173.989L244.791 174.85L243.178 175.82L241.457 176.79L239.736 177.975L238.338 179.483L237.262 180.991L236.509 182.176L236.079 183.684L235.649 184.977L235.111 185.516L234.788 185.624L234.466 185.516L232.1 184.223L228.443 181.961L224.463 179.052L220.914 175.604L216.72 171.187L212.633 166.77L209.513 162.569L207.147 158.69L205.964 156.536L208.223 155.135L211.772 152.981L214.784 150.934L218.44 148.564L221.99 145.763L218.44 145.224L213.601 144.577L209.513 143.608L206.394 142.531L203.706 141.669L200.479 140.699L199.081 140.053L198.866 139.622V138.868L199.403 137.79L201.662 135.636L204.028 133.05Z" fill="#F51C5C"/>
<path d="M286.199 131.973L290.824 132.727L295.341 133.265H301.364L307.064 132.404L312.872 131.003L315.669 133.481L318.035 135.42L320.724 139.191L320.508 144.146L320.186 147.809L319.54 152.119L318.035 156.967L316.099 161.384L313.948 164.831L311.582 166.339L309.646 166.878L307.817 166.339L305.666 165.693L303.838 164.831L302.44 163.646L300.288 163.431L296.739 163.862L295.664 164.508L294.803 165.37L293.62 166.339L292.975 167.417L292.76 168.279L292.437 169.571L291.792 171.295L291.577 172.48L291.146 173.342H290.743L289.641 172.588L289.103 171.295L288.242 169.895L287.059 167.848L285.339 165.047L283.833 162.353L281.897 158.798L280.821 156.32L280.391 153.412L278.993 149.856L277.165 146.948L275.532 143.78L272.647 140.699L269.206 137.359L265.656 134.451L261.784 131.757L256.084 128.418L254.901 128.202L255.654 129.172L256.945 130.033L259.096 131.542L261.462 133.804L263.29 135.743L265.441 137.79L267.7 140.053L269.528 142.315L271.034 144.577L272.647 146.84L274.368 150.503L275.532 154.166L275.766 157.613V160.953V165.262L275.659 168.494V171.726L274.583 174.85L274.368 175.712L273.938 176.143L273.508 175.928L272.97 175.497L271.679 174.958L271.034 175.389L271.572 176.359L272.54 177.328L273.508 177.436L274.368 177.759L274.906 178.19L275.659 178.621L276.412 179.16L277.702 180.022L279.208 181.314L280.714 182.499L281.467 183.361L282.112 184.115L282.972 185.085L284.263 186.701L284.801 187.563L285.231 188.64L285.554 189.933L285.876 191.01L286.091 192.088L286.199 193.38L286.091 194.458L285.661 196.074L285.339 197.259L284.908 198.121L284.155 199.306L283.51 199.952L282.65 199.737L281.359 199.306L279.423 198.767L277.595 198.013L275.121 197.259L273.185 196.505L271.034 195.751L268.13 194.996L268.668 194.889L269.851 193.38L270.926 192.088L272.002 190.903L273.615 189.502L274.153 187.778L274.261 184.762L273.508 183.469L273.077 182.499L270.711 180.668L269.421 179.698L267.807 178.621L265.871 177.328L263.613 175.928L259.633 173.881L259.526 173.127L260.816 172.049L262.215 168.71L262.322 166.878L262.215 165.047L262.322 162.461L262.107 160.306L261.784 158.906L261.247 157.505L260.924 156.105L260.279 154.273L259.418 152.334L258.45 150.287L257.482 147.917L254.901 143.392L252.427 138.975L249.738 135.097L247.91 132.619L246.835 131.219L245.759 129.818L243.608 127.34L241.887 124.97L241.134 123.893L240.596 123.139L241.672 123.57L242.425 123.462L248.125 122.708L251.567 122.277H255.439L260.494 122.815L264.688 123.462L267.27 123.785L268.883 124.97L270.496 126.155L273.508 127.556L278.563 129.387L286.199 131.973Z" fill="#F51C5C"/>
<path d="M88.9464 250.802L114.221 226.993L151.22 230.656L164.234 235.935L173.376 239.275L165.524 246.493V248.432L174.236 249.617L181.872 250.263H195.854L201.447 250.156H211.449L217.042 250.263L216.935 249.94L216.612 249.078L216.074 248.216L215.321 247.678L214.246 246.924L213.493 246.6L212.848 246.17L211.772 245.846H210.159L208.976 245.954H207.9L207.47 245.415V244.554L208.223 243.261L208.976 242.291L211.019 241.429L213.385 240.567L215.429 239.382L217.15 238.305L218.763 236.797L219.946 235.289L221.129 233.565L221.452 234.103L222.205 235.181L223.388 236.581L224.248 238.305L225.216 239.706L226.184 240.891L227.045 242.183L227.475 243.584L227.045 245.415L226.722 247.678L226.184 250.587L232.637 251.018L242.64 251.772L248.018 252.095L248.555 251.018L249.308 250.587L250.169 250.371L251.674 250.587L253.395 251.448L255.116 252.095L257.267 252.741L260.601 254.034L273.508 255.758L289.748 258.128L297.169 245.523L301.256 249.832L304.698 254.465L306.957 258.882L309.108 261.683L317.82 263.622L328.898 266.531L340.083 269.548L349.978 272.241L366.111 277.304L370.628 260.175L374.177 243.368L376.544 227.963L377.404 203.184L379.878 184.977V181.099L379.985 177.113L380.415 170.649V167.848V161.707L379.985 155.889L379.555 149.856L378.587 142.436L377.189 134.666L376.221 128.202L373.747 119.799L372.672 115.274L372.026 112.15L370.521 108.379L369.23 104.824L367.509 100.515L366.434 98.0369L363.207 90.6033L357.292 79.2914L354.603 74.7666L351.161 69.1645L347.504 63.0237L343.202 57.6371L339.438 53.0046L335.243 47.9411L331.371 43.5241L327.822 39.538L335.673 42.2313L341.696 45.4633L348.58 49.988L357.184 57.5293L364.82 66.3634L373.64 77.1367L380.308 87.3713L389.342 103.208L395.796 113.766L400.851 123.785L404.83 133.589L409.67 148.887L411.283 154.92L412.466 162.353V169.571L411.283 182.068L408.379 203.184L402.894 226.023L396.011 244.769L387.514 264.592L378.91 280.752L372.672 291.094L364.82 302.945L358.475 312.533L347.504 327.292L335.136 341.944L325.026 352.717L312.657 364.676L297.922 376.311L283.403 386.976L263.29 398.719L248.233 406.907L233.498 413.263L219.193 418.327L214.031 419.835L194.779 412.401L178.108 405.183L159.501 395.918L148.316 388.916L139.712 383.421L129.817 376.742L113.576 364.676L97.228 351.209L84.1066 337.85L77.3307 329.662L69.2642 318.243L63.1337 309.193L59.7995 303.16L55.3899 293.68L50.0122 281.183L66.5754 286.677L70.3398 296.696L76.2552 307.685L84.1066 319.859L93.6788 331.602L110.242 349.054L124.869 361.551L137.776 370.385L147.886 376.742L157.888 382.559L170.257 389.454L180.367 393.979L207.578 404.537L214.461 407.284L217.795 406.26L223.173 404.537L230.917 401.628L243.823 396.349L253.18 391.609L263.29 386.222L273.615 380.189L280.391 375.88L287.274 371.032L295.449 364.676L307.925 354.226L319.54 343.021L329.973 331.494L339.868 318.889L348.042 306.931L354.71 295.834L360.733 285.169L347.504 280.752L336.641 277.304L324.488 273.749L313.733 271.164L288.458 265.992L264.043 262.222L256.837 261.252L249.093 260.39L238.338 259.528L224.571 258.559L214.246 258.128H201.124H185.959L170.472 258.667L158.318 259.744L149.822 260.498L139.604 261.683L126.913 264.376L117.34 266.854L109.059 268.901L99.9169 271.487L91.0975 274.288L81.6328 277.52L74.9645 280.105L71.2002 281.614L66.5754 283.553L65.8225 283.876L66.5754 286.677L56.3578 283.288L50.0122 281.183L57.3258 277.52L60.4449 275.904L63.6715 274.288L79.4818 268.901L85.2896 266.854L82.8159 263.622V259.744L83.2461 259.205L90.022 262.868L88.9464 250.802Z" fill="#F51C5C"/>
<path d="M304.375 16.0522L304.806 15.6213L305.343 15.2981L305.881 14.8671L306.849 14.6517L315.023 16.0522L322.337 17.2373L327.93 18.5301L333.2 20.0383L338.362 22.0852L343.525 24.5631L350.946 28.226L358.044 32.4276L364.82 36.8446L369.875 40.9385L375.468 45.7865L381.276 51.7118L386.869 57.4216L391.816 63.6701L396.656 70.2418L402.034 78.214L405.798 85.2167L409.993 91.8961L413.112 98.0369L416.769 105.901L420.21 114.735L423.329 122.708L426.448 132.727L428.814 141.453L431.181 151.257L433.332 162.353L434 170L434.3 174.703V179L434 183.038L433.224 187.886L431.934 195.32L430 205L429 210L428.277 212.665L427.201 217.513L425.05 225.054L422.899 231.518L420.64 238.09L418.597 243.476L416.338 248.863L414.295 254.034L413.112 256.512L412.359 258.02L419.672 260.39L426.771 262.545L433.762 264.484L440 265.992L436.881 272.564L434.945 276.873L432.794 280.644L427.094 289.694L422.039 298.42L416.231 306.715L411.068 314.257L404.507 323.091L397.086 332.463L391.494 339.035L384.18 347.762L375.361 356.596L369.122 362.844L362.454 369.524L352.667 377.927L346.321 383.529L340.944 388.054L336.641 391.07L332.339 394.194L324.918 399.366L317.067 405.075L308.032 410.57L294.696 418.973L282.757 425.545L272.002 430.931L259.956 436.102L247.265 441.274L234.896 445.906L221.452 450L209.083 445.906L196.285 441.274L181.98 435.025L177.893 433.194L175.097 432.009L171.978 429.962L170.149 428.992L170.687 429.962L171.01 430.5L171.762 431.201L173.268 432.224L175.634 433.409L180.152 435.133L172.623 435.025L171.332 435.995H169.289L165.202 435.779L161.652 435.348L157.243 435.025L152.295 433.948L147.671 432.763L143.153 431.793L139.819 430.931L134.764 429.1L133.689 428.777L134.549 430.824L135.947 432.978L137.883 435.241L139.496 436.641L140.464 437.611L141.325 438.365L141.217 439.442L137.883 439.55L134.441 438.796L132.613 438.365L129.171 437.395L126.805 436.641L124.331 435.456L121.643 434.379L118.739 433.194L116.265 431.685L113.253 429.854L109.597 427.592L106.585 425.437L104.111 423.282L100.562 420.158L97.8734 417.896L93.7864 414.664L91.6353 412.94L90.506 412.024L90.99 414.987L91.6353 416.711L92.8184 419.296L93.8939 420.481L94.4317 422.313H91.6353L89.3767 421.128L87.4407 420.158L84.967 418.973L82.8159 417.68L80.6649 415.525L77.0081 412.186L74.4268 409.492L72.1682 407.23L70.77 404.968L69.1567 402.598L67.7585 400.227L66.5754 397.857L64.6395 394.087L63.4564 390.747L62.3808 388.269L61.9506 387.407H60.3373V388.485V390.531L60.7541 392.902L61.3053 395.056L61.7355 396.457L60.3373 396.026L59.1274 394.841L57.8636 393.117L56.7881 391.286L55.8201 389.454L53.7766 384.391L51.518 376.849L50.4424 372.109L48.614 359.935L46.1403 353.256L34.5246 328.154L27.9638 319.428L21.5106 310.163L15.0574 298.851L9.57223 288.401L4.62479 277.843L0 267.393L13.4441 261.252L23.4466 257.051L34.0944 252.849L35.9228 249.832L38.0738 246.385L40.2249 244.554L42.2684 242.399L43.559 240.998L47.7536 240.136L53.669 239.813L53.8841 234.858L55.1748 232.487L57.6485 230.225L60.66 228.609L63.6715 227.316L67.0056 226.131L69.1567 225.593L68.4038 217.297H62.1657L60.3373 216.651L57.1107 213.742L53.9917 209.756L49.9047 204.261L46.463 198.983L44.0968 195.751L43.1288 193.38L44.0968 191.441L48.614 190.579L50.3349 189.287L53.5615 186.055L55.7125 183.469L57.8636 181.422L61.0902 177.975L62.1657 176.897V175.497L61.5204 174.527L60.5524 173.127L59.0467 170.326L62.1657 166.016L66.3603 162.03L67.1132 160.199L65.715 158.475L63.6715 154.166L61.3053 151.041L61.0902 149.964L61.8431 148.994L63.6715 147.486L67.3283 145.008L70.4473 142.961L75.6099 139.945L81.0951 135.743L86.0425 131.434L90.3447 127.771L95.077 124L98.7338 121.092L104.434 117.106L109.059 113.981L110.887 103.531L111.425 101.7L112.07 100.299L112.823 99.0065L114.006 98.3601L116.803 97.175L119.922 95.99L121.32 94.9126L121.965 92.6502L122.503 86.0785L122.933 79.1836L123.363 72.5042L123.794 64.8552V59.5763V50.5267V49.0184V47.2947L124.331 46.9715H125.192L126.375 47.2947L127.666 48.1566L128.956 49.0184L130.032 49.8803L131.43 51.0654L132.721 52.4659L133.796 53.7587L134.011 56.9907L133.796 61.6232L133.473 68.3026L133.043 75.9516L132.506 84.678L131.753 93.5121L131.43 97.175L131 99.0065L130.247 99.6529L127.666 101.053L124.547 102.346L122.933 103.1L122.503 103.962L121.643 109.564L120.782 113.981L119.707 117.644L107.983 126.263L101.96 130.788L96.7979 135.097L92.2806 138.76L87.7634 142.961L82.9235 145.978L78.7289 148.456L74.5343 151.688L77.1156 156.644L79.912 162.569L79.2667 164.723L75.7174 168.602L71.9531 171.511L73.3513 173.773L74.2117 174.527L74.857 175.497L75.5023 176.574L75.7174 177.651L75.2872 178.729L71.9531 182.068L68.9416 185.3L66.3603 188.209L64.8546 190.041L62.8111 191.01L60.1222 191.441L58.2938 192.088L57.8636 193.38L58.2938 194.458L60.5524 198.444L63.4564 203.076L67.1132 208.248L70.8775 213.419L73.1362 216.435L74.5343 217.943L75.5023 218.482H77.3307L82.1706 216.435L81.7404 224.407L76.9005 226.347L72.7059 228.286L69.5869 230.225L68.7265 233.996L67.9736 237.659H64.5319L60.8751 238.413L58.5089 239.382L56.1428 240.998L52.5935 246.816L47.0007 255.219L49.6896 257.589L51.9482 259.205L51.6255 260.283L39.2569 265.023L30.33 268.686L20.7578 272.672L23.9844 281.075L27.9638 290.232L33.2339 299.713L39.6871 310.163L48.0763 322.337L53.9917 329.986L65.0697 353.579L65.4999 359.935L66.4679 367.477L67.7585 372.863L69.1567 377.711L72.0606 382.667L73.5664 385.791L75.1797 388.054L76.9005 389.454L76.1476 387.407L75.6099 385.576L75.3948 384.068L75.2872 382.344L75.6099 380.512L76.1476 379.435L76.9005 379.866L77.7609 382.344L78.8365 384.929L79.5893 386.761L80.88 389.454L83.5688 394.194L88.086 400.443L91.6353 404.537L96.4752 408.415L99.7018 410.354L102.713 411.755L105.402 412.94L107.983 413.586L107.661 412.94L107.123 411.97L105.725 410.57L104.972 408.846L104.434 406.907L103.896 404.537L103.359 402.167L104.595 403.028L106.37 404.968L109.489 408.092L112.07 410.57L116.265 413.802L119.814 416.603L123.363 419.296L128.311 422.205L132.29 424.36L136.055 425.976L140.357 427.376L145.627 428.561L151.327 429.531L150.037 428.022L147.671 425.976L145.842 423.605L144.659 421.02L143.799 418.865L146.703 420.158L150.897 421.666L155.952 423.067L161.652 424.36L168.428 425.545L174.451 426.406H182.088L188.218 424.898L184.239 423.605L180.367 422.205L178.646 421.02L176.71 419.619L175.849 418.434H177.678L183.701 420.158L195.747 425.545L208.33 430.931L220.054 433.84L231.239 429.854L243.393 425.545L256.084 420.158L267.7 414.556L280.068 408.092L291.684 401.628L300.396 396.134L309.323 390.316L319.003 383.529L329.113 375.557L336.641 369.2L344.17 362.844L352.022 355.303L358.26 349.054L365.896 341.082L373.21 332.679L380.846 323.306L387.407 314.472L393.43 305.746L399.022 297.45L405.475 287.216L410.423 278.597L413.434 273.21L410.423 272.349L404.507 270.517L396.118 267.824L397.086 265.885L399.13 261.791L401.173 257.481L403.217 252.957L405.475 247.462L407.519 242.291L409.778 235.935L411.929 229.363L414.08 222.037L416.338 214.388L417.521 209.002L418.704 203.831L419.565 197.151L420.64 191.226L421.501 183.038L421.824 176.682V169.356L420.533 159.552L417.952 147.809L414.833 137.036L412.682 129.603L409.778 121.523L407.089 114.305L403.862 106.763L400.958 100.407L397.517 93.7276L393.967 86.9404L389.665 80.1532L384.718 72.7197L381.061 68.0872L377.297 63.4546L372.026 57.4216L365.681 51.1731L359.765 46.1097L354.818 42.339L348.15 38.1374L341.912 34.5822L335.351 31.3503L329.543 29.0879L323.95 27.1487L320.293 26.1791L316.529 25.3172L311.904 24.5631L305.343 23.7012L304.483 23.378L304.16 23.0548L303.838 22.6239L303.623 22.193L303.408 21.5466L303.3 21.0079L303.192 19.9306V19.1765V18.5301L303.408 17.6682L303.623 17.1295L303.945 16.5909L304.375 16.0522Z" fill="#F51C5C"/>
<path d="M100.454 376.849L103.358 378.25L107.123 379.974L110.78 381.697L116.265 383.637L122.18 385.468L127.558 386.869L131.86 388.054L135.732 388.916L141.647 389.885L146.81 390.208L150.036 389.993L156.49 393.979L159.394 395.81L165.201 398.719L171.44 401.843L164.449 401.951L156.49 401.843L150.359 401.52L145.304 401.089L141.217 400.443L137.238 399.797L132.183 398.611L127.128 397.534L123.041 396.349L119.922 395.272L116.91 394.087L111.855 392.255L109.381 391.07L107.123 389.993L104.864 388.7L102.498 386.976L100.024 385.253L98.5185 384.068L96.5826 382.452L94.1088 380.297L91.3125 377.604L89.4841 375.772L87.5481 373.725L85.0744 371.032L82.9233 368.662L80.7723 366.184L78.7287 363.814L77.3306 362.306L76.1475 360.905L75.0719 359.504L73.9964 357.996L73.0284 356.38L72.168 354.98L71.4151 353.364L70.9849 352.502L70.6623 351.532L70.3396 350.563L71.3076 351.424L72.168 352.502L72.7058 353.364L73.5662 354.441L75.0719 356.38L76.6852 358.319L77.7608 359.397L79.2665 361.12L81.6327 363.275L83.1384 364.568L84.8593 365.968L87.2254 368.123L89.0538 369.524L90.7747 370.816L92.8182 372.217L95.0768 373.51L96.9052 374.695L100.454 376.849Z" fill="#EB6D45"/>
<path d="M60.9828 243.045L62.7036 242.183L64.3169 241.645L66.0378 241.214L67.7586 240.998L68.2964 242.937L69.3719 244.123L70.555 245.2L72.0607 246.924L73.3514 248.324V249.617V250.802L72.5985 252.095L72.0607 253.603L71.0928 253.172L70.1248 252.526L69.0493 250.802L68.2964 250.048L66.8982 249.832H64.1018L62.0583 250.048L59.7997 250.587L58.509 251.233L57.1109 252.095L55.9278 252.957L55.4976 254.034L55.1749 255.542L54.7447 256.404H54.3145L53.6692 255.865L53.1314 255.219L52.7012 254.573V253.711L53.1314 252.957L53.6692 252.095L54.422 251.017L55.0673 249.832L56.0353 248.54L57.0033 247.301L57.7562 246.277L58.7241 244.984L59.7997 243.907L60.9828 243.045Z" fill="#EB6D45"/>
<path d="M82.0629 228.286L83.3536 228.07L85.3971 227.316L87.0104 226.993L87.5481 228.07V230.333V232.272V234.858L87.0104 235.935L86.0424 236.797L84.7518 237.012L83.8913 236.581L83.6762 234.858L82.7083 232.918L82.0629 231.518L80.8798 231.626H79.3741L77.6533 231.949L76.3626 232.272L75.2871 232.595L74.2116 232.918H73.6738L73.3511 233.78L73.136 234.858L72.3831 235.288L71.6303 235.719L71.3076 235.073L71.4152 234.534L71.6303 233.78L71.9529 232.918L72.4907 232.272L73.2436 231.518L74.2116 231.087L75.7173 230.333L77.4381 229.794L78.8363 229.363L80.4496 228.932L82.0629 228.286Z" fill="#EB6D45"/>
<path d="M91.4203 223.115L91.743 222.576L94.862 222.792L97.8735 222.899L97.5508 224.3L97.0131 225.808L96.6904 228.394L96.2602 230.656L95.7224 232.703L95.0771 234.858L94.6469 236.043L94.2167 237.659L93.7865 238.736L93.4638 239.598L92.926 241.214L92.2807 242.183L91.8505 242.291L91.4203 241.645L91.3127 240.891L91.5279 240.136L91.743 239.059L92.1732 237.443L92.3883 233.888V229.471L92.1732 227.209L91.8505 225.162L91.3127 223.977L91.4203 223.115Z" fill="#EB6D45"/>
<path d="M83.7842 162.138L83.3538 160.63L82.8161 159.445L82.601 157.936L83.6765 158.475L84.9671 159.229L85.8276 160.091L86.2578 160.306L86.5804 160.091L92.8197 151.041L92.7113 155.135L92.1739 156.643L91.2058 158.798L90.1302 160.737L89.3776 162.362L88.302 164.077L87.4416 165.693L86.5812 166.555L85.6133 167.093L85.0755 166.555L84.6453 164.616L84.3226 163.323L83.7842 162.138Z" fill="#F51C5C"/>
<path d="M77.5459 171.295L78.1912 170.326L79.0517 169.464L79.9121 168.279L80.665 167.309L81.4178 166.555L82.0631 167.309L82.816 168.279L83.3538 169.464V170.649L82.816 171.295L81.9556 172.265L81.2027 172.803L80.8801 173.342L80.1272 173.881L79.8045 174.527L78.6214 174.635L77.9761 173.665L77.4384 172.803L77.3308 172.049L77.5459 171.295Z" fill="#F51C5C"/>
<path d="M136.593 79.9377V65.1783L139.927 90.4956L141.218 98.3601L137.883 105.039L133.904 112.581L127.343 115.274L126.805 114.843V107.733L135.41 99.6528L135.84 88.9873L136.593 79.9377Z" fill="#EB6D45"/>
<path d="M136.593 65.1784L136.378 63.7778L137.883 64.532L139.712 65.9325L141.54 67.5485L144.229 70.9959L146.38 75.413L148.208 80.4764L148.961 84.7857L149.714 89.095V93.5121L150.037 102.669L149.714 106.332L148.208 108.056L145.735 109.026L141.217 110.642L138.636 111.18L133.904 112.581L141.217 98.4678L139.389 86.6172L137.883 76.0594L136.593 65.1784Z" fill="#F51C5C"/>
<path d="M159.502 92.4348L161.653 89.526L164.449 86.6172L166.17 84.8935L167.891 82.4156L169.181 80.6919L171.225 78.3218L173.376 75.8439L174.559 70.1341L175.204 62.5928L174.774 57.3139L174.344 54.4051L173.268 47.0792L172.193 42.0158L170.042 35.1209L167.891 29.4111L165.847 24.4554L162.836 17.1295L161.437 14.5439L159.717 10.6656L158.318 6.14077L157.458 1.93919L157.781 0.969595L158.641 0.323198L160.039 0H162.836L167.568 0.323198L172.193 0.969595L177.57 2.15466L185.529 3.87838L192.413 6.14077L198.866 9.26502L204.459 12.1738L212.418 16.1599L218.871 20.0383L225.647 24.7786L232.1 29.6265L239.521 35.0132L245.437 39.9689L250.814 45.1401L255.869 49.5571L262 55.0515L266.302 59.0376L271.679 64.3165L276.304 68.949L277.595 70.1341H281.359L287.49 69.8109L293.835 69.3799L299.536 68.949L298.675 71.4269L297.17 73.6893L295.987 75.3053L294.051 76.0594L289.211 76.3826H284.048H280.069L277.81 76.0594L276.304 75.3053L270.604 70.1341L265.226 64.8552L260.171 59.5763L255.009 54.7283L249.416 49.7726L244.146 44.4937L238.983 39.9689L232.1 34.7977L224.464 29.6265L218.871 25.7481L212.418 22.193L204.459 17.9914L199.511 15.6213L192.951 13.0357L186.497 11.3119L180.582 10.2346L174.021 9.48049L167.568 9.04956L165.847 9.48049L164.664 10.4501L164.341 11.6351V13.0357L164.987 14.8671L167.138 19.7151L169.612 25.8559L172.193 31.1348L174.344 37.1678L176.602 42.9854L178.754 50.7422L180.152 56.8829L181.227 62.5928V70.1341V79.3991L180.582 81.877L178.861 84.0316L177.14 85.9708L174.559 88.6641L172.085 91.3574L168.966 95.7745L164.664 100.407L162.083 103.531L159.932 105.578L157.243 102.562V94.8049L159.502 92.4348Z" fill="#EB6D45"/>
<path d="M164.449 215.466L166.277 213.419L169.826 209.864L173.376 206.632L176.064 204.369L178.646 201.891L181.765 199.413L184.346 197.582L186.497 196.074L188.756 194.781L190.907 193.704L193.165 193.057H195.854L198.436 193.704L201.017 194.566L203.491 195.212L205.857 196.074L207.578 196.828L209.083 197.582L210.266 198.121L211.342 198.659L212.31 199.198L212.955 199.629L213.601 200.06L213.17 200.383L212.31 200.168L211.019 199.844L209.729 199.413L208.33 198.983L206.287 198.336L203.491 197.582L201.877 197.367L199.726 197.582L197.575 198.336L195.317 199.413L193.165 200.383L190.262 202.107L187.358 204.046L184.346 206.632L181.335 209.325L178.431 212.126L176.064 215.466L174.344 217.513L172.945 219.56L171.225 222.145L169.504 224.3L167.89 226.67L166.062 229.902L164.987 232.164L164.126 234.103L163.588 235.719L150.037 230.548L151.65 229.04L153.586 226.993L155.629 224.731L157.35 222.792L159.932 220.206L161.867 218.159L164.449 215.466Z" fill="#F51C5C"/>
<path d="M153.012 275.554L165.083 271.704L153.012 312.407L138.929 316.991L153.012 275.554Z" fill="#F51C5C"/>
<path d="M145.411 310.574L158.824 316.441L145.411 331.475L134.905 319.924L145.411 310.574Z" fill="#F51C5C"/>
<path d="M153.46 268.403L158.154 267.853L163.519 269.32L164.413 276.287L153.46 275.004L153.46 268.403Z" fill="#F51C5C"/>
<path d="M165.754 270.603C165.754 272.932 163.519 271.617 160.166 275.004C157.08 275.004 156.366 274.033 156.366 271.704C156.366 269.375 153.003 268.49 159.943 267.487C163.743 267.487 165.754 268.275 165.754 270.603Z" fill="#F51C5C"/>
<path d="M142.059 273.537L147.201 270.604L150.777 269.32L153.46 268.403L154.801 276.654L152.789 276.104L150.777 275.371L149.436 275.371L148.095 275.554L146.53 275.921L144.742 276.471L132 283.438L136.471 278.304L142.059 273.537Z" fill="#F51C5C"/>
<path d="M151.895 278.854L151.001 281.605L147.871 284.171L141.388 288.572L132 283.438L135.353 281.605L140.047 278.854L144.742 276.471L147.2 275.554L148.989 275.371L150.33 275.371L150.777 275.371L151.448 275.554L152.789 276.104L152.789 276.471L152.789 276.654L152.565 277.388L151.895 278.854Z" fill="black"/>
<path d="M178.942 303.973L172.907 306.907L169.107 308.924L165.753 311.124L158.601 316.808L151.224 313.141L156.589 307.64L159.942 304.89L165.977 301.223L174.695 297.006L176.036 298.473L177.154 299.94L178.495 302.14L178.942 303.973Z" fill="#F51C5C"/>
<path d="M169.107 291.139L170.896 292.789L172.907 294.989L174.249 296.456L174.919 297.189L165.307 301.589L158.378 293.155L159.495 292.422L160.836 292.422L163.519 292.239L169.107 291.139Z" fill="#F51C5C"/>
<path d="M183.861 281.605L169.107 291.506L164.413 292.239L158.601 292.972L159.273 290.956L161.285 289.855L165.085 286.922L170.448 282.705L183.861 281.605Z" fill="#F51C5C"/>
<path d="M169.985 267.864L171.562 268.773L173.13 270.054L175.356 272.627L184.059 281.622L177.214 282.271L169.914 282.926L166.336 279.626L162.993 275.952L165.363 271.272L169.985 267.864Z" fill="#F51C5C"/>
<path d="M163.518 276.654L167.094 280.321L170.224 282.888L165.977 286.372L162.997 288.755L161.283 290.039L159.272 290.955L159.494 290.222L159.941 288.939L160.5 287.197L161.506 283.621L163.518 276.654Z" fill="black"/>
<path d="M158.722 293.155L162.521 296.822L165.53 301.683L161.953 303.883L158.153 306.54L156.14 308.283L154.799 309.567L154.129 310.208L153.905 310.484L153.458 310.85L154.113 308.74L154.577 306.723L155.024 305.44L155.471 303.606L156.588 300.123L157.706 296.639L158.153 294.806L158.488 293.981L158.6 293.522L158.722 293.155Z" fill="black"/>
<path d="M190.343 285.088L175.813 298.289L169.331 291.322L183.661 281.377L190.343 285.088Z" fill="black"/>
<path d="M189.896 284.905L183.93 281.688L170.672 268.22L173.354 269.504L175.59 271.154L178.272 273.171L180.954 275.554L189.896 284.905Z" fill="black"/>
<path d="M169.107 316.441L166.759 317.999L164.412 319.558L161.506 321.941L159.495 323.958L157.706 325.792L154.801 329.459L145.412 331.292L154.801 320.841L156.589 318.824L158.153 317.174L159.271 316.074L161.059 314.424L163.518 312.407L167.989 309.474L178.942 303.79L187.213 306.173L169.107 316.441Z" fill="black"/>
<path d="M187.213 306.173L178.942 303.79L178.719 303.24L178.495 302.14L177.824 301.04L175.142 297.556L177.601 296.456L187.213 306.173Z" fill="black"/>
<path d="M197.743 278.437L200.042 278.437L201.967 278.437L201 283.493L189.152 293.394L191.388 293.761L190.494 295.961L190.047 297.978L182.276 296.915L184.682 289.361L197.743 278.437Z" fill="#F51C5C"/>
<path d="M189.272 302.049L194.347 305.166L184.287 306.633L180.04 303.333L189.272 302.049Z" fill="black"/>
<path d="M180.264 303.333L180.935 300.766L181.829 297.832L183.117 294.678L191.611 293.761L188.545 302.208L180.264 303.333Z" fill="#F51C5C"/>
<path d="M191.46 293.799L197.422 293.578L196.528 299.995L194.346 305.166L190.993 303.883L188.481 302.195L191.46 293.799Z" fill="black"/>
<path d="M200.329 284.043L198.988 289.544L196.529 289.544L193.623 289.544L200.329 284.043Z" fill="black"/>
<path d="M188.928 293.651L190.807 291.567L193.364 289.558L197.252 289.398L200.971 289.582L200.979 291.049L200.208 293.98L194.963 293.963L191.553 293.953L188.928 293.651Z" fill="#F51C5C"/>
<path d="M210.014 278.214L212.943 283.677L211.112 293.432L207.447 310.812L202.618 309.566L210.014 278.214Z" fill="black"/>
<path d="M204.332 302.944L202.905 309.404L198.989 303.898L195.667 303.898L196.2 301.153L196.508 298.176L197.317 293.269L198.989 290.571L198.52 289.926L199.731 286.098L201.519 278.397L206.661 278.397L210.144 278.204L204.332 302.944Z" fill="#F51C5C"/>
<path d="M195.706 303.882L197.271 303.882L199.04 303.882L202.84 309.383L202.617 309.566L198.817 304.616L196.358 304.616L195.706 303.882Z" fill="black"/>
<path d="M253.603 300.92L254.944 300.37L256.285 300.003L257.179 299.82L258.744 299.636L261.65 299.269L263.885 299.086L267.462 298.903L270.815 298.903L271.486 299.453L272.38 298.719L272.38 300.37L272.38 303.303L271.486 303.303L267.462 303.303L262.544 303.486L258.521 304.037L256.285 304.77L253.156 305.87L250.25 307.337L248.685 304.037L251.144 302.386L253.603 300.92Z" fill="black"/>
<path d="M253.603 278.001L257.85 278.001L260.98 278.001L266.791 278.001L265.227 278.734L264.556 279.101L263.885 279.468L263.215 279.834L262.544 280.201L262.321 280.384L261.874 280.751L261.65 281.118L261.427 281.484L261.203 283.868L261.091 284.601L261.091 285.247L261.091 286.618L261.091 288.085L260.98 289.368L260.756 291.935L260.756 294.319L260.756 295.236L263.662 295.236L266.791 295.236L267.686 295.052L268.356 294.502L269.474 293.585L270.592 292.669L271.933 291.202L271.933 293.035L271.933 295.419L271.933 297.436L271.933 298.902L271.933 299.636L271.933 300.172L271.486 299.636L270.815 298.902L268.356 298.902L267.686 298.902L263.885 299.086L261.65 299.269L257.179 299.819L256.285 300.003L255.667 300.172L255.305 300.27L254.944 300.369L254.497 300.553L254.102 300.722L253.379 301.103L252.485 301.653L251.144 302.386L248.685 304.036L253.156 295.602L253.379 294.869L253.603 293.402L253.603 291.018L253.603 278.001Z" fill="#F51C5C"/>
<path d="M271.932 291.202L272.827 290.102L272.603 297.986L271.932 300.186L271.932 291.202Z" fill="black"/>
<path d="M262.098 280.384L264.333 279.101L266.792 278.001L267.016 281.118L266.122 281.668L265.227 282.584L264.333 283.685L263.886 284.418L263.663 285.151L263.216 286.618L262.545 289.46L260.98 294.869L267.91 294.869L267.686 295.052L266.792 295.235L260.533 295.235L260.98 286.435L260.98 284.601L261.427 281.484L261.651 280.934L261.874 280.568L262.098 280.384Z" fill="black"/>
<path d="M212.176 279.101L234.082 277.634L233.635 281.668L218.658 282.585L209.493 290.285L212.176 279.101Z" fill="#F51C5C"/>
<path d="M229.388 281.301L226.705 293.769L224.246 305.899L221.117 309.72L215.528 305.899L219.552 281.301L229.388 281.301Z" fill="#F51C5C"/>
<path d="M221.117 309.72L217.812 312.47L215.528 313.753L213.293 314.67L208.822 316.137L202.787 316.137L209.94 312.47L211.952 311.187L214.187 308.986L215.081 307.52L215.528 305.319L216.646 306.236L221.117 309.72Z" fill="#F51C5C"/>
<path d="M217.987 290.652L219.552 282.401L218.658 282.584L217.987 283.134L216.646 284.051L214.411 286.068L209.493 290.102L214.411 293.585L215.976 292.118L217.987 290.652Z" fill="black"/>
<path d="M229.321 281.817L233.187 281.817L230.268 296.781L229.006 304.386L228.043 307.993L226.668 309.609L224.37 312.636L218.694 316.507L215.538 317.548L212.619 317.788L207.479 317.971L202.786 316.137L208.82 316.137L212.397 315.037L215.392 313.357L218.795 311.059L220.165 309.698L221.989 308.075L223.14 306.462L224.287 305.049L229.321 281.817Z" fill="black"/>
<path d="M234.082 277.634L255.989 276.167L255.542 280.201L240.565 281.118L231.4 288.818L234.082 277.634Z" fill="#F51C5C"/>
<path d="M251.294 279.834L248.612 292.302L246.153 304.433L243.024 308.253L237.435 304.433L241.459 279.834L251.294 279.834Z" fill="#F51C5C"/>
<path d="M243.024 308.253L239.719 311.004L237.435 312.287L235.2 313.204L230.729 314.671L224.694 314.671L231.847 311.004L233.859 309.72L236.094 307.52L236.988 306.053L237.435 303.853L238.553 304.77L243.024 308.253Z" fill="#F51C5C"/>
<path d="M239.894 289.185L241.459 280.934L240.565 281.118L239.894 281.668L238.553 282.584L236.318 284.601L231.4 288.635L236.318 292.118L237.883 290.652L239.894 289.185Z" fill="black"/>
<path d="M251.228 280.35L255.094 280.35L252.175 295.314L250.913 302.919L249.95 306.526L248.575 308.143L246.277 311.169L240.601 315.04L237.445 316.081L234.526 316.321L229.385 316.504L224.693 314.67L230.727 314.67L234.304 313.57L237.299 311.89L240.702 309.592L242.072 308.231L243.896 306.609L245.047 304.995L246.194 303.582L251.228 280.35Z" fill="black"/>
<path d="M270.146 278.383L280.652 278.383L280.652 300.385L272.604 300.385L271.934 279.85L270.146 278.383Z" fill="#F51C5C"/>
<path d="M294.441 278.474L290.487 283.136L280.183 283.211L280.133 278.471L294.441 278.474Z" fill="#F51C5C"/>
<path d="M290.508 286.45L290.557 291.011L280.253 291.085L280.205 286.524L290.508 286.45Z" fill="#F51C5C"/>
<path d="M294.239 295.824L289.992 300.385L280.652 300.385L280.603 295.824L294.239 295.824Z" fill="#F51C5C"/>
<path d="M280.652 283.15L290.487 283.15L290.487 286.817L280.652 286.817L280.652 283.15Z" fill="black"/>
<path d="M280.651 291.034L281.322 291.034L281.322 294.884L293.169 295.434L294.287 295.801L280.651 295.984L280.651 291.034Z" fill="black"/>
<path d="M272.604 300.385L289.593 300.385L289.593 304.051L272.604 304.051L272.604 300.385Z" fill="black"/>
<path d="M292.946 300.201L291.157 302.035L289.369 304.052L287.357 302.402L294.035 295.988L292.946 300.201Z" fill="black"/>
<path d="M270.146 278.383L271.934 279.666L272.604 300.385L271.487 280.216L270.146 278.383Z" fill="black"/>
<path d="M158.845 335.844L168.521 332.764L158.845 365.326L147.556 368.993L158.845 335.844Z" fill="#F51C5C"/>
<path d="M152.752 363.859L163.503 368.553L152.752 380.58L144.33 371.34L152.752 363.859Z" fill="#F51C5C"/>
<path d="M159.203 330.123L162.966 329.683L167.266 330.856L167.983 336.43L159.203 335.403L159.203 330.123Z" fill="#F51C5C"/>
<path d="M169.058 331.883C169.058 333.747 167.266 332.694 164.578 335.404C162.104 335.404 161.532 334.627 161.532 332.764C161.532 330.9 158.836 330.193 164.399 329.39C167.445 329.39 169.058 330.02 169.058 331.883Z" fill="#F51C5C"/>
<path d="M150.064 334.23L154.185 331.883L157.052 330.856L159.202 330.123L160.278 336.724L158.665 336.284L157.052 335.697L155.977 335.697L154.902 335.843L153.648 336.137L152.214 336.577L142 342.151L145.584 338.044L150.064 334.23Z" fill="#F51C5C"/>
<path d="M157.948 338.484L157.231 340.684L154.723 342.738L149.526 346.258L142 342.151L144.688 340.684L148.451 338.484L152.214 336.577L154.185 335.844L155.618 335.697L156.694 335.697L157.052 335.697L157.589 335.844L158.664 336.284L158.664 336.577L158.664 336.724L158.485 337.31L157.948 338.484Z" fill="black"/>
<path d="M179.63 358.579L174.791 360.925L171.745 362.539L169.057 364.299L163.324 368.846L157.41 365.912L161.711 361.512L164.399 359.312L169.237 356.378L176.225 353.005L177.3 354.178L178.196 355.352L179.271 357.112L179.63 358.579Z" fill="#F51C5C"/>
<path d="M171.745 348.311L173.179 349.631L174.792 351.391L175.867 352.565L176.405 353.151L168.7 356.672L163.145 349.925L164.04 349.338L165.116 349.338L167.266 349.191L171.745 348.311Z" fill="#F51C5C"/>
<path d="M183.572 340.684L171.745 348.605L167.982 349.191L163.323 349.778L163.862 348.165L165.474 347.285L168.52 344.938L172.82 341.564L183.572 340.684Z" fill="#F51C5C"/>
<path d="M172.451 329.692L173.714 330.419L174.972 331.443L176.756 333.502L183.732 340.698L178.245 341.217L172.393 341.741L169.525 339.101L166.846 336.162L168.746 332.418L172.451 329.692Z" fill="#F51C5C"/>
<path d="M167.265 336.724L170.132 339.657L172.641 341.711L169.236 344.498L166.847 346.404L165.473 347.431L163.861 348.165L164.04 347.578L164.398 346.551L164.846 345.158L165.652 342.298L167.265 336.724Z" fill="black"/>
<path d="M163.421 349.925L166.466 352.858L168.878 356.747L166.011 358.507L162.965 360.632L161.352 362.027L160.276 363.054L159.739 363.567L159.56 363.787L159.201 364.081L159.727 362.392L160.098 360.779L160.456 359.752L160.815 358.285L161.711 355.499L162.607 352.712L162.965 351.245L163.234 350.585L163.323 350.218L163.421 349.925Z" fill="black"/>
<path d="M188.769 343.471L177.121 354.031L171.925 348.458L183.412 340.502L188.769 343.471Z" fill="black"/>
<path d="M188.411 343.324L183.629 340.75L173.001 329.976L175.151 331.003L176.943 332.323L179.093 333.937L181.243 335.843L188.411 343.324Z" fill="black"/>
<path d="M171.746 368.553L169.864 369.8L167.983 371.046L165.653 372.953L164.041 374.567L162.607 376.033L160.278 378.967L152.752 380.434L160.278 372.073L161.711 370.46L162.965 369.14L163.861 368.259L165.295 366.939L167.266 365.326L170.85 362.979L179.63 358.432L186.26 360.339L171.746 368.553Z" fill="black"/>
<path d="M186.26 360.339L179.63 358.432L179.451 357.992L179.272 357.112L178.734 356.232L176.584 353.445L178.555 352.565L186.26 360.339Z" fill="black"/>
<path d="M181.71 369.617L183.761 368.781L185.812 368.223L187.179 367.945L189.572 367.666L194.015 367.109L197.433 366.83L202.901 366.551L208.028 366.551L209.053 367.387L210.42 366.273L210.42 368.781L210.42 373.24L209.053 373.24L202.901 373.24L195.382 373.518L189.23 374.355L185.812 375.469L181.027 377.141L176.584 379.371L174.191 374.355L177.951 371.846L181.71 369.617Z" fill="black"/>
<path d="M179.725 334.769L184.542 334.769L188.09 334.769L194.681 334.769L192.906 335.888L192.146 336.448L191.386 337.008L190.625 337.568L189.865 338.127L189.611 338.407L189.104 338.967L188.851 339.527L188.597 340.086L188.344 343.724L188.217 344.844L188.217 345.83L188.217 347.922L188.217 350.161L188.09 352.12L187.837 356.038L187.837 359.676L187.837 361.076L191.132 361.076L194.681 361.076L195.695 360.796L196.455 359.956L197.723 358.557L198.99 357.158L200.511 354.919L200.511 357.717L200.511 361.355L200.511 364.434L200.511 366.673L200.511 367.792L200.511 368.61L200.004 367.792L199.243 366.673L196.455 366.673L195.695 366.673L191.386 366.953L188.851 367.232L183.781 368.072L182.767 368.352L182.066 368.61L181.656 368.761L181.246 368.912L180.739 369.191L180.291 369.45L179.472 370.031L178.458 370.871L176.937 371.99L174.149 374.509L179.219 361.635L179.472 360.516L179.725 358.277L179.725 354.639L179.725 334.769Z" fill="#F51C5C"/>
<path d="M209.737 354.846L211.104 353.174L210.762 365.158L209.737 368.502L209.737 354.846Z" fill="black"/>
<path d="M190.245 337.755L193.175 335.611L194.553 334.807L196.206 334.807L197.396 335.254L197.573 339.813L196.206 340.649L194.838 342.042L193.471 343.714L192.788 344.829L192.446 345.944L191.762 348.173L190.737 352.493L188.344 360.714L195.673 360.805L194.639 361.073L192.788 361.073L187.833 361.073L187.833 358.035L187.833 353.836L188.178 347.851L188.178 344.902L188.609 339.813L189.039 338.977L189.556 338.291L190.245 337.755Z" fill="black"/>
<path d="M217.116 334.786L219.61 334.74L221.698 334.701L221.301 341.696L209.724 355.592L212.196 356.053L211.509 359.106L211.284 361.897L202.718 360.588L204.355 350.118L217.116 334.786Z" fill="#F51C5C"/>
<path d="M210.969 367.529L216.875 371.726L206.152 373.953L201.12 369.486L210.969 367.529Z" fill="black"/>
<path d="M201.362 369.481L201.759 365.927L202.351 361.862L203.342 357.485L212.438 356.049L210.2 367.762L201.362 369.481Z" fill="#F51C5C"/>
<path d="M212.28 356.104L218.72 355.679L218.576 364.549L216.876 371.727L213.073 370.024L210.13 367.746L212.28 356.104Z" fill="black"/>
<path d="M220.644 342.468L219.897 350.083L217.23 350.133L214.078 350.191L220.644 342.468Z" fill="black"/>
<path d="M209.514 355.951L211.283 353.038L213.798 350.215L217.995 349.917L222.053 350.095L222.251 352.118L221.792 356.178L216.1 356.26L212.399 356.314L209.514 355.951Z" fill="#F51C5C"/>
<path d="M230.398 334.231L234.279 341.708L233.55 355.201L231.813 379.251L226.414 377.629L230.398 334.231Z" fill="black"/>
<path d="M227.42 368.459L226.704 377.4L221.747 369.884L218.143 369.951L218.368 366.153L218.319 362.041L218.564 355.255L220.031 351.5L219.438 350.619L220.259 345.314L221.207 334.656L226.785 334.552L230.539 334.215L227.42 368.459Z" fill="#F51C5C"/>
<path d="M218.185 369.928L219.883 369.897L221.802 369.861L226.633 377.372L226.414 377.63L221.654 370.877L218.987 370.927L218.185 369.928Z" fill="black"/>
<path d="M236.166 333.59L237.241 332.907L238.762 332.168L240.015 331.827L240.82 331.543L242.206 331.231L243.368 331.175L245.288 331.889L247.788 333.03L250.868 334.144L253.145 335.087L261.583 338.257L256.973 340.618L255.273 341.471L253.751 342.21L252.811 342.922L252.813 342.01L252.458 341.326L250.764 339.444L248.89 338.588L248.533 338.359L247.908 338.074L246.434 337.759L244.87 337.729L245.089 339.297L245.89 340.38L247.718 342.291L249.498 344.799L251.368 347.479L253.238 350.159L258.089 357.429L260.047 360.736L259.866 361.306L255.884 363.04L253.287 364.919L250.419 367.651L248.713 370.328L247.631 373.747L247.133 376.225L247.255 380.356L247.519 381.781L247.874 382.921L248.717 385.23L247.383 382.665L247.205 382.322L247.027 381.98L246.048 380.555L245.158 379.3L244.388 378.117L243.734 377.02L242.221 374.568L240.663 372.259L239.462 370.178L237.907 366.957L236.887 363.85L235.829 358.607L235.569 355.814L235.441 353.506L235.182 350.258L235.535 351.853L236.199 354.276L236.731 355.758L238.33 359.293L239.885 362.514L241.311 364.338L243.104 362.288L244.896 360.694L246.732 359.414L249.463 357.564L237.487 340.715L236.688 338.719L236.379 337.437L236.16 335.87L236.119 334.644L236.166 333.59Z" fill="#F51C5C"/>
<path d="M230.615 337.119L230.884 336.72L232.272 335.952L234.554 334.615L236.211 333.448L236.164 334.502L236.161 335.414L236.204 336.183L236.688 338.719L237.088 339.717L237.487 340.715L238.289 341.798L240.159 344.478L243.142 348.612L248.573 356.31L249.597 357.593L244.896 360.695L239.551 354.08L237.236 351L236.122 349.546L235.143 348.121L234.387 346.895L232.032 341.679L231.101 339.199L230.615 337.119Z" fill="black"/>
<path d="M233.79 352.393L235.181 350.257L235.568 355.814L235.961 359.091L236.711 362.596L237.641 365.988L238.44 367.983L240.574 372.088L241.642 373.684L242.799 375.452L243.733 377.02L244.49 378.246L245.157 379.3L245.558 379.842L246.047 380.555L246.448 381.097L246.938 381.809L248.716 385.23L246.269 381.21L245.423 380.269L243.952 378.587L242.705 377.104L240.567 374.367L238.565 371.203L237.23 369.093L236.254 366.3L235.768 364.219L234.841 360.372L233.79 352.393Z" fill="black"/>
<path d="M246.3 337.731L246.97 337.874L248.176 338.131L250.81 339.302L251.433 340.043L252.503 341.184L252.813 342.01L252.811 342.922L251.336 343.063L250.358 341.182L249.466 340.383L248.618 339.898L247.859 339.584L246.564 339.156L244.911 338.955L244.869 338.185L244.87 337.729L246.3 337.731Z" fill="black"/>
<path d="M243.737 359.383L244.896 360.694L241.31 364.338L239.974 362.685L239.53 361.829L243.737 359.383Z" fill="black"/>
<path d="M261.559 335.663L304.999 331.74L292.994 334.673L290.127 335.663L288.872 336.287L287.26 337.314L285.857 338.164L268.899 339.057L258.522 346.561L261.559 335.663Z" fill="#F51C5C"/>
<path d="M281.049 337.807L278.012 349.956L275.227 361.777L271.684 365.5L265.356 361.777L269.912 337.807L281.049 337.807Z" fill="#F51C5C"/>
<path d="M271.684 365.5L267.943 368.18L265.356 369.43L262.825 370.324L257.763 371.753L250.929 371.753L259.029 368.18L261.307 366.929L263.838 364.785L264.85 363.356L265.356 361.212L266.622 362.105L271.684 365.5Z" fill="#F51C5C"/>
<path d="M268.141 346.919L269.912 338.879L268.9 339.057L268.14 339.593L266.622 340.487L264.091 342.452L258.523 346.383L264.091 349.777L265.863 348.348L268.141 346.919Z" fill="black"/>
<path d="M280.973 338.309L285.351 338.309L282.045 352.891L280.617 360.302L279.525 363.817L277.969 365.392L275.367 368.341L268.94 372.113L265.366 373.128L262.061 373.361L256.241 373.54L250.928 371.753L257.76 371.753L261.81 370.681L265.202 369.043L269.055 366.805L270.606 365.478L272.671 363.897L273.974 362.325L275.273 360.948L280.973 338.309Z" fill="black"/>
<path d="M285.827 338.047L286.902 337.46L287.619 337.02L289.948 335.554L292.994 334.673L305 331.74L289.948 336.58L288.694 338.34L286.902 339.514L285.11 340.101L284.572 340.101L283.139 338.34L285.827 338.047Z" fill="black"/>
</svg>
