<svg width="169" height="163" viewBox="0 0 169 163" fill="none" xmlns="http://www.w3.org/2000/svg">
<g filter="url(#filter0_d_153_2012)">
<mask id="path-1-outside-1_153_2012" maskUnits="userSpaceOnUse" x="4.64307" y="0.66333" width="160" height="154" fill="black">
<rect fill="white" x="4.64307" y="0.66333" width="160" height="154"/>
<path d="M163.096 77.5955C163.096 119.532 127.849 153.528 84.3694 153.528C40.8901 153.528 5.64307 119.532 5.64307 77.5955C5.64307 35.6593 40.8901 1.66333 84.3694 1.66333C127.849 1.66333 163.096 35.6593 163.096 77.5955ZM44.3628 77.5955C44.3628 98.9063 62.2744 116.182 84.3694 116.182C106.465 116.182 124.376 98.9063 124.376 77.5955C124.376 56.2846 106.465 39.0088 84.3694 39.0088C62.2744 39.0088 44.3628 56.2846 44.3628 77.5955Z"/>
</mask>
<path d="M163.096 77.5955C163.096 119.532 127.849 153.528 84.3694 153.528C40.8901 153.528 5.64307 119.532 5.64307 77.5955C5.64307 35.6593 40.8901 1.66333 84.3694 1.66333C127.849 1.66333 163.096 35.6593 163.096 77.5955ZM44.3628 77.5955C44.3628 98.9063 62.2744 116.182 84.3694 116.182C106.465 116.182 124.376 98.9063 124.376 77.5955C124.376 56.2846 106.465 39.0088 84.3694 39.0088C62.2744 39.0088 44.3628 56.2846 44.3628 77.5955Z" fill="#F7464A"/>
<path d="M163.096 77.5955C163.096 119.532 127.849 153.528 84.3694 153.528C40.8901 153.528 5.64307 119.532 5.64307 77.5955C5.64307 35.6593 40.8901 1.66333 84.3694 1.66333C127.849 1.66333 163.096 35.6593 163.096 77.5955ZM44.3628 77.5955C44.3628 98.9063 62.2744 116.182 84.3694 116.182C106.465 116.182 124.376 98.9063 124.376 77.5955C124.376 56.2846 106.465 39.0088 84.3694 39.0088C62.2744 39.0088 44.3628 56.2846 44.3628 77.5955Z" stroke="white" stroke-width="2" mask="url(#path-1-outside-1_153_2012)"/>
<mask id="path-2-inside-2_153_2012" fill="white">
<path d="M39.956 14.9004C25.2948 24.5623 14.4507 38.7209 9.18471 55.0768L46.1626 66.1521C48.8386 57.8404 54.3493 50.6454 61.7997 45.7355L39.956 14.9004Z"/>
</mask>
<path d="M39.956 14.9004C25.2948 24.5623 14.4507 38.7209 9.18471 55.0768L46.1626 66.1521C48.8386 57.8404 54.3493 50.6454 61.7997 45.7355L39.956 14.9004Z" fill="#1A1006"/>
<path d="M39.956 14.9004C25.2948 24.5623 14.4507 38.7209 9.18471 55.0768L46.1626 66.1521C48.8386 57.8404 54.3493 50.6454 61.7997 45.7355L39.956 14.9004Z" fill="#46BFBD"/>
<path d="M39.956 14.9004C25.2948 24.5623 14.4507 38.7209 9.18471 55.0768L46.1626 66.1521C48.8386 57.8404 54.3493 50.6454 61.7997 45.7355L39.956 14.9004Z" stroke="white" stroke-width="2" mask="url(#path-2-inside-2_153_2012)"/>
<path d="M84.869 1.66333V1.16333H84.369C68.421 1.16333 52.9593 6.03899 39.7972 14.7111L39.365 14.9959L39.6645 15.418L61.288 45.8921L61.5675 46.286L61.9709 46.0203C68.5318 41.6975 76.4063 39.5088 84.369 39.5088H84.869V39.0088V1.66333Z" fill="#1A1006"/>
<path d="M84.869 1.66333V1.16333H84.369C68.421 1.16333 52.9593 6.03899 39.7972 14.7111L39.365 14.9959L39.6645 15.418L61.288 45.8921L61.5675 46.286L61.9709 46.0203C68.5318 41.6975 76.4063 39.5088 84.369 39.5088H84.869V39.0088V1.66333Z" fill="#FDB45C"/>
<path d="M84.869 1.66333V1.16333H84.369C68.421 1.16333 52.9593 6.03899 39.7972 14.7111L39.365 14.9959L39.6645 15.418L61.288 45.8921L61.5675 46.286L61.9709 46.0203C68.5318 41.6975 76.4063 39.5088 84.369 39.5088H84.869V39.0088V1.66333Z" stroke="white"/>
<mask id="path-4-outside-3_153_2012" maskUnits="userSpaceOnUse" x="4.64307" y="53.6633" width="45" height="58" fill="black">
<rect fill="white" x="4.64307" y="53.6633" width="45" height="58"/>
<path d="M9.2058 55.0114C3.32521 73.2184 4.76284 92.8929 13.2329 110.124L48.2198 94.1258C43.9155 85.3692 43.1849 75.3711 46.1733 66.1189L9.2058 55.0114Z"/>
</mask>
<path d="M9.2058 55.0114C3.32521 73.2184 4.76284 92.8929 13.2329 110.124L48.2198 94.1258C43.9155 85.3692 43.1849 75.3711 46.1733 66.1189L9.2058 55.0114Z" fill="#1A1006"/>
<path d="M9.2058 55.0114C3.32521 73.2184 4.76284 92.8929 13.2329 110.124L48.2198 94.1258C43.9155 85.3692 43.1849 75.3711 46.1733 66.1189L9.2058 55.0114Z" fill="#09FF12"/>
<path d="M9.2058 55.0114C3.32521 73.2184 4.76284 92.8929 13.2329 110.124L48.2198 94.1258C43.9155 85.3692 43.1849 75.3711 46.1733 66.1189L9.2058 55.0114Z" stroke="white" stroke-width="2" mask="url(#path-4-outside-3_153_2012)"/>
<g filter="url(#filter1_d_153_2012)">
<mask id="path-5-outside-4_153_2012" maskUnits="userSpaceOnUse" x="11.6431" y="92.6633" width="75" height="62" fill="black">
<rect fill="white" x="11.6431" y="92.6633" width="75" height="62"/>
<path d="M13.2265 110.111C19.6434 123.172 29.7918 134.195 42.4793 141.886C55.1668 149.576 69.8664 153.615 84.8511 153.526L84.6142 116.181C76.9994 116.226 69.5294 114.174 63.082 110.266C56.6345 106.358 51.4774 100.756 48.2165 94.1192L13.2265 110.111Z"/>
</mask>
<path d="M13.2265 110.111C19.6434 123.172 29.7918 134.195 42.4793 141.886C55.1668 149.576 69.8664 153.615 84.8511 153.526L84.6142 116.181C76.9994 116.226 69.5294 114.174 63.082 110.266C56.6345 106.358 51.4774 100.756 48.2165 94.1192L13.2265 110.111Z" fill="#1A1006"/>
<path d="M13.2265 110.111C19.6434 123.172 29.7918 134.195 42.4793 141.886C55.1668 149.576 69.8664 153.615 84.8511 153.526L84.6142 116.181C76.9994 116.226 69.5294 114.174 63.082 110.266C56.6345 106.358 51.4774 100.756 48.2165 94.1192L13.2265 110.111Z" fill="#D488EE"/>
<path d="M13.2265 110.111C19.6434 123.172 29.7918 134.195 42.4793 141.886C55.1668 149.576 69.8664 153.615 84.8511 153.526L84.6142 116.181C76.9994 116.226 69.5294 114.174 63.082 110.266C56.6345 106.358 51.4774 100.756 48.2165 94.1192L13.2265 110.111Z" stroke="white" stroke-width="2" mask="url(#path-5-outside-4_153_2012)"/>
</g>
</g>
<defs>
<filter id="filter0_d_153_2012" x="0.643066" y="0.66333" width="167.453" height="161.864" filterUnits="userSpaceOnUse" color-interpolation-filters="sRGB">
<feFlood flood-opacity="0" result="BackgroundImageFix"/>
<feColorMatrix in="SourceAlpha" type="matrix" values="0 0 0 0 0 0 0 0 0 0 0 0 0 0 0 0 0 0 127 0" result="hardAlpha"/>
<feOffset dy="4"/>
<feGaussianBlur stdDeviation="2"/>
<feComposite in2="hardAlpha" operator="out"/>
<feColorMatrix type="matrix" values="0 0 0 0 0 0 0 0 0 0 0 0 0 0 0 0 0 0 0.25 0"/>
<feBlend mode="normal" in2="BackgroundImageFix" result="effect1_dropShadow_153_2012"/>
<feBlend mode="normal" in="SourceGraphic" in2="effect1_dropShadow_153_2012" result="shape"/>
</filter>
<filter id="filter1_d_153_2012" x="11.8755" y="92.8055" width="73.9819" height="62.7222" filterUnits="userSpaceOnUse" color-interpolation-filters="sRGB">
<feFlood flood-opacity="0" result="BackgroundImageFix"/>
<feColorMatrix in="SourceAlpha" type="matrix" values="0 0 0 0 0 0 0 0 0 0 0 0 0 0 0 0 0 0 127 0" result="hardAlpha"/>
<feMorphology radius="7" operator="erode" in="SourceAlpha" result="effect1_dropShadow_153_2012"/>
<feOffset dy="4"/>
<feGaussianBlur stdDeviation="2"/>
<feComposite in2="hardAlpha" operator="out"/>
<feColorMatrix type="matrix" values="0 0 0 0 0 0 0 0 0 0 0 0 0 0 0 0 0 0 0.25 0"/>
<feBlend mode="normal" in2="BackgroundImageFix" result="effect1_dropShadow_153_2012"/>
<feBlend mode="normal" in="SourceGraphic" in2="effect1_dropShadow_153_2012" result="shape"/>
</filter>
</defs>
</svg>
