<svg width="1429" height="856" viewBox="0 0 1429 856" fill="none" xmlns="http://www.w3.org/2000/svg">
<g filter="url(#filter0_d_326_47)">
<mask id="path-1-outside-1_326_47" maskUnits="userSpaceOnUse" x="413" y="135.794" width="602" height="576" fill="black">
<rect fill="white" x="413" y="135.794" width="602" height="576"/>
<path d="M1014 423.378C1014 581.653 879.685 709.961 714 709.961C548.315 709.961 414 581.653 414 423.378C414 265.102 548.315 136.794 714 136.794C879.685 136.794 1014 265.102 1014 423.378ZM561.548 423.378C561.548 503.809 629.803 569.012 714 569.012C798.197 569.012 866.452 503.809 866.452 423.378C866.452 342.946 798.197 277.744 714 277.744C629.803 277.744 561.548 342.946 561.548 423.378Z"/>
</mask>
<path d="M1014 423.378C1014 581.653 879.685 709.961 714 709.961C548.315 709.961 414 581.653 414 423.378C414 265.102 548.315 136.794 714 136.794C879.685 136.794 1014 265.102 1014 423.378ZM561.548 423.378C561.548 503.809 629.803 569.012 714 569.012C798.197 569.012 866.452 503.809 866.452 423.378C866.452 342.946 798.197 277.744 714 277.744C629.803 277.744 561.548 342.946 561.548 423.378Z" fill="#F7464A"/>
<path d="M1014 423.378C1014 581.653 879.685 709.961 714 709.961C548.315 709.961 414 581.653 414 423.378C414 265.102 548.315 136.794 714 136.794C879.685 136.794 1014 265.102 1014 423.378ZM561.548 423.378C561.548 503.809 629.803 569.012 714 569.012C798.197 569.012 866.452 503.809 866.452 423.378C866.452 342.946 798.197 277.744 714 277.744C629.803 277.744 561.548 342.946 561.548 423.378Z" stroke="white" stroke-width="2" mask="url(#path-1-outside-1_326_47)"/>
<mask id="path-2-inside-2_326_47" fill="white">
<path d="M544.755 186.754C488.886 223.22 447.563 276.657 427.496 338.388L568.406 380.188C578.604 348.818 599.603 321.663 627.994 303.132L544.755 186.754Z"/>
</mask>
<path d="M544.755 186.754C488.886 223.22 447.563 276.657 427.496 338.388L568.406 380.188C578.604 348.818 599.603 321.663 627.994 303.132L544.755 186.754Z" fill="#1A1006"/>
<path d="M544.755 186.754C488.886 223.22 447.563 276.657 427.496 338.388L568.406 380.188C578.604 348.818 599.603 321.663 627.994 303.132L544.755 186.754Z" fill="#46BFBD"/>
<path d="M544.755 186.754C488.886 223.22 447.563 276.657 427.496 338.388L568.406 380.188C578.604 348.818 599.603 321.663 627.994 303.132L544.755 186.754Z" stroke="white" stroke-width="2" mask="url(#path-2-inside-2_326_47)"/>
<path d="M714.5 136.794V136.294H714C653.516 136.294 594.865 154.609 544.927 187.196L544.49 187.482L544.794 187.906L627.194 302.922L627.473 303.311L627.873 303.049C653.123 286.572 683.404 278.244 714 278.244H714.5V277.744V136.794Z" fill="#1A1006"/>
<path d="M714.5 136.794V136.294H714C653.516 136.294 594.865 154.609 544.927 187.196L544.49 187.482L544.794 187.906L627.194 302.922L627.473 303.311L627.873 303.049C653.123 286.572 683.404 278.244 714 278.244H714.5V277.744V136.794Z" fill="#FDB45C"/>
<path d="M714.5 136.794V136.294H714C653.516 136.294 594.865 154.609 544.927 187.196L544.49 187.482L544.794 187.906L627.194 302.922L627.473 303.311L627.873 303.049C653.123 286.572 683.404 278.244 714 278.244H714.5V277.744V136.794Z" stroke="white"/>
<mask id="path-4-outside-3_326_47" maskUnits="userSpaceOnUse" x="412" y="336.794" width="166" height="211" fill="black">
<rect fill="white" x="412" y="336.794" width="166" height="211"/>
<path d="M427.576 338.141C405.167 406.857 410.646 481.113 442.922 546.148L576.246 485.766C559.843 452.717 557.06 414.982 568.447 380.062L427.576 338.141Z"/>
</mask>
<path d="M427.576 338.141C405.167 406.857 410.646 481.113 442.922 546.148L576.246 485.766C559.843 452.717 557.06 414.982 568.447 380.062L427.576 338.141Z" fill="#1A1006"/>
<path d="M427.576 338.141C405.167 406.857 410.646 481.113 442.922 546.148L576.246 485.766C559.843 452.717 557.06 414.982 568.447 380.062L427.576 338.141Z" fill="#09FF12"/>
<path d="M427.576 338.141C405.167 406.857 410.646 481.113 442.922 546.148L576.246 485.766C559.843 452.717 557.06 414.982 568.447 380.062L427.576 338.141Z" stroke="white" stroke-width="2" mask="url(#path-4-outside-3_326_47)"/>
<g filter="url(#filter1_d_326_47)">
<mask id="path-5-outside-4_326_47" maskUnits="userSpaceOnUse" x="441" y="483.794" width="276" height="228" fill="black">
<rect fill="white" x="441" y="483.794" width="276" height="228"/>
<path d="M442.898 546.099C467.351 595.394 506.023 636.997 554.371 666.023C602.718 695.048 658.734 710.289 715.835 709.955L714.933 569.009C685.915 569.178 657.45 561.433 632.881 546.683C608.312 531.933 588.659 510.791 576.233 485.741L442.898 546.099Z"/>
</mask>
<path d="M442.898 546.099C467.351 595.394 506.023 636.997 554.371 666.023C602.718 695.048 658.734 710.289 715.835 709.955L714.933 569.009C685.915 569.178 657.45 561.433 632.881 546.683C608.312 531.933 588.659 510.791 576.233 485.741L442.898 546.099Z" fill="#1A1006"/>
<path d="M442.898 546.099C467.351 595.394 506.023 636.997 554.371 666.023C602.718 695.048 658.734 710.289 715.835 709.955L714.933 569.009C685.915 569.178 657.45 561.433 632.881 546.683C608.312 531.933 588.659 510.791 576.233 485.741L442.898 546.099Z" fill="#D488EE"/>
<path d="M442.898 546.099C467.351 595.394 506.023 636.997 554.371 666.023C602.718 695.048 658.734 710.289 715.835 709.955L714.933 569.009C685.915 569.178 657.45 561.433 632.881 546.683C608.312 531.933 588.659 510.791 576.233 485.741L442.898 546.099Z" stroke="white" stroke-width="2" mask="url(#path-5-outside-4_326_47)"/>
</g>
</g>
<path d="M257.304 152.118C260.116 152.118 262.573 152.676 264.676 153.79C266.779 154.905 268.4 156.476 269.54 158.502C270.705 160.504 271.288 162.822 271.288 165.456C271.288 168.066 270.705 170.384 269.54 172.41C268.4 174.437 266.766 176.008 264.638 177.122C262.535 178.237 260.091 178.794 257.304 178.794H247.31V152.118H257.304ZM256.886 173.17C259.343 173.17 261.256 172.499 262.624 171.156C263.992 169.814 264.676 167.914 264.676 165.456C264.676 162.999 263.992 161.086 262.624 159.718C261.256 158.35 259.343 157.666 256.886 157.666H253.808V173.17H256.886ZM294.907 167.85C294.907 168.458 294.869 169.092 294.793 169.75H280.087C280.189 171.068 280.607 172.081 281.341 172.79C282.101 173.474 283.026 173.816 284.115 173.816C285.737 173.816 286.864 173.132 287.497 171.764H294.413C294.059 173.158 293.413 174.412 292.475 175.526C291.563 176.641 290.411 177.515 289.017 178.148C287.624 178.782 286.066 179.098 284.343 179.098C282.266 179.098 280.417 178.655 278.795 177.768C277.174 176.882 275.907 175.615 274.995 173.968C274.083 172.322 273.627 170.396 273.627 168.192C273.627 165.988 274.071 164.063 274.957 162.416C275.869 160.77 277.136 159.503 278.757 158.616C280.379 157.73 282.241 157.286 284.343 157.286C286.395 157.286 288.219 157.717 289.815 158.578C291.411 159.44 292.653 160.668 293.539 162.264C294.451 163.86 294.907 165.722 294.907 167.85ZM288.257 166.14C288.257 165.026 287.877 164.139 287.117 163.48C286.357 162.822 285.407 162.492 284.267 162.492C283.178 162.492 282.253 162.809 281.493 163.442C280.759 164.076 280.303 164.975 280.125 166.14H288.257ZM307.873 172.714L312.471 157.59H319.387L311.863 178.794H303.845L296.321 157.59H303.275L307.873 172.714ZM342.111 167.85C342.111 168.458 342.073 169.092 341.997 169.75H327.291C327.392 171.068 327.81 172.081 328.545 172.79C329.305 173.474 330.229 173.816 331.319 173.816C332.94 173.816 334.067 173.132 334.701 171.764H341.617C341.262 173.158 340.616 174.412 339.679 175.526C338.767 176.641 337.614 177.515 336.221 178.148C334.827 178.782 333.269 179.098 331.547 179.098C329.469 179.098 327.62 178.655 325.999 177.768C324.377 176.882 323.111 175.615 322.199 173.968C321.287 172.322 320.831 170.396 320.831 168.192C320.831 165.988 321.274 164.063 322.161 162.416C323.073 160.77 324.339 159.503 325.961 158.616C327.582 157.73 329.444 157.286 331.547 157.286C333.599 157.286 335.423 157.717 337.019 158.578C338.615 159.44 339.856 160.668 340.743 162.264C341.655 163.86 342.111 165.722 342.111 167.85ZM335.461 166.14C335.461 165.026 335.081 164.139 334.321 163.48C333.561 162.822 332.611 162.492 331.471 162.492C330.381 162.492 329.457 162.809 328.697 163.442C327.962 164.076 327.506 164.975 327.329 166.14H335.461ZM352.037 150.674V178.794H345.539V150.674H352.037ZM366.398 179.098C364.32 179.098 362.446 178.655 360.774 177.768C359.127 176.882 357.822 175.615 356.86 173.968C355.922 172.322 355.454 170.396 355.454 168.192C355.454 166.014 355.935 164.101 356.898 162.454C357.86 160.782 359.178 159.503 360.85 158.616C362.522 157.73 364.396 157.286 366.474 157.286C368.551 157.286 370.426 157.73 372.098 158.616C373.77 159.503 375.087 160.782 376.05 162.454C377.012 164.101 377.494 166.014 377.494 168.192C377.494 170.371 377 172.296 376.012 173.968C375.049 175.615 373.719 176.882 372.022 177.768C370.35 178.655 368.475 179.098 366.398 179.098ZM366.398 173.474C367.639 173.474 368.69 173.018 369.552 172.106C370.438 171.194 370.882 169.89 370.882 168.192C370.882 166.495 370.451 165.19 369.59 164.278C368.754 163.366 367.715 162.91 366.474 162.91C365.207 162.91 364.156 163.366 363.32 164.278C362.484 165.165 362.066 166.47 362.066 168.192C362.066 169.89 362.471 171.194 363.282 172.106C364.118 173.018 365.156 173.474 366.398 173.474ZM387.439 160.592C388.072 159.604 388.946 158.806 390.061 158.198C391.176 157.59 392.48 157.286 393.975 157.286C395.723 157.286 397.306 157.73 398.725 158.616C400.144 159.503 401.258 160.77 402.069 162.416C402.905 164.063 403.323 165.976 403.323 168.154C403.323 170.333 402.905 172.258 402.069 173.93C401.258 175.577 400.144 176.856 398.725 177.768C397.306 178.655 395.723 179.098 393.975 179.098C392.506 179.098 391.201 178.794 390.061 178.186C388.946 177.578 388.072 176.793 387.439 175.83V188.902H380.941V157.59H387.439V160.592ZM396.711 168.154C396.711 166.533 396.255 165.266 395.343 164.354C394.456 163.417 393.354 162.948 392.037 162.948C390.745 162.948 389.643 163.417 388.731 164.354C387.844 165.292 387.401 166.571 387.401 168.192C387.401 169.814 387.844 171.093 388.731 172.03C389.643 172.968 390.745 173.436 392.037 173.436C393.329 173.436 394.431 172.968 395.343 172.03C396.255 171.068 396.711 169.776 396.711 168.154ZM426.72 167.85C426.72 168.458 426.682 169.092 426.606 169.75H411.9C412.001 171.068 412.419 172.081 413.154 172.79C413.914 173.474 414.839 173.816 415.928 173.816C417.549 173.816 418.677 173.132 419.31 171.764H426.226C425.871 173.158 425.225 174.412 424.288 175.526C423.376 176.641 422.223 177.515 420.83 178.148C419.437 178.782 417.879 179.098 416.156 179.098C414.079 179.098 412.229 178.655 410.608 177.768C408.987 176.882 407.72 175.615 406.808 173.968C405.896 172.322 405.44 170.396 405.44 168.192C405.44 165.988 405.883 164.063 406.77 162.416C407.682 160.77 408.949 159.503 410.57 158.616C412.191 157.73 414.053 157.286 416.156 157.286C418.208 157.286 420.032 157.717 421.628 158.578C423.224 159.44 424.465 160.668 425.352 162.264C426.264 163.86 426.72 165.722 426.72 167.85ZM420.07 166.14C420.07 165.026 419.69 164.139 418.93 163.48C418.17 162.822 417.22 162.492 416.08 162.492C414.991 162.492 414.066 162.809 413.306 163.442C412.571 164.076 412.115 164.975 411.938 166.14H420.07ZM436.646 161.124C437.406 159.959 438.356 159.047 439.496 158.388C440.636 157.704 441.903 157.362 443.296 157.362V164.24H441.51C439.889 164.24 438.673 164.595 437.862 165.304C437.051 165.988 436.646 167.204 436.646 168.952V178.794H430.148V157.59H436.646V161.124ZM309.456 214.096V208.054H319.982V235.794H313.218V214.096H309.456ZM324.427 221.544C324.427 217.187 325.263 213.754 326.935 211.246C328.632 208.738 331.355 207.484 335.105 207.484C338.854 207.484 341.565 208.738 343.237 211.246C344.934 213.754 345.783 217.187 345.783 221.544C345.783 225.952 344.934 229.41 343.237 231.918C341.565 234.426 338.854 235.68 335.105 235.68C331.355 235.68 328.632 234.426 326.935 231.918C325.263 229.41 324.427 225.952 324.427 221.544ZM339.399 221.544C339.399 218.986 339.12 217.022 338.563 215.654C338.005 214.261 336.853 213.564 335.105 213.564C333.357 213.564 332.204 214.261 331.647 215.654C331.089 217.022 330.811 218.986 330.811 221.544C330.811 223.267 330.912 224.698 331.115 225.838C331.317 226.953 331.723 227.865 332.331 228.574C332.964 229.258 333.889 229.6 335.105 229.6C336.321 229.6 337.233 229.258 337.841 228.574C338.474 227.865 338.892 226.953 339.095 225.838C339.297 224.698 339.399 223.267 339.399 221.544ZM348.684 215.046C348.684 212.994 349.267 211.411 350.432 210.296C351.623 209.182 353.155 208.624 355.03 208.624C356.905 208.624 358.425 209.182 359.59 210.296C360.755 211.411 361.338 212.994 361.338 215.046C361.338 217.098 360.755 218.682 359.59 219.796C358.425 220.911 356.905 221.468 355.03 221.468C353.155 221.468 351.623 220.911 350.432 219.796C349.267 218.682 348.684 217.098 348.684 215.046ZM374.486 209.042L359.856 235.794H353.586L368.216 209.042H374.486ZM354.992 212.424C353.776 212.424 353.168 213.298 353.168 215.046C353.168 216.769 353.776 217.63 354.992 217.63C355.575 217.63 356.031 217.415 356.36 216.984C356.689 216.554 356.854 215.908 356.854 215.046C356.854 213.298 356.233 212.424 354.992 212.424ZM366.772 229.79C366.772 227.738 367.355 226.155 368.52 225.04C369.685 223.926 371.205 223.368 373.08 223.368C374.955 223.368 376.475 223.926 377.64 225.04C378.805 226.155 379.388 227.738 379.388 229.79C379.388 231.842 378.805 233.426 377.64 234.54C376.475 235.655 374.955 236.212 373.08 236.212C371.205 236.212 369.685 235.655 368.52 234.54C367.355 233.426 366.772 231.842 366.772 229.79ZM373.042 227.168C372.459 227.168 372.003 227.384 371.674 227.814C371.37 228.245 371.218 228.904 371.218 229.79C371.218 231.513 371.826 232.374 373.042 232.374C373.625 232.374 374.081 232.159 374.41 231.728C374.739 231.298 374.904 230.652 374.904 229.79C374.904 228.929 374.739 228.283 374.41 227.852C374.081 227.396 373.625 227.168 373.042 227.168Z" fill="white"/>
<path d="M68.6417 438.701V443.907H61.5737V465.377H55.0757V443.907H48.0077V438.701H68.6417ZM91.8909 454.433C91.8909 455.041 91.8529 455.675 91.7769 456.333H77.0709C77.1722 457.651 77.5902 458.664 78.3249 459.373C79.0849 460.057 80.0095 460.399 81.0989 460.399C82.7202 460.399 83.8475 459.715 84.4809 458.347H91.3969C91.0422 459.741 90.3962 460.995 89.4589 462.109C88.5469 463.224 87.3942 464.098 86.0009 464.731C84.6075 465.365 83.0495 465.681 81.3269 465.681C79.2495 465.681 77.4002 465.238 75.7789 464.351C74.1575 463.465 72.8909 462.198 71.9789 460.551C71.0669 458.905 70.6109 456.979 70.6109 454.775C70.6109 452.571 71.0542 450.646 71.9409 448.999C72.8529 447.353 74.1195 446.086 75.7409 445.199C77.3622 444.313 79.2242 443.869 81.3269 443.869C83.3789 443.869 85.2029 444.3 86.7989 445.161C88.3949 446.023 89.6362 447.251 90.5229 448.847C91.4349 450.443 91.8909 452.305 91.8909 454.433ZM85.2409 452.723C85.2409 451.609 84.8609 450.722 84.1009 450.063C83.3409 449.405 82.3909 449.075 81.2509 449.075C80.1615 449.075 79.2369 449.392 78.4769 450.025C77.7422 450.659 77.2862 451.558 77.1089 452.723H85.2409ZM94.0269 454.737C94.0269 452.559 94.4322 450.646 95.2429 448.999C96.0789 447.353 97.2062 446.086 98.6249 445.199C100.044 444.313 101.627 443.869 103.375 443.869C104.87 443.869 106.174 444.173 107.289 444.781C108.429 445.389 109.303 446.187 109.911 447.175V444.173H116.409V465.377H109.911V462.375C109.278 463.363 108.391 464.161 107.251 464.769C106.136 465.377 104.832 465.681 103.337 465.681C101.614 465.681 100.044 465.238 98.6249 464.351C97.2062 463.439 96.0789 462.16 95.2429 460.513C94.4322 458.841 94.0269 456.916 94.0269 454.737ZM109.911 454.775C109.911 453.154 109.455 451.875 108.543 450.937C107.656 450 106.567 449.531 105.275 449.531C103.983 449.531 102.881 450 101.969 450.937C101.082 451.849 100.639 453.116 100.639 454.737C100.639 456.359 101.082 457.651 101.969 458.613C102.881 459.551 103.983 460.019 105.275 460.019C106.567 460.019 107.656 459.551 108.543 458.613C109.455 457.676 109.911 456.397 109.911 454.775ZM148.166 443.945C150.801 443.945 152.891 444.743 154.436 446.339C156.007 447.935 156.792 450.152 156.792 452.989V465.377H150.332V453.863C150.332 452.495 149.965 451.444 149.23 450.709C148.521 449.949 147.533 449.569 146.266 449.569C144.999 449.569 143.999 449.949 143.264 450.709C142.555 451.444 142.2 452.495 142.2 453.863V465.377H135.74V453.863C135.74 452.495 135.373 451.444 134.638 450.709C133.929 449.949 132.941 449.569 131.674 449.569C130.407 449.569 129.407 449.949 128.672 450.709C127.963 451.444 127.608 452.495 127.608 453.863V465.377H121.11V444.173H127.608V446.833C128.267 445.947 129.128 445.25 130.192 444.743C131.256 444.211 132.459 443.945 133.802 443.945C135.398 443.945 136.817 444.287 138.058 444.971C139.325 445.655 140.313 446.631 141.022 447.897C141.757 446.732 142.757 445.782 144.024 445.047C145.291 444.313 146.671 443.945 148.166 443.945ZM185.995 460.665H176.039L174.443 465.377H167.641L177.293 438.701H184.817L194.469 465.377H187.591L185.995 460.665ZM184.323 455.649L181.017 445.883L177.749 455.649H184.323ZM203.905 437.257V465.377H197.407V437.257H203.905ZM215.112 437.257V465.377H208.614V437.257H215.112ZM229.473 465.681C227.396 465.681 225.521 465.238 223.849 464.351C222.202 463.465 220.898 462.198 219.935 460.551C218.998 458.905 218.529 456.979 218.529 454.775C218.529 452.597 219.01 450.684 219.973 449.037C220.936 447.365 222.253 446.086 223.925 445.199C225.597 444.313 227.472 443.869 229.549 443.869C231.626 443.869 233.501 444.313 235.173 445.199C236.845 446.086 238.162 447.365 239.125 449.037C240.088 450.684 240.569 452.597 240.569 454.775C240.569 456.954 240.075 458.879 239.087 460.551C238.124 462.198 236.794 463.465 235.097 464.351C233.425 465.238 231.55 465.681 229.473 465.681ZM229.473 460.057C230.714 460.057 231.766 459.601 232.627 458.689C233.514 457.777 233.957 456.473 233.957 454.775C233.957 453.078 233.526 451.773 232.665 450.861C231.829 449.949 230.79 449.493 229.549 449.493C228.282 449.493 227.231 449.949 226.395 450.861C225.559 451.748 225.141 453.053 225.141 454.775C225.141 456.473 225.546 457.777 226.357 458.689C227.193 459.601 228.232 460.057 229.473 460.057ZM242.724 454.775C242.724 452.571 243.167 450.646 244.054 448.999C244.966 447.353 246.22 446.086 247.816 445.199C249.437 444.313 251.287 443.869 253.364 443.869C256.024 443.869 258.241 444.566 260.014 445.959C261.813 447.353 262.991 449.316 263.548 451.849H256.632C256.049 450.228 254.922 449.417 253.25 449.417C252.059 449.417 251.109 449.886 250.4 450.823C249.691 451.735 249.336 453.053 249.336 454.775C249.336 456.498 249.691 457.828 250.4 458.765C251.109 459.677 252.059 460.133 253.25 460.133C254.922 460.133 256.049 459.323 256.632 457.701H263.548C262.991 460.184 261.813 462.135 260.014 463.553C258.215 464.972 255.999 465.681 253.364 465.681C251.287 465.681 249.437 465.238 247.816 464.351C246.22 463.465 244.966 462.198 244.054 460.551C243.167 458.905 242.724 456.979 242.724 454.775ZM265.732 454.737C265.732 452.559 266.137 450.646 266.948 448.999C267.784 447.353 268.911 446.086 270.33 445.199C271.749 444.313 273.332 443.869 275.08 443.869C276.575 443.869 277.879 444.173 278.994 444.781C280.134 445.389 281.008 446.187 281.616 447.175V444.173H288.114V465.377H281.616V462.375C280.983 463.363 280.096 464.161 278.956 464.769C277.841 465.377 276.537 465.681 275.042 465.681C273.319 465.681 271.749 465.238 270.33 464.351C268.911 463.439 267.784 462.16 266.948 460.513C266.137 458.841 265.732 456.916 265.732 454.737ZM281.616 454.775C281.616 453.154 281.16 451.875 280.248 450.937C279.361 450 278.272 449.531 276.98 449.531C275.688 449.531 274.586 450 273.674 450.937C272.787 451.849 272.344 453.116 272.344 454.737C272.344 456.359 272.787 457.651 273.674 458.613C274.586 459.551 275.688 460.019 276.98 460.019C278.272 460.019 279.361 459.551 280.248 458.613C281.16 457.676 281.616 456.397 281.616 454.775ZM304.633 459.867V465.377H301.327C298.971 465.377 297.134 464.807 295.817 463.667C294.5 462.502 293.841 460.615 293.841 458.005V449.569H291.257V444.173H293.841V439.005H300.339V444.173H304.595V449.569H300.339V458.081C300.339 458.715 300.491 459.171 300.795 459.449C301.099 459.728 301.606 459.867 302.315 459.867H304.633ZM311.52 441.969C310.38 441.969 309.443 441.64 308.708 440.981C307.999 440.297 307.644 439.461 307.644 438.473C307.644 437.46 307.999 436.624 308.708 435.965C309.443 435.281 310.38 434.939 311.52 434.939C312.635 434.939 313.547 435.281 314.256 435.965C314.991 436.624 315.358 437.46 315.358 438.473C315.358 439.461 314.991 440.297 314.256 440.981C313.547 441.64 312.635 441.969 311.52 441.969ZM314.75 444.173V465.377H308.252V444.173H314.75ZM329.112 465.681C327.034 465.681 325.16 465.238 323.488 464.351C321.841 463.465 320.536 462.198 319.574 460.551C318.636 458.905 318.168 456.979 318.168 454.775C318.168 452.597 318.649 450.684 319.612 449.037C320.574 447.365 321.892 446.086 323.564 445.199C325.236 444.313 327.11 443.869 329.188 443.869C331.265 443.869 333.14 444.313 334.812 445.199C336.484 446.086 337.801 447.365 338.764 449.037C339.726 450.684 340.208 452.597 340.208 454.775C340.208 456.954 339.714 458.879 338.726 460.551C337.763 462.198 336.433 463.465 334.736 464.351C333.064 465.238 331.189 465.681 329.112 465.681ZM329.112 460.057C330.353 460.057 331.404 459.601 332.266 458.689C333.152 457.777 333.596 456.473 333.596 454.775C333.596 453.078 333.165 451.773 332.304 450.861C331.468 449.949 330.429 449.493 329.188 449.493C327.921 449.493 326.87 449.949 326.034 450.861C325.198 451.748 324.78 453.053 324.78 454.775C324.78 456.473 325.185 457.777 325.996 458.689C326.832 459.601 327.87 460.057 329.112 460.057ZM356.575 443.945C359.057 443.945 361.033 444.756 362.503 446.377C363.997 447.973 364.745 450.177 364.745 452.989V465.377H358.285V453.863C358.285 452.445 357.917 451.343 357.183 450.557C356.448 449.772 355.46 449.379 354.219 449.379C352.977 449.379 351.989 449.772 351.255 450.557C350.52 451.343 350.153 452.445 350.153 453.863V465.377H343.655V444.173H350.153V446.985C350.811 446.048 351.698 445.313 352.813 444.781C353.927 444.224 355.181 443.945 356.575 443.945ZM173.496 500.679V494.637H184.022V522.377H177.258V500.679H173.496ZM188.239 517.171C189.1 516.487 189.493 516.171 189.417 516.221C191.9 514.169 193.85 512.485 195.269 511.167C196.713 509.85 197.929 508.469 198.917 507.025C199.905 505.581 200.399 504.175 200.399 502.807C200.399 501.769 200.158 500.958 199.677 500.375C199.196 499.793 198.474 499.501 197.511 499.501C196.548 499.501 195.788 499.869 195.231 500.603C194.699 501.313 194.433 502.326 194.433 503.643H188.163C188.214 501.49 188.67 499.691 189.531 498.247C190.418 496.803 191.57 495.739 192.989 495.055C194.433 494.371 196.029 494.029 197.777 494.029C200.792 494.029 203.059 494.802 204.579 496.347C206.124 497.893 206.897 499.907 206.897 502.389C206.897 505.1 205.972 507.621 204.123 509.951C202.274 512.257 199.918 514.511 197.055 516.715H207.315V521.997H188.239V517.171ZM209.644 501.629C209.644 499.577 210.226 497.994 211.392 496.879C212.582 495.765 214.115 495.207 215.99 495.207C217.864 495.207 219.384 495.765 220.55 496.879C221.715 497.994 222.298 499.577 222.298 501.629C222.298 503.681 221.715 505.265 220.55 506.379C219.384 507.494 217.864 508.051 215.99 508.051C214.115 508.051 212.582 507.494 211.392 506.379C210.226 505.265 209.644 503.681 209.644 501.629ZM235.446 495.625L220.816 522.377H214.546L229.176 495.625H235.446ZM215.952 499.007C214.736 499.007 214.128 499.881 214.128 501.629C214.128 503.352 214.736 504.213 215.952 504.213C216.534 504.213 216.99 503.998 217.32 503.567C217.649 503.137 217.814 502.491 217.814 501.629C217.814 499.881 217.193 499.007 215.952 499.007ZM227.732 516.373C227.732 514.321 228.314 512.738 229.48 511.623C230.645 510.509 232.165 509.951 234.04 509.951C235.914 509.951 237.434 510.509 238.6 511.623C239.765 512.738 240.348 514.321 240.348 516.373C240.348 518.425 239.765 520.009 238.6 521.123C237.434 522.238 235.914 522.795 234.04 522.795C232.165 522.795 230.645 522.238 229.48 521.123C228.314 520.009 227.732 518.425 227.732 516.373ZM234.002 513.751C233.419 513.751 232.963 513.967 232.634 514.397C232.33 514.828 232.178 515.487 232.178 516.373C232.178 518.096 232.786 518.957 234.002 518.957C234.584 518.957 235.04 518.742 235.37 518.311C235.699 517.881 235.864 517.235 235.864 516.373C235.864 515.512 235.699 514.866 235.37 514.435C235.04 513.979 234.584 513.751 234.002 513.751Z" fill="white"/>
<path d="M163.997 672.218V677.614H172.699V682.63H163.997V688.482H173.839V693.688H157.499V667.012H173.839V672.218H163.997ZM190.597 693.688L186.531 687.798L183.111 693.688H176.081L183.073 682.858L175.891 672.484H183.187L187.253 678.336L190.673 672.484H197.703L190.597 683.162L197.893 693.688H190.597ZM199.105 683.086C199.105 680.882 199.548 678.957 200.435 677.31C201.347 675.664 202.601 674.397 204.197 673.51C205.818 672.624 207.668 672.18 209.745 672.18C212.405 672.18 214.622 672.877 216.395 674.27C218.194 675.664 219.372 677.627 219.929 680.16H213.013C212.43 678.539 211.303 677.728 209.631 677.728C208.44 677.728 207.49 678.197 206.781 679.134C206.072 680.046 205.717 681.364 205.717 683.086C205.717 684.809 206.072 686.139 206.781 687.076C207.49 687.988 208.44 688.444 209.631 688.444C211.303 688.444 212.43 687.634 213.013 686.012H219.929C219.372 688.495 218.194 690.446 216.395 691.864C214.596 693.283 212.38 693.992 209.745 693.992C207.668 693.992 205.818 693.549 204.197 692.662C202.601 691.776 201.347 690.509 200.435 688.862C199.548 687.216 199.105 685.29 199.105 683.086ZM236.439 672.256C238.871 672.256 240.821 673.067 242.291 674.688C243.76 676.284 244.495 678.488 244.495 681.3V693.688H238.035V682.174C238.035 680.756 237.667 679.654 236.933 678.868C236.198 678.083 235.21 677.69 233.969 677.69C232.727 677.69 231.739 678.083 231.005 678.868C230.27 679.654 229.903 680.756 229.903 682.174V693.688H223.405V665.568H229.903V675.334C230.561 674.397 231.461 673.65 232.601 673.092C233.741 672.535 235.02 672.256 236.439 672.256ZM247.718 683.048C247.718 680.87 248.124 678.957 248.934 677.31C249.77 675.664 250.898 674.397 252.316 673.51C253.735 672.624 255.318 672.18 257.066 672.18C258.561 672.18 259.866 672.484 260.98 673.092C262.12 673.7 262.994 674.498 263.602 675.486V672.484H270.1V693.688H263.602V690.686C262.969 691.674 262.082 692.472 260.942 693.08C259.828 693.688 258.523 693.992 257.028 693.992C255.306 693.992 253.735 693.549 252.316 692.662C250.898 691.75 249.77 690.471 248.934 688.824C248.124 687.152 247.718 685.227 247.718 683.048ZM263.602 683.086C263.602 681.465 263.146 680.186 262.234 679.248C261.348 678.311 260.258 677.842 258.966 677.842C257.674 677.842 256.572 678.311 255.66 679.248C254.774 680.16 254.33 681.427 254.33 683.048C254.33 684.67 254.774 685.962 255.66 686.924C256.572 687.862 257.674 688.33 258.966 688.33C260.258 688.33 261.348 687.862 262.234 686.924C263.146 685.987 263.602 684.708 263.602 683.086ZM287.721 672.256C290.204 672.256 292.18 673.067 293.649 674.688C295.144 676.284 295.891 678.488 295.891 681.3V693.688H289.431V682.174C289.431 680.756 289.064 679.654 288.329 678.868C287.595 678.083 286.607 677.69 285.365 677.69C284.124 677.69 283.136 678.083 282.401 678.868C281.667 679.654 281.299 680.756 281.299 682.174V693.688H274.801V672.484H281.299V675.296C281.958 674.359 282.845 673.624 283.959 673.092C285.074 672.535 286.328 672.256 287.721 672.256ZM308.463 672.18C309.957 672.18 311.262 672.484 312.377 673.092C313.517 673.7 314.391 674.498 314.999 675.486V672.484H321.497V693.65C321.497 695.601 321.104 697.362 320.319 698.932C319.559 700.528 318.381 701.795 316.785 702.732C315.214 703.67 313.251 704.138 310.895 704.138C307.753 704.138 305.207 703.391 303.257 701.896C301.306 700.427 300.191 698.426 299.913 695.892H306.335C306.537 696.703 307.019 697.336 307.779 697.792C308.539 698.274 309.476 698.514 310.591 698.514C311.933 698.514 312.997 698.122 313.783 697.336C314.593 696.576 314.999 695.348 314.999 693.65V690.648C314.365 691.636 313.491 692.447 312.377 693.08C311.262 693.688 309.957 693.992 308.463 693.992C306.715 693.992 305.131 693.549 303.713 692.662C302.294 691.75 301.167 690.471 300.331 688.824C299.52 687.152 299.115 685.227 299.115 683.048C299.115 680.87 299.52 678.957 300.331 677.31C301.167 675.664 302.294 674.397 303.713 673.51C305.131 672.624 306.715 672.18 308.463 672.18ZM314.999 683.086C314.999 681.465 314.543 680.186 313.631 679.248C312.744 678.311 311.655 677.842 310.363 677.842C309.071 677.842 307.969 678.311 307.057 679.248C306.17 680.16 305.727 681.427 305.727 683.048C305.727 684.67 306.17 685.962 307.057 686.924C307.969 687.862 309.071 688.33 310.363 688.33C311.655 688.33 312.744 687.862 313.631 686.924C314.543 685.987 314.999 684.708 314.999 683.086ZM346.186 682.744C346.186 683.352 346.148 683.986 346.072 684.644H331.366C331.467 685.962 331.885 686.975 332.62 687.684C333.38 688.368 334.304 688.71 335.394 688.71C337.015 688.71 338.142 688.026 338.776 686.658H345.692C345.337 688.052 344.691 689.306 343.754 690.42C342.842 691.535 341.689 692.409 340.296 693.042C338.902 693.676 337.344 693.992 335.622 693.992C333.544 693.992 331.695 693.549 330.074 692.662C328.452 691.776 327.186 690.509 326.274 688.862C325.362 687.216 324.906 685.29 324.906 683.086C324.906 680.882 325.349 678.957 326.236 677.31C327.148 675.664 328.414 674.397 330.036 673.51C331.657 672.624 333.519 672.18 335.622 672.18C337.674 672.18 339.498 672.611 341.094 673.472C342.69 674.334 343.931 675.562 344.818 677.158C345.73 678.754 346.186 680.616 346.186 682.744ZM339.536 681.034C339.536 679.92 339.156 679.033 338.396 678.374C337.636 677.716 336.686 677.386 335.546 677.386C334.456 677.386 333.532 677.703 332.772 678.336C332.037 678.97 331.581 679.869 331.404 681.034H339.536ZM364.165 688.672H372.677V693.688H357.667V667.012H364.165V688.672ZM379.044 670.28C377.904 670.28 376.967 669.951 376.232 669.292C375.523 668.608 375.168 667.772 375.168 666.784C375.168 665.771 375.523 664.935 376.232 664.276C376.967 663.592 377.904 663.25 379.044 663.25C380.159 663.25 381.071 663.592 381.78 664.276C382.515 664.935 382.882 665.771 382.882 666.784C382.882 667.772 382.515 668.608 381.78 669.292C381.071 669.951 380.159 670.28 379.044 670.28ZM382.274 672.484V693.688H375.776V672.484H382.274ZM395.609 693.992C393.76 693.992 392.113 693.676 390.669 693.042C389.225 692.409 388.085 691.548 387.249 690.458C386.413 689.344 385.944 688.102 385.843 686.734H392.265C392.341 687.469 392.683 688.064 393.291 688.52C393.899 688.976 394.646 689.204 395.533 689.204C396.344 689.204 396.964 689.052 397.395 688.748C397.851 688.419 398.079 688.001 398.079 687.494C398.079 686.886 397.762 686.443 397.129 686.164C396.496 685.86 395.47 685.531 394.051 685.176C392.531 684.822 391.264 684.454 390.251 684.074C389.238 683.669 388.364 683.048 387.629 682.212C386.894 681.351 386.527 680.198 386.527 678.754C386.527 677.538 386.856 676.436 387.515 675.448C388.199 674.435 389.187 673.637 390.479 673.054C391.796 672.472 393.354 672.18 395.153 672.18C397.813 672.18 399.903 672.839 401.423 674.156C402.968 675.474 403.855 677.222 404.083 679.4H398.079C397.978 678.666 397.648 678.083 397.091 677.652C396.559 677.222 395.85 677.006 394.963 677.006C394.203 677.006 393.62 677.158 393.215 677.462C392.81 677.741 392.607 678.134 392.607 678.64C392.607 679.248 392.924 679.704 393.557 680.008C394.216 680.312 395.229 680.616 396.597 680.92C398.168 681.326 399.447 681.731 400.435 682.136C401.423 682.516 402.284 683.15 403.019 684.036C403.779 684.898 404.172 686.063 404.197 687.532C404.197 688.774 403.842 689.888 403.133 690.876C402.449 691.839 401.448 692.599 400.131 693.156C398.839 693.714 397.332 693.992 395.609 693.992ZM419.99 688.178V693.688H416.684C414.328 693.688 412.492 693.118 411.174 691.978C409.857 690.813 409.198 688.926 409.198 686.316V677.88H406.614V672.484H409.198V667.316H415.696V672.484H419.952V677.88H415.696V686.392C415.696 687.026 415.848 687.482 416.152 687.76C416.456 688.039 416.963 688.178 417.672 688.178H419.99ZM426.878 670.28C425.738 670.28 424.801 669.951 424.066 669.292C423.357 668.608 423.002 667.772 423.002 666.784C423.002 665.771 423.357 664.935 424.066 664.276C424.801 663.592 425.738 663.25 426.878 663.25C427.993 663.25 428.905 663.592 429.614 664.276C430.349 664.935 430.716 665.771 430.716 666.784C430.716 667.772 430.349 668.608 429.614 669.292C428.905 669.951 427.993 670.28 426.878 670.28ZM430.108 672.484V693.688H423.61V672.484H430.108ZM447.737 672.256C450.22 672.256 452.196 673.067 453.665 674.688C455.16 676.284 455.907 678.488 455.907 681.3V693.688H449.447V682.174C449.447 680.756 449.08 679.654 448.345 678.868C447.61 678.083 446.622 677.69 445.381 677.69C444.14 677.69 443.152 678.083 442.417 678.868C441.682 679.654 441.315 680.756 441.315 682.174V693.688H434.817V672.484H441.315V675.296C441.974 674.359 442.86 673.624 443.975 673.092C445.09 672.535 446.344 672.256 447.737 672.256ZM468.478 672.18C469.973 672.18 471.278 672.484 472.392 673.092C473.532 673.7 474.406 674.498 475.014 675.486V672.484H481.512V693.65C481.512 695.601 481.12 697.362 480.334 698.932C479.574 700.528 478.396 701.795 476.8 702.732C475.23 703.67 473.266 704.138 470.91 704.138C467.769 704.138 465.223 703.391 463.272 701.896C461.322 700.427 460.207 698.426 459.928 695.892H466.35C466.553 696.703 467.034 697.336 467.794 697.792C468.554 698.274 469.492 698.514 470.606 698.514C471.949 698.514 473.013 698.122 473.798 697.336C474.609 696.576 475.014 695.348 475.014 693.65V690.648C474.381 691.636 473.507 692.447 472.392 693.08C471.278 693.688 469.973 693.992 468.478 693.992C466.73 693.992 465.147 693.549 463.728 692.662C462.31 691.75 461.182 690.471 460.346 688.824C459.536 687.152 459.13 685.227 459.13 683.048C459.13 680.87 459.536 678.957 460.346 677.31C461.182 675.664 462.31 674.397 463.728 673.51C465.147 672.624 466.73 672.18 468.478 672.18ZM475.014 683.086C475.014 681.465 474.558 680.186 473.646 679.248C472.76 678.311 471.67 677.842 470.378 677.842C469.086 677.842 467.984 678.311 467.072 679.248C466.186 680.16 465.742 681.427 465.742 683.048C465.742 684.67 466.186 685.962 467.072 686.924C467.984 687.862 469.086 688.33 470.378 688.33C471.67 688.33 472.76 687.862 473.646 686.924C474.558 685.987 475.014 684.708 475.014 683.086ZM284.53 728.99V722.948H295.056V750.688H288.292V728.99H284.53ZM304.061 735.792C301.68 734.526 300.489 732.537 300.489 729.826C300.489 728.458 300.844 727.217 301.553 726.102C302.262 724.962 303.339 724.063 304.783 723.404C306.227 722.72 308 722.378 310.103 722.378C312.206 722.378 313.966 722.72 315.385 723.404C316.829 724.063 317.906 724.962 318.615 726.102C319.324 727.217 319.679 728.458 319.679 729.826C319.679 731.194 319.35 732.385 318.691 733.398C318.058 734.412 317.196 735.21 316.107 735.792C317.475 736.451 318.526 737.363 319.261 738.528C319.996 739.668 320.363 741.011 320.363 742.556C320.363 744.355 319.907 745.913 318.995 747.23C318.083 748.522 316.842 749.51 315.271 750.194C313.726 750.878 312.003 751.22 310.103 751.22C308.203 751.22 306.468 750.878 304.897 750.194C303.352 749.51 302.123 748.522 301.211 747.23C300.299 745.913 299.843 744.355 299.843 742.556C299.843 740.986 300.21 739.63 300.945 738.49C301.68 737.325 302.718 736.426 304.061 735.792ZM313.371 730.814C313.371 729.776 313.067 728.978 312.459 728.42C311.876 727.838 311.091 727.546 310.103 727.546C309.115 727.546 308.317 727.838 307.709 728.42C307.126 729.003 306.835 729.814 306.835 730.852C306.835 731.84 307.139 732.626 307.747 733.208C308.355 733.766 309.14 734.044 310.103 734.044C311.066 734.044 311.851 733.753 312.459 733.17C313.067 732.588 313.371 731.802 313.371 730.814ZM310.103 738.604C308.912 738.604 307.95 738.934 307.215 739.592C306.48 740.226 306.113 741.112 306.113 742.252C306.113 743.316 306.468 744.19 307.177 744.874C307.912 745.558 308.887 745.9 310.103 745.9C311.319 745.9 312.269 745.558 312.953 744.874C313.662 744.19 314.017 743.316 314.017 742.252C314.017 741.138 313.65 740.251 312.915 739.592C312.206 738.934 311.268 738.604 310.103 738.604ZM323.61 729.94C323.61 727.888 324.192 726.305 325.358 725.19C326.548 724.076 328.081 723.518 329.956 723.518C331.83 723.518 333.35 724.076 334.516 725.19C335.681 726.305 336.264 727.888 336.264 729.94C336.264 731.992 335.681 733.576 334.516 734.69C333.35 735.805 331.83 736.362 329.956 736.362C328.081 736.362 326.548 735.805 325.358 734.69C324.192 733.576 323.61 731.992 323.61 729.94ZM349.412 723.936L334.782 750.688H328.512L343.142 723.936H349.412ZM329.918 727.318C328.702 727.318 328.094 728.192 328.094 729.94C328.094 731.663 328.702 732.524 329.918 732.524C330.5 732.524 330.956 732.309 331.286 731.878C331.615 731.448 331.78 730.802 331.78 729.94C331.78 728.192 331.159 727.318 329.918 727.318ZM341.698 744.684C341.698 742.632 342.28 741.049 343.446 739.934C344.611 738.82 346.131 738.262 348.006 738.262C349.88 738.262 351.4 738.82 352.566 739.934C353.731 741.049 354.314 742.632 354.314 744.684C354.314 746.736 353.731 748.32 352.566 749.434C351.4 750.549 349.88 751.106 348.006 751.106C346.131 751.106 344.611 750.549 343.446 749.434C342.28 748.32 341.698 746.736 341.698 744.684ZM347.968 742.062C347.385 742.062 346.929 742.278 346.6 742.708C346.296 743.139 346.144 743.798 346.144 744.684C346.144 746.407 346.752 747.268 347.968 747.268C348.55 747.268 349.006 747.053 349.336 746.622C349.665 746.192 349.83 745.546 349.83 744.684C349.83 743.823 349.665 743.177 349.336 742.746C349.006 742.29 348.55 742.062 347.968 742.062Z" fill="white"/>
<path d="M549.629 15.5135V42.1895H543.131V26.1915L537.165 42.1895H531.921L525.917 26.1535V42.1895H519.419V15.5135H527.094L534.581 33.9815L541.991 15.5135H549.629ZM553.009 31.5495C553.009 29.3708 553.415 27.4581 554.225 25.8115C555.061 24.1648 556.189 22.8981 557.607 22.0115C559.026 21.1248 560.609 20.6815 562.357 20.6815C563.852 20.6815 565.157 20.9855 566.271 21.5935C567.411 22.2015 568.285 22.9995 568.893 23.9875V20.9855H575.391V42.1895H568.893V39.1875C568.26 40.1755 567.373 40.9735 566.233 41.5815C565.119 42.1895 563.814 42.4935 562.319 42.4935C560.597 42.4935 559.026 42.0501 557.607 41.1635C556.189 40.2515 555.061 38.9721 554.225 37.3255C553.415 35.6535 553.009 33.7281 553.009 31.5495ZM568.893 31.5875C568.893 29.9661 568.437 28.6868 567.525 27.7495C566.639 26.8121 565.549 26.3435 564.257 26.3435C562.965 26.3435 561.863 26.8121 560.951 27.7495C560.065 28.6615 559.621 29.9281 559.621 31.5495C559.621 33.1708 560.065 34.4628 560.951 35.4255C561.863 36.3628 562.965 36.8315 564.257 36.8315C565.549 36.8315 566.639 36.3628 567.525 35.4255C568.437 34.4881 568.893 33.2088 568.893 31.5875ZM586.59 24.5195C587.35 23.3541 588.3 22.4421 589.44 21.7835C590.58 21.0995 591.847 20.7575 593.24 20.7575V27.6355H591.454C589.833 27.6355 588.617 27.9901 587.806 28.6995C586.996 29.3835 586.59 30.5995 586.59 32.3475V42.1895H580.092V20.9855H586.59V24.5195ZM609.304 42.1895L602.844 33.2975V42.1895H596.346V14.0695H602.844V29.6115L609.266 20.9855H617.284L608.468 31.6255L617.36 42.1895H609.304ZM639.824 31.2455C639.824 31.8535 639.786 32.4868 639.71 33.1455H625.004C625.106 34.4628 625.524 35.4761 626.258 36.1855C627.018 36.8695 627.943 37.2115 629.032 37.2115C630.654 37.2115 631.781 36.5275 632.414 35.1595H639.33C638.976 36.5528 638.33 37.8068 637.392 38.9215C636.48 40.0361 635.328 40.9101 633.934 41.5435C632.541 42.1768 630.983 42.4935 629.26 42.4935C627.183 42.4935 625.334 42.0501 623.712 41.1635C622.091 40.2768 620.824 39.0101 619.912 37.3635C619 35.7168 618.544 33.7915 618.544 31.5875C618.544 29.3835 618.988 27.4581 619.874 25.8115C620.786 24.1648 622.053 22.8981 623.674 22.0115C625.296 21.1248 627.158 20.6815 629.26 20.6815C631.312 20.6815 633.136 21.1121 634.732 21.9735C636.328 22.8348 637.57 24.0635 638.456 25.6595C639.368 27.2555 639.824 29.1175 639.824 31.2455ZM633.174 29.5355C633.174 28.4208 632.794 27.5341 632.034 26.8755C631.274 26.2168 630.324 25.8875 629.184 25.8875C628.095 25.8875 627.17 26.2041 626.41 26.8375C625.676 27.4708 625.22 28.3701 625.042 29.5355H633.174ZM655.07 36.6795V42.1895H651.764C649.408 42.1895 647.572 41.6195 646.254 40.4795C644.937 39.3141 644.278 37.4268 644.278 34.8175V26.3815H641.694V20.9855H644.278V15.8175H650.776V20.9855H655.032V26.3815H650.776V34.8935C650.776 35.5268 650.928 35.9828 651.232 36.2615C651.536 36.5401 652.043 36.6795 652.752 36.6795H655.07ZM661.958 18.7815C660.818 18.7815 659.881 18.4521 659.146 17.7935C658.437 17.1095 658.082 16.2735 658.082 15.2855C658.082 14.2721 658.437 13.4361 659.146 12.7775C659.881 12.0935 660.818 11.7515 661.958 11.7515C663.073 11.7515 663.985 12.0935 664.694 12.7775C665.429 13.4361 665.796 14.2721 665.796 15.2855C665.796 16.2735 665.429 17.1095 664.694 17.7935C663.985 18.4521 663.073 18.7815 661.958 18.7815ZM665.188 20.9855V42.1895H658.69V20.9855H665.188ZM682.817 20.7575C685.3 20.7575 687.276 21.5681 688.745 23.1895C690.24 24.7855 690.987 26.9895 690.987 29.8015V42.1895H684.527V30.6755C684.527 29.2568 684.16 28.1548 683.425 27.3695C682.69 26.5841 681.702 26.1915 680.461 26.1915C679.22 26.1915 678.232 26.5841 677.497 27.3695C676.762 28.1548 676.395 29.2568 676.395 30.6755V42.1895H669.897V20.9855H676.395V23.7975C677.054 22.8601 677.94 22.1255 679.055 21.5935C680.17 21.0361 681.424 20.7575 682.817 20.7575ZM703.558 20.6815C705.053 20.6815 706.358 20.9855 707.472 21.5935C708.612 22.2015 709.486 22.9995 710.094 23.9875V20.9855H716.592V42.1515C716.592 44.1021 716.2 45.8628 715.414 47.4335C714.654 49.0295 713.476 50.2961 711.88 51.2335C710.31 52.1708 708.346 52.6395 705.99 52.6395C702.849 52.6395 700.303 51.8921 698.352 50.3975C696.402 48.9281 695.287 46.9268 695.008 44.3935H701.43C701.633 45.2041 702.114 45.8375 702.874 46.2935C703.634 46.7748 704.572 47.0155 705.686 47.0155C707.029 47.0155 708.093 46.6228 708.878 45.8375C709.689 45.0775 710.094 43.8488 710.094 42.1515V39.1495C709.461 40.1375 708.587 40.9481 707.472 41.5815C706.358 42.1895 705.053 42.4935 703.558 42.4935C701.81 42.4935 700.227 42.0501 698.808 41.1635C697.39 40.2515 696.262 38.9721 695.426 37.3255C694.616 35.6535 694.21 33.7281 694.21 31.5495C694.21 29.3708 694.616 27.4581 695.426 25.8115C696.262 24.1648 697.39 22.8981 698.808 22.0115C700.227 21.1248 701.81 20.6815 703.558 20.6815ZM710.094 31.5875C710.094 29.9661 709.638 28.6868 708.726 27.7495C707.84 26.8121 706.75 26.3435 705.458 26.3435C704.166 26.3435 703.064 26.8121 702.152 27.7495C701.266 28.6615 700.822 29.9281 700.822 31.5495C700.822 33.1708 701.266 34.4628 702.152 35.4255C703.064 36.3628 704.166 36.8315 705.458 36.8315C706.75 36.8315 707.84 36.3628 708.726 35.4255C709.638 34.4881 710.094 33.2088 710.094 31.5875ZM582.956 77.4915V71.4495H593.482V99.1895H586.718V77.4915H582.956ZM597.927 84.9395C597.927 80.5821 598.763 77.1495 600.435 74.6415C602.132 72.1335 604.855 70.8795 608.605 70.8795C612.354 70.8795 615.065 72.1335 616.737 74.6415C618.434 77.1495 619.283 80.5821 619.283 84.9395C619.283 89.3475 618.434 92.8055 616.737 95.3135C615.065 97.8215 612.354 99.0755 608.605 99.0755C604.855 99.0755 602.132 97.8215 600.435 95.3135C598.763 92.8055 597.927 89.3475 597.927 84.9395ZM612.899 84.9395C612.899 82.3808 612.62 80.4175 612.063 79.0495C611.505 77.6561 610.353 76.9595 608.605 76.9595C606.857 76.9595 605.704 77.6561 605.147 79.0495C604.589 80.4175 604.311 82.3808 604.311 84.9395C604.311 86.6621 604.412 88.0935 604.615 89.2335C604.817 90.3481 605.223 91.2601 605.831 91.9695C606.464 92.6535 607.389 92.9955 608.605 92.9955C609.821 92.9955 610.733 92.6535 611.341 91.9695C611.974 91.2601 612.392 90.3481 612.595 89.2335C612.797 88.0935 612.899 86.6621 612.899 84.9395ZM622.184 78.4415C622.184 76.3895 622.767 74.8061 623.932 73.6915C625.123 72.5768 626.655 72.0195 628.53 72.0195C630.405 72.0195 631.925 72.5768 633.09 73.6915C634.255 74.8061 634.838 76.3895 634.838 78.4415C634.838 80.4935 634.255 82.0768 633.09 83.1915C631.925 84.3061 630.405 84.8635 628.53 84.8635C626.655 84.8635 625.123 84.3061 623.932 83.1915C622.767 82.0768 622.184 80.4935 622.184 78.4415ZM647.986 72.4375L633.356 99.1895H627.086L641.716 72.4375H647.986ZM628.492 75.8195C627.276 75.8195 626.668 76.6935 626.668 78.4415C626.668 80.1641 627.276 81.0255 628.492 81.0255C629.075 81.0255 629.531 80.8101 629.86 80.3795C630.189 79.9488 630.354 79.3028 630.354 78.4415C630.354 76.6935 629.733 75.8195 628.492 75.8195ZM640.272 93.1855C640.272 91.1335 640.855 89.5501 642.02 88.4355C643.185 87.3208 644.705 86.7635 646.58 86.7635C648.455 86.7635 649.975 87.3208 651.14 88.4355C652.305 89.5501 652.888 91.1335 652.888 93.1855C652.888 95.2375 652.305 96.8208 651.14 97.9355C649.975 99.0501 648.455 99.6075 646.58 99.6075C644.705 99.6075 643.185 99.0501 642.02 97.9355C640.855 96.8208 640.272 95.2375 640.272 93.1855ZM646.542 90.5635C645.959 90.5635 645.503 90.7788 645.174 91.2095C644.87 91.6401 644.718 92.2988 644.718 93.1855C644.718 94.9081 645.326 95.7695 646.542 95.7695C647.125 95.7695 647.581 95.5541 647.91 95.1235C648.239 94.6928 648.404 94.0468 648.404 93.1855C648.404 92.3241 648.239 91.6781 647.91 91.2475C647.581 90.7915 647.125 90.5635 646.542 90.5635Z" fill="white"/>
<path d="M1075.52 376.152C1075.52 378.104 1075.08 379.896 1074.18 381.528C1073.28 383.128 1071.91 384.424 1070.05 385.416C1068.2 386.408 1065.89 386.904 1063.14 386.904H1058.05V399H1049.84V365.304H1063.14C1065.83 365.304 1068.1 365.768 1069.96 366.696C1071.81 367.624 1073.2 368.904 1074.13 370.536C1075.06 372.168 1075.52 374.04 1075.52 376.152ZM1062.52 380.376C1064.08 380.376 1065.25 380.008 1066.02 379.272C1066.79 378.536 1067.17 377.496 1067.17 376.152C1067.17 374.808 1066.79 373.768 1066.02 373.032C1065.25 372.296 1064.08 371.928 1062.52 371.928H1058.05V380.376H1062.52ZM1078.16 385.56C1078.16 382.808 1078.68 380.392 1079.7 378.312C1080.76 376.232 1082.18 374.632 1083.97 373.512C1085.76 372.392 1087.76 371.832 1089.97 371.832C1091.86 371.832 1093.51 372.216 1094.92 372.984C1096.36 373.752 1097.46 374.76 1098.23 376.008V372.216H1106.44V399H1098.23V395.208C1097.43 396.456 1096.31 397.464 1094.87 398.232C1093.46 399 1091.81 399.384 1089.92 399.384C1087.75 399.384 1085.76 398.824 1083.97 397.704C1082.18 396.552 1080.76 394.936 1079.7 392.856C1078.68 390.744 1078.16 388.312 1078.16 385.56ZM1098.23 385.608C1098.23 383.56 1097.65 381.944 1096.5 380.76C1095.38 379.576 1094 378.984 1092.37 378.984C1090.74 378.984 1089.35 379.576 1088.2 380.76C1087.08 381.912 1086.52 383.512 1086.52 385.56C1086.52 387.608 1087.08 389.24 1088.2 390.456C1089.35 391.64 1090.74 392.232 1092.37 392.232C1094 392.232 1095.38 391.64 1096.5 390.456C1097.65 389.272 1098.23 387.656 1098.23 385.608ZM1128.69 371.928C1131.83 371.928 1134.33 372.952 1136.18 375C1138.07 377.016 1139.01 379.8 1139.01 383.352V399H1130.85V384.456C1130.85 382.664 1130.39 381.272 1129.46 380.28C1128.53 379.288 1127.29 378.792 1125.72 378.792C1124.15 378.792 1122.9 379.288 1121.97 380.28C1121.05 381.272 1120.58 382.664 1120.58 384.456V399H1112.37V372.216H1120.58V375.768C1121.41 374.584 1122.53 373.656 1123.94 372.984C1125.35 372.28 1126.93 371.928 1128.69 371.928ZM1143.09 385.608C1143.09 382.824 1143.65 380.392 1144.77 378.312C1145.92 376.232 1147.5 374.632 1149.52 373.512C1151.57 372.392 1153.9 371.832 1156.53 371.832C1159.89 371.832 1162.69 372.712 1164.93 374.472C1167.2 376.232 1168.69 378.712 1169.39 381.912H1160.65C1159.92 379.864 1158.49 378.84 1156.38 378.84C1154.88 378.84 1153.68 379.432 1152.78 380.616C1151.89 381.768 1151.44 383.432 1151.44 385.608C1151.44 387.784 1151.89 389.464 1152.78 390.648C1153.68 391.8 1154.88 392.376 1156.38 392.376C1158.49 392.376 1159.92 391.352 1160.65 389.304H1169.39C1168.69 392.44 1167.2 394.904 1164.93 396.696C1162.65 398.488 1159.85 399.384 1156.53 399.384C1153.9 399.384 1151.57 398.824 1149.52 397.704C1147.5 396.584 1145.92 394.984 1144.77 392.904C1143.65 390.824 1143.09 388.392 1143.09 385.608ZM1172.15 385.56C1172.15 382.808 1172.66 380.392 1173.68 378.312C1174.74 376.232 1176.16 374.632 1177.96 373.512C1179.75 372.392 1181.75 371.832 1183.96 371.832C1185.84 371.832 1187.49 372.216 1188.9 372.984C1190.34 373.752 1191.44 374.76 1192.21 376.008V372.216H1200.42V399H1192.21V395.208C1191.41 396.456 1190.29 397.464 1188.85 398.232C1187.44 399 1185.8 399.384 1183.91 399.384C1181.73 399.384 1179.75 398.824 1177.96 397.704C1176.16 396.552 1174.74 394.936 1173.68 392.856C1172.66 390.744 1172.15 388.312 1172.15 385.56ZM1192.21 385.608C1192.21 383.56 1191.64 381.944 1190.48 380.76C1189.36 379.576 1187.99 378.984 1186.36 378.984C1184.72 378.984 1183.33 379.576 1182.18 380.76C1181.06 381.912 1180.5 383.512 1180.5 385.56C1180.5 387.608 1181.06 389.24 1182.18 390.456C1183.33 391.64 1184.72 392.232 1186.36 392.232C1187.99 392.232 1189.36 391.64 1190.48 390.456C1191.64 389.272 1192.21 387.656 1192.21 385.608ZM1222.73 399L1214.57 387.768V399H1206.36V363.48H1214.57V383.112L1222.68 372.216H1232.81L1221.67 385.656L1232.9 399H1222.73ZM1261.28 385.176C1261.28 385.944 1261.23 386.744 1261.13 387.576H1242.56C1242.69 389.24 1243.21 390.52 1244.14 391.416C1245.1 392.28 1246.27 392.712 1247.65 392.712C1249.69 392.712 1251.12 391.848 1251.92 390.12H1260.65C1260.21 391.88 1259.39 393.464 1258.21 394.872C1257.05 396.28 1255.6 397.384 1253.84 398.184C1252.08 398.984 1250.11 399.384 1247.93 399.384C1245.31 399.384 1242.97 398.824 1240.93 397.704C1238.88 396.584 1237.28 394.984 1236.13 392.904C1234.97 390.824 1234.4 388.392 1234.4 385.608C1234.4 382.824 1234.96 380.392 1236.08 378.312C1237.23 376.232 1238.83 374.632 1240.88 373.512C1242.93 372.392 1245.28 371.832 1247.93 371.832C1250.53 371.832 1252.83 372.376 1254.85 373.464C1256.86 374.552 1258.43 376.104 1259.55 378.12C1260.7 380.136 1261.28 382.488 1261.28 385.176ZM1252.88 383.016C1252.88 381.608 1252.4 380.488 1251.44 379.656C1250.48 378.824 1249.28 378.408 1247.84 378.408C1246.46 378.408 1245.29 378.808 1244.33 379.608C1243.41 380.408 1242.83 381.544 1242.61 383.016H1252.88ZM1276.5 399.384C1274.17 399.384 1272.09 398.984 1270.26 398.184C1268.44 397.384 1267 396.296 1265.94 394.92C1264.89 393.512 1264.3 391.944 1264.17 390.216H1272.28C1272.38 391.144 1272.81 391.896 1273.58 392.472C1274.34 393.048 1275.29 393.336 1276.41 393.336C1277.43 393.336 1278.22 393.144 1278.76 392.76C1279.34 392.344 1279.62 391.816 1279.62 391.176C1279.62 390.408 1279.22 389.848 1278.42 389.496C1277.62 389.112 1276.33 388.696 1274.54 388.248C1272.62 387.8 1271.02 387.336 1269.74 386.856C1268.46 386.344 1267.35 385.56 1266.42 384.504C1265.5 383.416 1265.03 381.96 1265.03 380.136C1265.03 378.6 1265.45 377.208 1266.28 375.96C1267.14 374.68 1268.39 373.672 1270.02 372.936C1271.69 372.2 1273.66 371.832 1275.93 371.832C1279.29 371.832 1281.93 372.664 1283.85 374.328C1285.8 375.992 1286.92 378.2 1287.21 380.952H1279.62C1279.5 380.024 1279.08 379.288 1278.38 378.744C1277.7 378.2 1276.81 377.928 1275.69 377.928C1274.73 377.928 1273.99 378.12 1273.48 378.504C1272.97 378.856 1272.71 379.352 1272.71 379.992C1272.71 380.76 1273.11 381.336 1273.91 381.72C1274.74 382.104 1276.02 382.488 1277.75 382.872C1279.74 383.384 1281.35 383.896 1282.6 384.408C1283.85 384.888 1284.94 385.688 1285.86 386.808C1286.82 387.896 1287.32 389.368 1287.35 391.224C1287.35 392.792 1286.9 394.2 1286.01 395.448C1285.14 396.664 1283.88 397.624 1282.22 398.328C1280.58 399.032 1278.68 399.384 1276.5 399.384ZM1330.82 372.216L1323.57 399H1314.5L1310.28 381.624L1305.91 399H1296.89L1289.59 372.216H1297.8L1301.59 391.368L1306.1 372.216H1314.79L1319.35 391.272L1323.09 372.216H1330.82ZM1332.32 385.56C1332.32 382.808 1332.83 380.392 1333.86 378.312C1334.91 376.232 1336.34 374.632 1338.13 373.512C1339.92 372.392 1341.92 371.832 1344.13 371.832C1346.02 371.832 1347.66 372.216 1349.07 372.984C1350.51 373.752 1351.62 374.76 1352.38 376.008V372.216H1360.59V399H1352.38V395.208C1351.58 396.456 1350.46 397.464 1349.02 398.232C1347.62 399 1345.97 399.384 1344.08 399.384C1341.9 399.384 1339.92 398.824 1338.13 397.704C1336.34 396.552 1334.91 394.936 1333.86 392.856C1332.83 390.744 1332.32 388.312 1332.32 385.56ZM1352.38 385.608C1352.38 383.56 1351.81 381.944 1350.66 380.76C1349.54 379.576 1348.16 378.984 1346.53 378.984C1344.9 378.984 1343.5 379.576 1342.35 380.76C1341.23 381.912 1340.67 383.512 1340.67 385.56C1340.67 387.608 1341.23 389.24 1342.35 390.456C1343.5 391.64 1344.9 392.232 1346.53 392.232C1348.16 392.232 1349.54 391.64 1350.66 390.456C1351.81 389.272 1352.38 387.656 1352.38 385.608ZM1374.74 376.008C1375.54 374.76 1376.64 373.752 1378.05 372.984C1379.46 372.216 1381.11 371.832 1382.99 371.832C1385.2 371.832 1387.2 372.392 1388.99 373.512C1390.79 374.632 1392.19 376.232 1393.22 378.312C1394.27 380.392 1394.8 382.808 1394.8 385.56C1394.8 388.312 1394.27 390.744 1393.22 392.856C1392.19 394.936 1390.79 396.552 1388.99 397.704C1387.2 398.824 1385.2 399.384 1382.99 399.384C1381.14 399.384 1379.49 399 1378.05 398.232C1376.64 397.464 1375.54 396.472 1374.74 395.256V411.768H1366.53V372.216H1374.74V376.008ZM1386.45 385.56C1386.45 383.512 1385.87 381.912 1384.72 380.76C1383.6 379.576 1382.21 378.984 1380.55 378.984C1378.91 378.984 1377.52 379.576 1376.37 380.76C1375.25 381.944 1374.69 383.56 1374.69 385.608C1374.69 387.656 1375.25 389.272 1376.37 390.456C1377.52 391.64 1378.91 392.232 1380.55 392.232C1382.18 392.232 1383.57 391.64 1384.72 390.456C1385.87 389.24 1386.45 387.608 1386.45 385.56ZM1196.18 443.112H1181.21V449.736C1181.85 449.032 1182.74 448.456 1183.9 448.008C1185.05 447.56 1186.3 447.336 1187.64 447.336C1190.04 447.336 1192.02 447.88 1193.59 448.968C1195.19 450.056 1196.36 451.464 1197.1 453.192C1197.83 454.92 1198.2 456.792 1198.2 458.808C1198.2 462.552 1197.14 465.528 1195.03 467.736C1192.92 469.912 1189.94 471 1186.1 471C1183.54 471 1181.32 470.568 1179.43 469.704C1177.54 468.808 1176.09 467.576 1175.06 466.008C1174.04 464.44 1173.48 462.632 1173.38 460.584H1181.4C1181.59 461.576 1182.06 462.408 1182.79 463.08C1183.53 463.72 1184.54 464.04 1185.82 464.04C1187.32 464.04 1188.44 463.56 1189.18 462.6C1189.91 461.64 1190.28 460.36 1190.28 458.76C1190.28 457.192 1189.9 455.992 1189.13 455.16C1188.36 454.328 1187.24 453.912 1185.77 453.912C1184.68 453.912 1183.78 454.184 1183.08 454.728C1182.38 455.24 1181.91 455.928 1181.69 456.792H1173.77V435.912H1196.18V443.112ZM1202.73 453C1202.73 447.496 1203.79 443.16 1205.9 439.992C1208.04 436.824 1211.48 435.24 1216.22 435.24C1220.95 435.24 1224.38 436.824 1226.49 439.992C1228.63 443.16 1229.71 447.496 1229.71 453C1229.71 458.568 1228.63 462.936 1226.49 466.104C1224.38 469.272 1220.95 470.856 1216.22 470.856C1211.48 470.856 1208.04 469.272 1205.9 466.104C1203.79 462.936 1202.73 458.568 1202.73 453ZM1221.64 453C1221.64 449.768 1221.29 447.288 1220.59 445.56C1219.88 443.8 1218.43 442.92 1216.22 442.92C1214.01 442.92 1212.55 443.8 1211.85 445.56C1211.15 447.288 1210.79 449.768 1210.79 453C1210.79 455.176 1210.92 456.984 1211.18 458.424C1211.43 459.832 1211.95 460.984 1212.71 461.88C1213.51 462.744 1214.68 463.176 1216.22 463.176C1217.75 463.176 1218.91 462.744 1219.67 461.88C1220.47 460.984 1221 459.832 1221.26 458.424C1221.51 456.984 1221.64 455.176 1221.64 453ZM1233.37 444.792C1233.37 442.2 1234.11 440.2 1235.58 438.792C1237.08 437.384 1239.02 436.68 1241.39 436.68C1243.75 436.68 1245.67 437.384 1247.15 438.792C1248.62 440.2 1249.35 442.2 1249.35 444.792C1249.35 447.384 1248.62 449.384 1247.15 450.792C1245.67 452.2 1243.75 452.904 1241.39 452.904C1239.02 452.904 1237.08 452.2 1235.58 450.792C1234.11 449.384 1233.37 447.384 1233.37 444.792ZM1265.96 437.208L1247.48 471H1239.56L1258.04 437.208H1265.96ZM1241.34 441.48C1239.8 441.48 1239.03 442.584 1239.03 444.792C1239.03 446.968 1239.8 448.056 1241.34 448.056C1242.07 448.056 1242.65 447.784 1243.07 447.24C1243.48 446.696 1243.69 445.88 1243.69 444.792C1243.69 442.584 1242.91 441.48 1241.34 441.48ZM1256.22 463.416C1256.22 460.824 1256.95 458.824 1258.43 457.416C1259.9 456.008 1261.82 455.304 1264.19 455.304C1266.55 455.304 1268.47 456.008 1269.95 457.416C1271.42 458.824 1272.15 460.824 1272.15 463.416C1272.15 466.008 1271.42 468.008 1269.95 469.416C1268.47 470.824 1266.55 471.528 1264.19 471.528C1261.82 471.528 1259.9 470.824 1258.43 469.416C1256.95 468.008 1256.22 466.008 1256.22 463.416ZM1264.14 460.104C1263.4 460.104 1262.83 460.376 1262.41 460.92C1262.03 461.464 1261.83 462.296 1261.83 463.416C1261.83 465.592 1262.6 466.68 1264.14 466.68C1264.87 466.68 1265.45 466.408 1265.87 465.864C1266.28 465.32 1266.49 464.504 1266.49 463.416C1266.49 462.328 1266.28 461.512 1265.87 460.968C1265.45 460.392 1264.87 460.104 1264.14 460.104Z" fill="white"/>
<path d="M500.106 841.629C497.642 841.629 495.434 841.229 493.482 840.429C491.53 839.629 489.962 838.445 488.778 836.877C487.626 835.309 487.018 833.421 486.954 831.213H495.69C495.818 832.461 496.25 833.421 496.986 834.093C497.722 834.733 498.682 835.053 499.866 835.053C501.082 835.053 502.042 834.781 502.746 834.237C503.45 833.661 503.802 832.877 503.802 831.885C503.802 831.053 503.514 830.365 502.938 829.821C502.394 829.277 501.706 828.829 500.874 828.477C500.074 828.125 498.922 827.725 497.418 827.277C495.242 826.605 493.466 825.933 492.09 825.261C490.714 824.589 489.53 823.597 488.538 822.285C487.546 820.973 487.05 819.261 487.05 817.149C487.05 814.013 488.186 811.565 490.458 809.805C492.73 808.013 495.69 807.117 499.338 807.117C503.05 807.117 506.042 808.013 508.314 809.805C510.586 811.565 511.802 814.029 511.962 817.197H503.082C503.018 816.109 502.618 815.261 501.882 814.653C501.146 814.013 500.202 813.693 499.049 813.693C498.058 813.693 497.258 813.965 496.65 814.509C496.042 815.021 495.738 815.773 495.738 816.765C495.738 817.853 496.25 818.701 497.273 819.309C498.298 819.917 499.898 820.573 502.074 821.277C504.25 822.013 506.01 822.717 507.354 823.389C508.73 824.061 509.914 825.037 510.906 826.317C511.898 827.597 512.394 829.245 512.394 831.261C512.394 833.181 511.898 834.925 510.906 836.493C509.946 838.061 508.538 839.309 506.682 840.237C504.826 841.165 502.634 841.629 500.106 841.629ZM543.893 814.509V841.293H535.685V837.645C534.853 838.829 533.717 839.789 532.277 840.525C530.869 841.229 529.301 841.581 527.573 841.581C525.525 841.581 523.717 841.133 522.149 840.237C520.581 839.309 519.365 837.981 518.501 836.253C517.637 834.525 517.205 832.493 517.205 830.157V814.509H525.365V829.053C525.365 830.845 525.829 832.237 526.757 833.229C527.685 834.221 528.933 834.717 530.501 834.717C532.101 834.717 533.365 834.221 534.293 833.229C535.221 832.237 535.685 830.845 535.685 829.053V814.509H543.893ZM557.997 818.301C558.797 817.053 559.901 816.045 561.309 815.277C562.717 814.509 564.365 814.125 566.253 814.125C568.461 814.125 570.461 814.685 572.253 815.805C574.045 816.925 575.453 818.525 576.477 820.605C577.533 822.685 578.061 825.101 578.061 827.853C578.061 830.605 577.533 833.037 576.477 835.149C575.453 837.229 574.045 838.845 572.253 839.997C570.461 841.117 568.461 841.677 566.253 841.677C564.397 841.677 562.749 841.293 561.309 840.525C559.901 839.757 558.797 838.765 557.997 837.549V854.061H549.789V814.509H557.997V818.301ZM569.709 827.853C569.709 825.805 569.133 824.205 567.981 823.053C566.861 821.869 565.469 821.277 563.805 821.277C562.173 821.277 560.781 821.869 559.629 823.053C558.509 824.237 557.949 825.853 557.949 827.901C557.949 829.949 558.509 831.565 559.629 832.749C560.781 833.933 562.173 834.525 563.805 834.525C565.437 834.525 566.829 833.933 567.981 832.749C569.133 831.533 569.709 829.901 569.709 827.853ZM590.575 818.301C591.375 817.053 592.479 816.045 593.887 815.277C595.295 814.509 596.943 814.125 598.831 814.125C601.039 814.125 603.039 814.685 604.831 815.805C606.623 816.925 608.031 818.525 609.055 820.605C610.111 822.685 610.639 825.101 610.639 827.853C610.639 830.605 610.111 833.037 609.055 835.149C608.031 837.229 606.623 838.845 604.831 839.997C603.039 841.117 601.039 841.677 598.831 841.677C596.975 841.677 595.327 841.293 593.887 840.525C592.479 839.757 591.375 838.765 590.575 837.549V854.061H582.367V814.509H590.575V818.301ZM602.287 827.853C602.287 825.805 601.711 824.205 600.559 823.053C599.439 821.869 598.047 821.277 596.383 821.277C594.751 821.277 593.359 821.869 592.207 823.053C591.087 824.237 590.527 825.853 590.527 827.901C590.527 829.949 591.087 831.565 592.207 832.749C593.359 833.933 594.751 834.525 596.383 834.525C598.015 834.525 599.407 833.933 600.559 832.749C601.711 831.533 602.287 829.901 602.287 827.853ZM623.153 805.773V841.293H614.945V805.773H623.153ZM656.461 814.509L639.661 854.013H630.829L636.973 840.381L626.077 814.509H635.245L641.437 831.261L647.581 814.509H656.461ZM663.269 841.677C661.829 841.677 660.645 841.261 659.717 840.429C658.821 839.565 658.373 838.509 658.373 837.261C658.373 835.981 658.821 834.909 659.717 834.045C660.645 833.181 661.829 832.749 663.269 832.749C664.677 832.749 665.829 833.181 666.725 834.045C667.653 834.909 668.117 835.981 668.117 837.261C668.117 838.509 667.653 839.565 666.725 840.429C665.829 841.261 664.677 841.677 663.269 841.677ZM663.269 822.141C661.829 822.141 660.645 821.725 659.717 820.893C658.821 820.029 658.373 818.973 658.373 817.725C658.373 816.445 658.821 815.373 659.717 814.509C660.645 813.645 661.829 813.213 663.269 813.213C664.677 813.213 665.829 813.645 666.725 814.509C667.653 815.373 668.117 816.445 668.117 817.725C668.117 818.973 667.653 820.029 666.725 820.893C665.829 821.725 664.677 822.141 663.269 822.141ZM681.562 813.885V806.253H694.858V841.293H686.314V813.885H681.562ZM700.473 823.293C700.473 817.789 701.529 813.453 703.641 810.285C705.785 807.117 709.225 805.533 713.961 805.533C718.697 805.533 722.121 807.117 724.233 810.285C726.377 813.453 727.449 817.789 727.449 823.293C727.449 828.861 726.377 833.229 724.233 836.397C722.121 839.565 718.697 841.149 713.961 841.149C709.225 841.149 705.785 839.565 703.641 836.397C701.529 833.229 700.473 828.861 700.473 823.293ZM719.385 823.293C719.385 820.061 719.033 817.581 718.329 815.853C717.625 814.093 716.169 813.213 713.961 813.213C711.753 813.213 710.297 814.093 709.593 815.853C708.889 817.581 708.537 820.061 708.537 823.293C708.537 825.469 708.665 827.277 708.921 828.717C709.177 830.125 709.689 831.277 710.457 832.173C711.257 833.037 712.425 833.469 713.961 833.469C715.497 833.469 716.649 833.037 717.417 832.173C718.217 831.277 718.745 830.125 719.001 828.717C719.257 827.277 719.385 825.469 719.385 823.293ZM741.433 833.709L736.105 847.485H730.873L733.657 833.709H741.433ZM745.566 823.293C745.566 817.789 746.622 813.453 748.734 810.285C750.878 807.117 754.318 805.533 759.054 805.533C763.79 805.533 767.214 807.117 769.326 810.285C771.47 813.453 772.542 817.789 772.542 823.293C772.542 828.861 771.47 833.229 769.326 836.397C767.214 839.565 763.79 841.149 759.054 841.149C754.318 841.149 750.878 839.565 748.734 836.397C746.622 833.229 745.566 828.861 745.566 823.293ZM764.478 823.293C764.478 820.061 764.126 817.581 763.422 815.853C762.718 814.093 761.262 813.213 759.054 813.213C756.846 813.213 755.39 814.093 754.686 815.853C753.982 817.581 753.63 820.061 753.63 823.293C753.63 825.469 753.758 827.277 754.014 828.717C754.27 830.125 754.782 831.277 755.55 832.173C756.35 833.037 757.518 833.469 759.054 833.469C760.59 833.469 761.742 833.037 762.51 832.173C763.31 831.277 763.838 830.125 764.094 828.717C764.35 827.277 764.478 825.469 764.478 823.293ZM776.879 823.293C776.879 817.789 777.935 813.453 780.047 810.285C782.191 807.117 785.631 805.533 790.367 805.533C795.103 805.533 798.527 807.117 800.639 810.285C802.783 813.453 803.855 817.789 803.855 823.293C803.855 828.861 802.783 833.229 800.639 836.397C798.527 839.565 795.103 841.149 790.367 841.149C785.631 841.149 782.191 839.565 780.047 836.397C777.935 833.229 776.879 828.861 776.879 823.293ZM795.791 823.293C795.791 820.061 795.439 817.581 794.735 815.853C794.031 814.093 792.575 813.213 790.367 813.213C788.159 813.213 786.703 814.093 785.999 815.853C785.295 817.581 784.943 820.061 784.943 823.293C784.943 825.469 785.071 827.277 785.327 828.717C785.583 830.125 786.095 831.277 786.863 832.173C787.663 833.037 788.831 833.469 790.367 833.469C791.903 833.469 793.055 833.037 793.823 832.173C794.623 831.277 795.151 830.125 795.407 828.717C795.663 827.277 795.791 825.469 795.791 823.293ZM808.191 823.293C808.191 817.789 809.247 813.453 811.359 810.285C813.503 807.117 816.943 805.533 821.679 805.533C826.415 805.533 829.839 807.117 831.951 810.285C834.095 813.453 835.167 817.789 835.167 823.293C835.167 828.861 834.095 833.229 831.951 836.397C829.839 839.565 826.415 841.149 821.679 841.149C816.943 841.149 813.503 839.565 811.359 836.397C809.247 833.229 808.191 828.861 808.191 823.293ZM827.103 823.293C827.103 820.061 826.751 817.581 826.047 815.853C825.343 814.093 823.887 813.213 821.679 813.213C819.471 813.213 818.015 814.093 817.311 815.853C816.607 817.581 816.255 820.061 816.255 823.293C816.255 825.469 816.383 827.277 816.639 828.717C816.895 830.125 817.407 831.277 818.175 832.173C818.975 833.037 820.143 833.469 821.679 833.469C823.215 833.469 824.367 833.037 825.135 832.173C825.935 831.277 826.463 830.125 826.719 828.717C826.975 827.277 827.103 825.469 827.103 823.293ZM849.152 833.709L843.824 847.485H838.592L841.376 833.709H849.152ZM853.285 823.293C853.285 817.789 854.341 813.453 856.453 810.285C858.597 807.117 862.037 805.533 866.773 805.533C871.509 805.533 874.933 807.117 877.045 810.285C879.189 813.453 880.261 817.789 880.261 823.293C880.261 828.861 879.189 833.229 877.045 836.397C874.933 839.565 871.509 841.149 866.773 841.149C862.037 841.149 858.597 839.565 856.453 836.397C854.341 833.229 853.285 828.861 853.285 823.293ZM872.197 823.293C872.197 820.061 871.845 817.581 871.141 815.853C870.437 814.093 868.981 813.213 866.773 813.213C864.565 813.213 863.109 814.093 862.405 815.853C861.701 817.581 861.349 820.061 861.349 823.293C861.349 825.469 861.477 827.277 861.733 828.717C861.989 830.125 862.501 831.277 863.269 832.173C864.069 833.037 865.237 833.469 866.773 833.469C868.309 833.469 869.461 833.037 870.229 832.173C871.029 831.277 871.557 830.125 871.813 828.717C872.069 827.277 872.197 825.469 872.197 823.293ZM884.598 823.293C884.598 817.789 885.654 813.453 887.766 810.285C889.91 807.117 893.35 805.533 898.086 805.533C902.822 805.533 906.246 807.117 908.358 810.285C910.502 813.453 911.574 817.789 911.574 823.293C911.574 828.861 910.502 833.229 908.358 836.397C906.246 839.565 902.822 841.149 898.086 841.149C893.35 841.149 889.91 839.565 887.766 836.397C885.654 833.229 884.598 828.861 884.598 823.293ZM903.51 823.293C903.51 820.061 903.158 817.581 902.454 815.853C901.75 814.093 900.294 813.213 898.086 813.213C895.878 813.213 894.422 814.093 893.718 815.853C893.014 817.581 892.662 820.061 892.662 823.293C892.662 825.469 892.79 827.277 893.046 828.717C893.302 830.125 893.814 831.277 894.582 832.173C895.382 833.037 896.55 833.469 898.086 833.469C899.622 833.469 900.774 833.037 901.542 832.173C902.342 831.277 902.87 830.125 903.126 828.717C903.382 827.277 903.51 825.469 903.51 823.293ZM915.91 823.293C915.91 817.789 916.966 813.453 919.078 810.285C921.222 807.117 924.662 805.533 929.398 805.533C934.134 805.533 937.558 807.117 939.67 810.285C941.814 813.453 942.886 817.789 942.886 823.293C942.886 828.861 941.814 833.229 939.67 836.397C937.558 839.565 934.134 841.149 929.398 841.149C924.662 841.149 921.222 839.565 919.078 836.397C916.966 833.229 915.91 828.861 915.91 823.293ZM934.822 823.293C934.822 820.061 934.47 817.581 933.766 815.853C933.062 814.093 931.606 813.213 929.398 813.213C927.19 813.213 925.734 814.093 925.03 815.853C924.326 817.581 923.974 820.061 923.974 823.293C923.974 825.469 924.102 827.277 924.358 828.717C924.614 830.125 925.126 831.277 925.894 832.173C926.694 833.037 927.862 833.469 929.398 833.469C930.934 833.469 932.086 833.037 932.854 832.173C933.654 831.277 934.182 830.125 934.438 828.717C934.694 827.277 934.822 825.469 934.822 823.293Z" fill="white"/>
<defs>
<filter id="filter0_d_326_47" x="409" y="135.794" width="610" height="583.167" filterUnits="userSpaceOnUse" color-interpolation-filters="sRGB">
<feFlood flood-opacity="0" result="BackgroundImageFix"/>
<feColorMatrix in="SourceAlpha" type="matrix" values="0 0 0 0 0 0 0 0 0 0 0 0 0 0 0 0 0 0 127 0" result="hardAlpha"/>
<feOffset dy="4"/>
<feGaussianBlur stdDeviation="2"/>
<feComposite in2="hardAlpha" operator="out"/>
<feColorMatrix type="matrix" values="0 0 0 0 0 0 0 0 0 0 0 0 0 0 0 0 0 0 0.25 0"/>
<feBlend mode="normal" in2="BackgroundImageFix" result="effect1_dropShadow_326_47"/>
<feBlend mode="normal" in="SourceGraphic" in2="effect1_dropShadow_326_47" result="shape"/>
</filter>
<filter id="filter1_d_326_47" x="441.542" y="484.432" width="275.3" height="227.529" filterUnits="userSpaceOnUse" color-interpolation-filters="sRGB">
<feFlood flood-opacity="0" result="BackgroundImageFix"/>
<feColorMatrix in="SourceAlpha" type="matrix" values="0 0 0 0 0 0 0 0 0 0 0 0 0 0 0 0 0 0 127 0" result="hardAlpha"/>
<feMorphology radius="7" operator="erode" in="SourceAlpha" result="effect1_dropShadow_326_47"/>
<feOffset dy="4"/>
<feGaussianBlur stdDeviation="2"/>
<feComposite in2="hardAlpha" operator="out"/>
<feColorMatrix type="matrix" values="0 0 0 0 0 0 0 0 0 0 0 0 0 0 0 0 0 0 0.25 0"/>
<feBlend mode="normal" in2="BackgroundImageFix" result="effect1_dropShadow_326_47"/>
<feBlend mode="normal" in="SourceGraphic" in2="effect1_dropShadow_326_47" result="shape"/>
</filter>
</defs>
</svg>
